%TF.GenerationSoftware,KiCad,Pcbnew,(5.1.9)-1*%
%TF.CreationDate,2021-03-22T13:16:07-04:00*%
%TF.ProjectId,BitDisplay,42697444-6973-4706-9c61-792e6b696361,rev?*%
%TF.SameCoordinates,Original*%
%TF.FileFunction,Soldermask,Top*%
%TF.FilePolarity,Negative*%
%FSLAX46Y46*%
G04 Gerber Fmt 4.6, Leading zero omitted, Abs format (unit mm)*
G04 Created by KiCad (PCBNEW (5.1.9)-1) date 2021-03-22 13:16:07*
%MOMM*%
%LPD*%
G01*
G04 APERTURE LIST*
%TA.AperFunction,Profile*%
%ADD10C,0.100000*%
%TD*%
%ADD11C,1.900000*%
%ADD12C,2.200000*%
%ADD13C,2.000000*%
G04 APERTURE END LIST*
D10*
X100250000Y-110500000D02*
X100250000Y-81000000D01*
X154750000Y-110500000D02*
X100250000Y-110500000D01*
X154750000Y-81000000D02*
X154750000Y-110500000D01*
X100250000Y-81000000D02*
X154750000Y-81000000D01*
X154750000Y-79750000D02*
X154750000Y-50250000D01*
X100250000Y-79750000D02*
X100250000Y-50250000D01*
X100250000Y-79750000D02*
X154750000Y-79750000D01*
X100250000Y-50250000D02*
X154750000Y-50250000D01*
X100250000Y-110500000D02*
X100250000Y-81000000D01*
X154750000Y-110500000D02*
X100250000Y-110500000D01*
X154750000Y-81000000D02*
X154750000Y-110500000D01*
X100250000Y-81000000D02*
X154750000Y-81000000D01*
X154750000Y-79750000D02*
X154750000Y-50250000D01*
X100250000Y-79750000D02*
X100250000Y-50250000D01*
X100250000Y-79750000D02*
X154750000Y-79750000D01*
X100250000Y-50250000D02*
X154750000Y-50250000D01*
D11*
%TO.C,C3*%
X142480000Y-91060000D03*
X142480000Y-88520000D03*
X142480000Y-85980000D03*
X142480000Y-83440000D03*
%TD*%
D12*
%TO.C,REF\u002A\u002A*%
X127500000Y-53000000D03*
%TD*%
%TO.C,REF\u002A\u002A*%
X103000000Y-95750000D03*
%TD*%
%TO.C,REF\u002A\u002A*%
X127500000Y-107750000D03*
%TD*%
%TO.C,REF\u002A\u002A*%
X152000000Y-95750000D03*
%TD*%
%TO.C,REF\u002A\u002A*%
X127500000Y-77000000D03*
%TD*%
%TO.C,REF\u002A\u002A*%
X103000000Y-65000000D03*
%TD*%
D11*
%TO.C,DS0*%
X138000000Y-85980000D03*
X138000000Y-83440000D03*
X138000000Y-91060000D03*
X138000000Y-88520000D03*
%TD*%
%TO.C,JP1*%
X151000000Y-91330000D03*
X151000000Y-88790000D03*
X151000000Y-86250000D03*
%TD*%
%TO.C,C3*%
X110540000Y-52000000D03*
X108000000Y-52000000D03*
X105460000Y-52000000D03*
X102920000Y-52000000D03*
%TD*%
%TO.C,C2*%
X120640000Y-62950000D03*
X118100000Y-62950000D03*
X115560000Y-62950000D03*
X113020000Y-62950000D03*
%TD*%
%TO.C,C2*%
X120640000Y-67050000D03*
X118100000Y-67050000D03*
X115560000Y-67050000D03*
X113020000Y-67050000D03*
%TD*%
%TO.C,JP0*%
X140790000Y-77000000D03*
X138250000Y-77000000D03*
X135710000Y-77000000D03*
%TD*%
%TO.C,A0*%
X133130000Y-52880000D03*
X133130000Y-55420000D03*
X133130000Y-57960000D03*
X133130000Y-60500000D03*
X133130000Y-63040000D03*
X133130000Y-65580000D03*
X133130000Y-68120000D03*
X148370000Y-52880000D03*
X148370000Y-55420000D03*
X148370000Y-57960000D03*
X148370000Y-60500000D03*
X148370000Y-63040000D03*
X148370000Y-65580000D03*
X148370000Y-68120000D03*
%TD*%
%TO.C,J0*%
X153000000Y-74500000D03*
X153000000Y-77040000D03*
%TD*%
%TO.C,J2*%
X113080000Y-52000000D03*
X115620000Y-52000000D03*
X118160000Y-52000000D03*
X120700000Y-52000000D03*
%TD*%
D13*
%TO.C,SW0*%
X109250000Y-100000000D03*
X109250000Y-104500000D03*
X102750000Y-100000000D03*
X102750000Y-104500000D03*
%TD*%
%TO.C,SW1*%
X131500000Y-104500000D03*
X131500000Y-100000000D03*
X138000000Y-104500000D03*
X138000000Y-100000000D03*
%TD*%
%TO.C,SW2*%
X123625000Y-100000000D03*
X123625000Y-104500000D03*
X117125000Y-100000000D03*
X117125000Y-104500000D03*
%TD*%
M02*
