M48
; DRILL file {KiCad (5.1.9)-1} date 03/22/21 13:18:05
; FORMAT={-:-/ absolute / inch / decimal}
; #@! TF.CreationDate,2021-03-22T13:18:05-04:00
; #@! TF.GenerationSoftware,Kicad,Pcbnew,(5.1.9)-1
FMAT,2
INCH
T1C0.0118
T2C0.0394
T3C0.0433
T4C0.0866
%
G90
G05
T1
X5.0787Y-2.687
X5.2854Y-2.7953
T2
X4.052Y-2.0472
X4.152Y-2.0472
X4.252Y-2.0472
X4.352Y-2.0472
X4.4496Y-2.4783
X4.4496Y-2.6398
X4.452Y-2.0472
X4.5496Y-2.4783
X4.5496Y-2.6398
X4.552Y-2.0472
X4.6496Y-2.4783
X4.6496Y-2.6398
X4.652Y-2.0472
X4.7496Y-2.4783
X4.7496Y-2.6398
X4.752Y-2.0472
X5.2413Y-2.0819
X5.2413Y-2.1819
X5.2413Y-2.2819
X5.2413Y-2.3819
X5.2413Y-2.4819
X5.2413Y-2.5819
X5.2413Y-2.6819
X5.3429Y-3.0315
X5.4331Y-3.285
X5.4331Y-3.385
X5.4331Y-3.485
X5.4331Y-3.585
X5.4429Y-3.0315
X5.5429Y-3.0315
X5.6094Y-3.285
X5.6094Y-3.385
X5.6094Y-3.485
X5.6094Y-3.585
X5.8413Y-2.0819
X5.8413Y-2.1819
X5.8413Y-2.2819
X5.8413Y-2.3819
X5.8413Y-2.4819
X5.8413Y-2.5819
X5.8413Y-2.6819
X5.9449Y-3.3957
X5.9449Y-3.4957
X5.9449Y-3.5957
X6.0236Y-2.9331
X6.0236Y-3.0331
T3
X4.0453Y-3.937
X4.0453Y-4.1142
X4.3012Y-3.937
X4.3012Y-4.1142
X4.6112Y-3.937
X4.6112Y-4.1142
X4.8671Y-3.937
X4.8671Y-4.1142
X5.1772Y-3.937
X5.1772Y-4.1142
X5.4331Y-3.937
X5.4331Y-4.1142
T4
X4.0551Y-2.5591
X4.0551Y-3.7697
X5.0197Y-2.0866
X5.0197Y-3.0315
X5.0197Y-4.2421
X5.9843Y-3.7697
T0
M30
