%TF.GenerationSoftware,KiCad,Pcbnew,(5.1.9)-1*%
%TF.CreationDate,2021-03-22T13:16:07-04:00*%
%TF.ProjectId,BitDisplay,42697444-6973-4706-9c61-792e6b696361,rev?*%
%TF.SameCoordinates,Original*%
%TF.FileFunction,Legend,Top*%
%TF.FilePolarity,Positive*%
%FSLAX46Y46*%
G04 Gerber Fmt 4.6, Leading zero omitted, Abs format (unit mm)*
G04 Created by KiCad (PCBNEW (5.1.9)-1) date 2021-03-22 13:16:07*
%MOMM*%
%LPD*%
G01*
G04 APERTURE LIST*
%TA.AperFunction,Profile*%
%ADD10C,0.100000*%
%TD*%
%ADD11C,0.050000*%
%ADD12C,0.120000*%
%ADD13C,0.150000*%
%ADD14C,0.250000*%
G04 APERTURE END LIST*
D10*
X100250000Y-110500000D02*
X100250000Y-81000000D01*
X154750000Y-110500000D02*
X100250000Y-110500000D01*
X154750000Y-81000000D02*
X154750000Y-110500000D01*
X100250000Y-81000000D02*
X154750000Y-81000000D01*
X154750000Y-79750000D02*
X154750000Y-50250000D01*
X100250000Y-79750000D02*
X100250000Y-50250000D01*
X100250000Y-79750000D02*
X154750000Y-79750000D01*
X100250000Y-50250000D02*
X154750000Y-50250000D01*
D11*
%TO.C,DS0*%
X101500000Y-89250000D02*
X104250000Y-89250000D01*
X101500000Y-81500000D02*
X101500000Y-89250000D01*
X104250000Y-81500000D02*
X101500000Y-81500000D01*
X101500000Y-89250000D02*
X104250000Y-90750000D01*
D12*
X134500000Y-81500000D02*
X104250000Y-81500000D01*
X104250000Y-93000000D02*
X134500000Y-93000000D01*
X104250000Y-93000000D02*
X104250000Y-81500000D01*
X134500000Y-93000000D02*
X134500000Y-81500000D01*
X101250000Y-93250000D02*
X101250000Y-81250000D01*
X139500000Y-81250000D02*
X139500000Y-93250000D01*
X139500000Y-81250000D02*
X101250000Y-81250000D01*
X139500000Y-93250000D02*
X101250000Y-93250000D01*
%TO.C,A0*%
X149750000Y-51500000D02*
X149750000Y-70500000D01*
X148750000Y-71500000D02*
X132750000Y-71500000D01*
X131750000Y-70500000D02*
X131750000Y-51500000D01*
X136250000Y-48800000D02*
X145250000Y-48800000D01*
X145250000Y-48800000D02*
X145250000Y-56200000D01*
X145250000Y-56200000D02*
X136250000Y-56200000D01*
X136250000Y-56200000D02*
X136250000Y-48800000D01*
X132750000Y-50500000D02*
X136250000Y-50500000D01*
X145250000Y-50500000D02*
X148750000Y-50500000D01*
X134750000Y-57500000D02*
X146750000Y-57500000D01*
X146750000Y-57500000D02*
X146750000Y-70000000D01*
X146750000Y-70000000D02*
X134750000Y-70000000D01*
X134750000Y-70000000D02*
X134750000Y-57500000D01*
X131750000Y-51500000D02*
G75*
G02*
X132750000Y-50500000I1000000J0D01*
G01*
X148750000Y-50500000D02*
G75*
G02*
X149750000Y-51500000I0J-1000000D01*
G01*
X149750000Y-70500000D02*
G75*
G02*
X148750000Y-71500000I-1000000J0D01*
G01*
X132750000Y-71500000D02*
G75*
G02*
X131750000Y-70500000I0J1000000D01*
G01*
%TO.C,SW0*%
X102500000Y-101500000D02*
X102500000Y-103000000D01*
X103750000Y-105500000D02*
X108250000Y-105500000D01*
X109500000Y-103000000D02*
X109500000Y-101500000D01*
X108250000Y-99000000D02*
X103750000Y-99000000D01*
%TO.C,SW1*%
X137000000Y-99000000D02*
X132500000Y-99000000D01*
X138250000Y-103000000D02*
X138250000Y-101500000D01*
X132500000Y-105500000D02*
X137000000Y-105500000D01*
X131250000Y-101500000D02*
X131250000Y-103000000D01*
%TO.C,SW2*%
X116875000Y-101500000D02*
X116875000Y-103000000D01*
X118125000Y-105500000D02*
X122625000Y-105500000D01*
X123875000Y-103000000D02*
X123875000Y-101500000D01*
X122625000Y-99000000D02*
X118125000Y-99000000D01*
%TD*%
%TO.C,C3*%
D13*
X140837142Y-87416666D02*
X140884761Y-87464285D01*
X140932380Y-87607142D01*
X140932380Y-87702380D01*
X140884761Y-87845238D01*
X140789523Y-87940476D01*
X140694285Y-87988095D01*
X140503809Y-88035714D01*
X140360952Y-88035714D01*
X140170476Y-87988095D01*
X140075238Y-87940476D01*
X139980000Y-87845238D01*
X139932380Y-87702380D01*
X139932380Y-87607142D01*
X139980000Y-87464285D01*
X140027619Y-87416666D01*
X139932380Y-87083333D02*
X139932380Y-86464285D01*
X140313333Y-86797619D01*
X140313333Y-86654761D01*
X140360952Y-86559523D01*
X140408571Y-86511904D01*
X140503809Y-86464285D01*
X140741904Y-86464285D01*
X140837142Y-86511904D01*
X140884761Y-86559523D01*
X140932380Y-86654761D01*
X140932380Y-86940476D01*
X140884761Y-87035714D01*
X140837142Y-87083333D01*
X143999523Y-91464761D02*
X144142380Y-91512380D01*
X144380476Y-91512380D01*
X144475714Y-91464761D01*
X144523333Y-91417142D01*
X144570952Y-91321904D01*
X144570952Y-91226666D01*
X144523333Y-91131428D01*
X144475714Y-91083809D01*
X144380476Y-91036190D01*
X144190000Y-90988571D01*
X144094761Y-90940952D01*
X144047142Y-90893333D01*
X143999523Y-90798095D01*
X143999523Y-90702857D01*
X144047142Y-90607619D01*
X144094761Y-90560000D01*
X144190000Y-90512380D01*
X144428095Y-90512380D01*
X144570952Y-90560000D01*
X145570952Y-91417142D02*
X145523333Y-91464761D01*
X145380476Y-91512380D01*
X145285238Y-91512380D01*
X145142380Y-91464761D01*
X145047142Y-91369523D01*
X144999523Y-91274285D01*
X144951904Y-91083809D01*
X144951904Y-90940952D01*
X144999523Y-90750476D01*
X145047142Y-90655238D01*
X145142380Y-90560000D01*
X145285238Y-90512380D01*
X145380476Y-90512380D01*
X145523333Y-90560000D01*
X145570952Y-90607619D01*
X146475714Y-91512380D02*
X145999523Y-91512380D01*
X145999523Y-90512380D01*
X143975714Y-88924761D02*
X144118571Y-88972380D01*
X144356666Y-88972380D01*
X144451904Y-88924761D01*
X144499523Y-88877142D01*
X144547142Y-88781904D01*
X144547142Y-88686666D01*
X144499523Y-88591428D01*
X144451904Y-88543809D01*
X144356666Y-88496190D01*
X144166190Y-88448571D01*
X144070952Y-88400952D01*
X144023333Y-88353333D01*
X143975714Y-88258095D01*
X143975714Y-88162857D01*
X144023333Y-88067619D01*
X144070952Y-88020000D01*
X144166190Y-87972380D01*
X144404285Y-87972380D01*
X144547142Y-88020000D01*
X144975714Y-88972380D02*
X144975714Y-87972380D01*
X145213809Y-87972380D01*
X145356666Y-88020000D01*
X145451904Y-88115238D01*
X145499523Y-88210476D01*
X145547142Y-88400952D01*
X145547142Y-88543809D01*
X145499523Y-88734285D01*
X145451904Y-88829523D01*
X145356666Y-88924761D01*
X145213809Y-88972380D01*
X144975714Y-88972380D01*
X145928095Y-88686666D02*
X146404285Y-88686666D01*
X145832857Y-88972380D02*
X146166190Y-87972380D01*
X146499523Y-88972380D01*
X144428095Y-85480000D02*
X144332857Y-85432380D01*
X144190000Y-85432380D01*
X144047142Y-85480000D01*
X143951904Y-85575238D01*
X143904285Y-85670476D01*
X143856666Y-85860952D01*
X143856666Y-86003809D01*
X143904285Y-86194285D01*
X143951904Y-86289523D01*
X144047142Y-86384761D01*
X144190000Y-86432380D01*
X144285238Y-86432380D01*
X144428095Y-86384761D01*
X144475714Y-86337142D01*
X144475714Y-86003809D01*
X144285238Y-86003809D01*
X144904285Y-86432380D02*
X144904285Y-85432380D01*
X145475714Y-86432380D01*
X145475714Y-85432380D01*
X145951904Y-86432380D02*
X145951904Y-85432380D01*
X146190000Y-85432380D01*
X146332857Y-85480000D01*
X146428095Y-85575238D01*
X146475714Y-85670476D01*
X146523333Y-85860952D01*
X146523333Y-86003809D01*
X146475714Y-86194285D01*
X146428095Y-86289523D01*
X146332857Y-86384761D01*
X146190000Y-86432380D01*
X145951904Y-86432380D01*
X143856666Y-82932380D02*
X144190000Y-83932380D01*
X144523333Y-82932380D01*
X145428095Y-83837142D02*
X145380476Y-83884761D01*
X145237619Y-83932380D01*
X145142380Y-83932380D01*
X144999523Y-83884761D01*
X144904285Y-83789523D01*
X144856666Y-83694285D01*
X144809047Y-83503809D01*
X144809047Y-83360952D01*
X144856666Y-83170476D01*
X144904285Y-83075238D01*
X144999523Y-82980000D01*
X145142380Y-82932380D01*
X145237619Y-82932380D01*
X145380476Y-82980000D01*
X145428095Y-83027619D01*
X146428095Y-83837142D02*
X146380476Y-83884761D01*
X146237619Y-83932380D01*
X146142380Y-83932380D01*
X145999523Y-83884761D01*
X145904285Y-83789523D01*
X145856666Y-83694285D01*
X145809047Y-83503809D01*
X145809047Y-83360952D01*
X145856666Y-83170476D01*
X145904285Y-83075238D01*
X145999523Y-82980000D01*
X146142380Y-82932380D01*
X146237619Y-82932380D01*
X146380476Y-82980000D01*
X146428095Y-83027619D01*
%TO.C,DS0*%
X137035714Y-94452380D02*
X137035714Y-93452380D01*
X137273809Y-93452380D01*
X137416666Y-93500000D01*
X137511904Y-93595238D01*
X137559523Y-93690476D01*
X137607142Y-93880952D01*
X137607142Y-94023809D01*
X137559523Y-94214285D01*
X137511904Y-94309523D01*
X137416666Y-94404761D01*
X137273809Y-94452380D01*
X137035714Y-94452380D01*
X137988095Y-94404761D02*
X138130952Y-94452380D01*
X138369047Y-94452380D01*
X138464285Y-94404761D01*
X138511904Y-94357142D01*
X138559523Y-94261904D01*
X138559523Y-94166666D01*
X138511904Y-94071428D01*
X138464285Y-94023809D01*
X138369047Y-93976190D01*
X138178571Y-93928571D01*
X138083333Y-93880952D01*
X138035714Y-93833333D01*
X137988095Y-93738095D01*
X137988095Y-93642857D01*
X138035714Y-93547619D01*
X138083333Y-93500000D01*
X138178571Y-93452380D01*
X138416666Y-93452380D01*
X138559523Y-93500000D01*
X139178571Y-93452380D02*
X139273809Y-93452380D01*
X139369047Y-93500000D01*
X139416666Y-93547619D01*
X139464285Y-93642857D01*
X139511904Y-93833333D01*
X139511904Y-94071428D01*
X139464285Y-94261904D01*
X139416666Y-94357142D01*
X139369047Y-94404761D01*
X139273809Y-94452380D01*
X139178571Y-94452380D01*
X139083333Y-94404761D01*
X139035714Y-94357142D01*
X138988095Y-94261904D01*
X138940476Y-94071428D01*
X138940476Y-93833333D01*
X138988095Y-93642857D01*
X139035714Y-93547619D01*
X139083333Y-93500000D01*
X139178571Y-93452380D01*
X134910000Y-85569285D02*
X135160000Y-86319285D01*
X135410000Y-85569285D01*
X136088571Y-86247857D02*
X136052857Y-86283571D01*
X135945714Y-86319285D01*
X135874285Y-86319285D01*
X135767142Y-86283571D01*
X135695714Y-86212142D01*
X135660000Y-86140714D01*
X135624285Y-85997857D01*
X135624285Y-85890714D01*
X135660000Y-85747857D01*
X135695714Y-85676428D01*
X135767142Y-85605000D01*
X135874285Y-85569285D01*
X135945714Y-85569285D01*
X136052857Y-85605000D01*
X136088571Y-85640714D01*
X136838571Y-86247857D02*
X136802857Y-86283571D01*
X136695714Y-86319285D01*
X136624285Y-86319285D01*
X136517142Y-86283571D01*
X136445714Y-86212142D01*
X136410000Y-86140714D01*
X136374285Y-85997857D01*
X136374285Y-85890714D01*
X136410000Y-85747857D01*
X136445714Y-85676428D01*
X136517142Y-85605000D01*
X136624285Y-85569285D01*
X136695714Y-85569285D01*
X136802857Y-85605000D01*
X136838571Y-85640714D01*
X135338571Y-83105000D02*
X135267142Y-83069285D01*
X135160000Y-83069285D01*
X135052857Y-83105000D01*
X134981428Y-83176428D01*
X134945714Y-83247857D01*
X134910000Y-83390714D01*
X134910000Y-83497857D01*
X134945714Y-83640714D01*
X134981428Y-83712142D01*
X135052857Y-83783571D01*
X135160000Y-83819285D01*
X135231428Y-83819285D01*
X135338571Y-83783571D01*
X135374285Y-83747857D01*
X135374285Y-83497857D01*
X135231428Y-83497857D01*
X135695714Y-83819285D02*
X135695714Y-83069285D01*
X136124285Y-83819285D01*
X136124285Y-83069285D01*
X136481428Y-83819285D02*
X136481428Y-83069285D01*
X136660000Y-83069285D01*
X136767142Y-83105000D01*
X136838571Y-83176428D01*
X136874285Y-83247857D01*
X136910000Y-83390714D01*
X136910000Y-83497857D01*
X136874285Y-83640714D01*
X136838571Y-83712142D01*
X136767142Y-83783571D01*
X136660000Y-83819285D01*
X136481428Y-83819285D01*
X134999285Y-91363571D02*
X135106428Y-91399285D01*
X135285000Y-91399285D01*
X135356428Y-91363571D01*
X135392142Y-91327857D01*
X135427857Y-91256428D01*
X135427857Y-91185000D01*
X135392142Y-91113571D01*
X135356428Y-91077857D01*
X135285000Y-91042142D01*
X135142142Y-91006428D01*
X135070714Y-90970714D01*
X135035000Y-90935000D01*
X134999285Y-90863571D01*
X134999285Y-90792142D01*
X135035000Y-90720714D01*
X135070714Y-90685000D01*
X135142142Y-90649285D01*
X135320714Y-90649285D01*
X135427857Y-90685000D01*
X135749285Y-91399285D02*
X135749285Y-90649285D01*
X135927857Y-90649285D01*
X136035000Y-90685000D01*
X136106428Y-90756428D01*
X136142142Y-90827857D01*
X136177857Y-90970714D01*
X136177857Y-91077857D01*
X136142142Y-91220714D01*
X136106428Y-91292142D01*
X136035000Y-91363571D01*
X135927857Y-91399285D01*
X135749285Y-91399285D01*
X136463571Y-91185000D02*
X136820714Y-91185000D01*
X136392142Y-91399285D02*
X136642142Y-90649285D01*
X136892142Y-91399285D01*
X135017142Y-88823571D02*
X135124285Y-88859285D01*
X135302857Y-88859285D01*
X135374285Y-88823571D01*
X135410000Y-88787857D01*
X135445714Y-88716428D01*
X135445714Y-88645000D01*
X135410000Y-88573571D01*
X135374285Y-88537857D01*
X135302857Y-88502142D01*
X135160000Y-88466428D01*
X135088571Y-88430714D01*
X135052857Y-88395000D01*
X135017142Y-88323571D01*
X135017142Y-88252142D01*
X135052857Y-88180714D01*
X135088571Y-88145000D01*
X135160000Y-88109285D01*
X135338571Y-88109285D01*
X135445714Y-88145000D01*
X136195714Y-88787857D02*
X136160000Y-88823571D01*
X136052857Y-88859285D01*
X135981428Y-88859285D01*
X135874285Y-88823571D01*
X135802857Y-88752142D01*
X135767142Y-88680714D01*
X135731428Y-88537857D01*
X135731428Y-88430714D01*
X135767142Y-88287857D01*
X135802857Y-88216428D01*
X135874285Y-88145000D01*
X135981428Y-88109285D01*
X136052857Y-88109285D01*
X136160000Y-88145000D01*
X136195714Y-88180714D01*
X136874285Y-88859285D02*
X136517142Y-88859285D01*
X136517142Y-88109285D01*
D14*
X106547619Y-85744047D02*
X107071428Y-85744047D01*
X107333333Y-85875000D01*
X107595238Y-86136904D01*
X107726190Y-86660714D01*
X107726190Y-87577380D01*
X107595238Y-88101190D01*
X107333333Y-88363095D01*
X107071428Y-88494047D01*
X106547619Y-88494047D01*
X106285714Y-88363095D01*
X106023809Y-88101190D01*
X105892857Y-87577380D01*
X105892857Y-86660714D01*
X106023809Y-86136904D01*
X106285714Y-85875000D01*
X106547619Y-85744047D01*
X110214285Y-88494047D02*
X108904761Y-88494047D01*
X108904761Y-85744047D01*
X111130952Y-87053571D02*
X112047619Y-87053571D01*
X112440476Y-88494047D02*
X111130952Y-88494047D01*
X111130952Y-85744047D01*
X112440476Y-85744047D01*
X113619047Y-88494047D02*
X113619047Y-85744047D01*
X114273809Y-85744047D01*
X114666666Y-85875000D01*
X114928571Y-86136904D01*
X115059523Y-86398809D01*
X115190476Y-86922619D01*
X115190476Y-87315476D01*
X115059523Y-87839285D01*
X114928571Y-88101190D01*
X114666666Y-88363095D01*
X114273809Y-88494047D01*
X113619047Y-88494047D01*
X119904761Y-88494047D02*
X118333333Y-88494047D01*
X119119047Y-88494047D02*
X119119047Y-85744047D01*
X118857142Y-86136904D01*
X118595238Y-86398809D01*
X118333333Y-86529761D01*
X120952380Y-86005952D02*
X121083333Y-85875000D01*
X121345238Y-85744047D01*
X121999999Y-85744047D01*
X122261904Y-85875000D01*
X122392857Y-86005952D01*
X122523809Y-86267857D01*
X122523809Y-86529761D01*
X122392857Y-86922619D01*
X120821428Y-88494047D01*
X122523809Y-88494047D01*
X124095238Y-86922619D02*
X123833333Y-86791666D01*
X123702380Y-86660714D01*
X123571428Y-86398809D01*
X123571428Y-86267857D01*
X123702380Y-86005952D01*
X123833333Y-85875000D01*
X124095238Y-85744047D01*
X124619047Y-85744047D01*
X124880952Y-85875000D01*
X125011904Y-86005952D01*
X125142857Y-86267857D01*
X125142857Y-86398809D01*
X125011904Y-86660714D01*
X124880952Y-86791666D01*
X124619047Y-86922619D01*
X124095238Y-86922619D01*
X123833333Y-87053571D01*
X123702380Y-87184523D01*
X123571428Y-87446428D01*
X123571428Y-87970238D01*
X123702380Y-88232142D01*
X123833333Y-88363095D01*
X124095238Y-88494047D01*
X124619047Y-88494047D01*
X124880952Y-88363095D01*
X125011904Y-88232142D01*
X125142857Y-87970238D01*
X125142857Y-87446428D01*
X125011904Y-87184523D01*
X124880952Y-87053571D01*
X124619047Y-86922619D01*
X126059523Y-88494047D02*
X127499999Y-86660714D01*
X126059523Y-86660714D02*
X127499999Y-88494047D01*
X128285714Y-85744047D02*
X129988095Y-85744047D01*
X129071428Y-86791666D01*
X129464285Y-86791666D01*
X129726190Y-86922619D01*
X129857142Y-87053571D01*
X129988095Y-87315476D01*
X129988095Y-87970238D01*
X129857142Y-88232142D01*
X129726190Y-88363095D01*
X129464285Y-88494047D01*
X128678571Y-88494047D01*
X128416666Y-88363095D01*
X128285714Y-88232142D01*
X131035714Y-86005952D02*
X131166666Y-85875000D01*
X131428571Y-85744047D01*
X132083333Y-85744047D01*
X132345238Y-85875000D01*
X132476190Y-86005952D01*
X132607142Y-86267857D01*
X132607142Y-86529761D01*
X132476190Y-86922619D01*
X130904761Y-88494047D01*
X132607142Y-88494047D01*
%TO.C,JP1*%
D13*
X148674380Y-89623333D02*
X149388666Y-89623333D01*
X149531523Y-89670952D01*
X149626761Y-89766190D01*
X149674380Y-89909047D01*
X149674380Y-90004285D01*
X149674380Y-89147142D02*
X148674380Y-89147142D01*
X148674380Y-88766190D01*
X148722000Y-88670952D01*
X148769619Y-88623333D01*
X148864857Y-88575714D01*
X149007714Y-88575714D01*
X149102952Y-88623333D01*
X149150571Y-88670952D01*
X149198190Y-88766190D01*
X149198190Y-89147142D01*
X149674380Y-87623333D02*
X149674380Y-88194761D01*
X149674380Y-87909047D02*
X148674380Y-87909047D01*
X148817238Y-88004285D01*
X148912476Y-88099523D01*
X148960095Y-88194761D01*
%TO.C,C3*%
X106563333Y-50071142D02*
X106515714Y-50118761D01*
X106372857Y-50166380D01*
X106277619Y-50166380D01*
X106134761Y-50118761D01*
X106039523Y-50023523D01*
X105991904Y-49928285D01*
X105944285Y-49737809D01*
X105944285Y-49594952D01*
X105991904Y-49404476D01*
X106039523Y-49309238D01*
X106134761Y-49214000D01*
X106277619Y-49166380D01*
X106372857Y-49166380D01*
X106515714Y-49214000D01*
X106563333Y-49261619D01*
X106896666Y-49166380D02*
X107515714Y-49166380D01*
X107182380Y-49547333D01*
X107325238Y-49547333D01*
X107420476Y-49594952D01*
X107468095Y-49642571D01*
X107515714Y-49737809D01*
X107515714Y-49975904D01*
X107468095Y-50071142D01*
X107420476Y-50118761D01*
X107325238Y-50166380D01*
X107039523Y-50166380D01*
X106944285Y-50118761D01*
X106896666Y-50071142D01*
X110944761Y-55730476D02*
X110992380Y-55587619D01*
X110992380Y-55349523D01*
X110944761Y-55254285D01*
X110897142Y-55206666D01*
X110801904Y-55159047D01*
X110706666Y-55159047D01*
X110611428Y-55206666D01*
X110563809Y-55254285D01*
X110516190Y-55349523D01*
X110468571Y-55540000D01*
X110420952Y-55635238D01*
X110373333Y-55682857D01*
X110278095Y-55730476D01*
X110182857Y-55730476D01*
X110087619Y-55682857D01*
X110040000Y-55635238D01*
X109992380Y-55540000D01*
X109992380Y-55301904D01*
X110040000Y-55159047D01*
X110897142Y-54159047D02*
X110944761Y-54206666D01*
X110992380Y-54349523D01*
X110992380Y-54444761D01*
X110944761Y-54587619D01*
X110849523Y-54682857D01*
X110754285Y-54730476D01*
X110563809Y-54778095D01*
X110420952Y-54778095D01*
X110230476Y-54730476D01*
X110135238Y-54682857D01*
X110040000Y-54587619D01*
X109992380Y-54444761D01*
X109992380Y-54349523D01*
X110040000Y-54206666D01*
X110087619Y-54159047D01*
X110992380Y-53254285D02*
X110992380Y-53730476D01*
X109992380Y-53730476D01*
X108404761Y-55754285D02*
X108452380Y-55611428D01*
X108452380Y-55373333D01*
X108404761Y-55278095D01*
X108357142Y-55230476D01*
X108261904Y-55182857D01*
X108166666Y-55182857D01*
X108071428Y-55230476D01*
X108023809Y-55278095D01*
X107976190Y-55373333D01*
X107928571Y-55563809D01*
X107880952Y-55659047D01*
X107833333Y-55706666D01*
X107738095Y-55754285D01*
X107642857Y-55754285D01*
X107547619Y-55706666D01*
X107500000Y-55659047D01*
X107452380Y-55563809D01*
X107452380Y-55325714D01*
X107500000Y-55182857D01*
X108452380Y-54754285D02*
X107452380Y-54754285D01*
X107452380Y-54516190D01*
X107500000Y-54373333D01*
X107595238Y-54278095D01*
X107690476Y-54230476D01*
X107880952Y-54182857D01*
X108023809Y-54182857D01*
X108214285Y-54230476D01*
X108309523Y-54278095D01*
X108404761Y-54373333D01*
X108452380Y-54516190D01*
X108452380Y-54754285D01*
X108166666Y-53801904D02*
X108166666Y-53325714D01*
X108452380Y-53897142D02*
X107452380Y-53563809D01*
X108452380Y-53230476D01*
X104960000Y-55301904D02*
X104912380Y-55397142D01*
X104912380Y-55540000D01*
X104960000Y-55682857D01*
X105055238Y-55778095D01*
X105150476Y-55825714D01*
X105340952Y-55873333D01*
X105483809Y-55873333D01*
X105674285Y-55825714D01*
X105769523Y-55778095D01*
X105864761Y-55682857D01*
X105912380Y-55540000D01*
X105912380Y-55444761D01*
X105864761Y-55301904D01*
X105817142Y-55254285D01*
X105483809Y-55254285D01*
X105483809Y-55444761D01*
X105912380Y-54825714D02*
X104912380Y-54825714D01*
X105912380Y-54254285D01*
X104912380Y-54254285D01*
X105912380Y-53778095D02*
X104912380Y-53778095D01*
X104912380Y-53540000D01*
X104960000Y-53397142D01*
X105055238Y-53301904D01*
X105150476Y-53254285D01*
X105340952Y-53206666D01*
X105483809Y-53206666D01*
X105674285Y-53254285D01*
X105769523Y-53301904D01*
X105864761Y-53397142D01*
X105912380Y-53540000D01*
X105912380Y-53778095D01*
X102412380Y-55873333D02*
X103412380Y-55540000D01*
X102412380Y-55206666D01*
X103317142Y-54301904D02*
X103364761Y-54349523D01*
X103412380Y-54492380D01*
X103412380Y-54587619D01*
X103364761Y-54730476D01*
X103269523Y-54825714D01*
X103174285Y-54873333D01*
X102983809Y-54920952D01*
X102840952Y-54920952D01*
X102650476Y-54873333D01*
X102555238Y-54825714D01*
X102460000Y-54730476D01*
X102412380Y-54587619D01*
X102412380Y-54492380D01*
X102460000Y-54349523D01*
X102507619Y-54301904D01*
X103317142Y-53301904D02*
X103364761Y-53349523D01*
X103412380Y-53492380D01*
X103412380Y-53587619D01*
X103364761Y-53730476D01*
X103269523Y-53825714D01*
X103174285Y-53873333D01*
X102983809Y-53920952D01*
X102840952Y-53920952D01*
X102650476Y-53873333D01*
X102555238Y-53825714D01*
X102460000Y-53730476D01*
X102412380Y-53587619D01*
X102412380Y-53492380D01*
X102460000Y-53349523D01*
X102507619Y-53301904D01*
%TO.C,C2*%
X121074761Y-61540476D02*
X121122380Y-61397619D01*
X121122380Y-61159523D01*
X121074761Y-61064285D01*
X121027142Y-61016666D01*
X120931904Y-60969047D01*
X120836666Y-60969047D01*
X120741428Y-61016666D01*
X120693809Y-61064285D01*
X120646190Y-61159523D01*
X120598571Y-61350000D01*
X120550952Y-61445238D01*
X120503333Y-61492857D01*
X120408095Y-61540476D01*
X120312857Y-61540476D01*
X120217619Y-61492857D01*
X120170000Y-61445238D01*
X120122380Y-61350000D01*
X120122380Y-61111904D01*
X120170000Y-60969047D01*
X121027142Y-59969047D02*
X121074761Y-60016666D01*
X121122380Y-60159523D01*
X121122380Y-60254761D01*
X121074761Y-60397619D01*
X120979523Y-60492857D01*
X120884285Y-60540476D01*
X120693809Y-60588095D01*
X120550952Y-60588095D01*
X120360476Y-60540476D01*
X120265238Y-60492857D01*
X120170000Y-60397619D01*
X120122380Y-60254761D01*
X120122380Y-60159523D01*
X120170000Y-60016666D01*
X120217619Y-59969047D01*
X121122380Y-59064285D02*
X121122380Y-59540476D01*
X120122380Y-59540476D01*
X118534761Y-61564285D02*
X118582380Y-61421428D01*
X118582380Y-61183333D01*
X118534761Y-61088095D01*
X118487142Y-61040476D01*
X118391904Y-60992857D01*
X118296666Y-60992857D01*
X118201428Y-61040476D01*
X118153809Y-61088095D01*
X118106190Y-61183333D01*
X118058571Y-61373809D01*
X118010952Y-61469047D01*
X117963333Y-61516666D01*
X117868095Y-61564285D01*
X117772857Y-61564285D01*
X117677619Y-61516666D01*
X117630000Y-61469047D01*
X117582380Y-61373809D01*
X117582380Y-61135714D01*
X117630000Y-60992857D01*
X118582380Y-60564285D02*
X117582380Y-60564285D01*
X117582380Y-60326190D01*
X117630000Y-60183333D01*
X117725238Y-60088095D01*
X117820476Y-60040476D01*
X118010952Y-59992857D01*
X118153809Y-59992857D01*
X118344285Y-60040476D01*
X118439523Y-60088095D01*
X118534761Y-60183333D01*
X118582380Y-60326190D01*
X118582380Y-60564285D01*
X118296666Y-59611904D02*
X118296666Y-59135714D01*
X118582380Y-59707142D02*
X117582380Y-59373809D01*
X118582380Y-59040476D01*
X115030000Y-61011904D02*
X114982380Y-61107142D01*
X114982380Y-61250000D01*
X115030000Y-61392857D01*
X115125238Y-61488095D01*
X115220476Y-61535714D01*
X115410952Y-61583333D01*
X115553809Y-61583333D01*
X115744285Y-61535714D01*
X115839523Y-61488095D01*
X115934761Y-61392857D01*
X115982380Y-61250000D01*
X115982380Y-61154761D01*
X115934761Y-61011904D01*
X115887142Y-60964285D01*
X115553809Y-60964285D01*
X115553809Y-61154761D01*
X115982380Y-60535714D02*
X114982380Y-60535714D01*
X115982380Y-59964285D01*
X114982380Y-59964285D01*
X115982380Y-59488095D02*
X114982380Y-59488095D01*
X114982380Y-59250000D01*
X115030000Y-59107142D01*
X115125238Y-59011904D01*
X115220476Y-58964285D01*
X115410952Y-58916666D01*
X115553809Y-58916666D01*
X115744285Y-58964285D01*
X115839523Y-59011904D01*
X115934761Y-59107142D01*
X115982380Y-59250000D01*
X115982380Y-59488095D01*
X112482380Y-61683333D02*
X113482380Y-61350000D01*
X112482380Y-61016666D01*
X113387142Y-60111904D02*
X113434761Y-60159523D01*
X113482380Y-60302380D01*
X113482380Y-60397619D01*
X113434761Y-60540476D01*
X113339523Y-60635714D01*
X113244285Y-60683333D01*
X113053809Y-60730952D01*
X112910952Y-60730952D01*
X112720476Y-60683333D01*
X112625238Y-60635714D01*
X112530000Y-60540476D01*
X112482380Y-60397619D01*
X112482380Y-60302380D01*
X112530000Y-60159523D01*
X112577619Y-60111904D01*
X113387142Y-59111904D02*
X113434761Y-59159523D01*
X113482380Y-59302380D01*
X113482380Y-59397619D01*
X113434761Y-59540476D01*
X113339523Y-59635714D01*
X113244285Y-59683333D01*
X113053809Y-59730952D01*
X112910952Y-59730952D01*
X112720476Y-59683333D01*
X112625238Y-59635714D01*
X112530000Y-59540476D01*
X112482380Y-59397619D01*
X112482380Y-59302380D01*
X112530000Y-59159523D01*
X112577619Y-59111904D01*
X116653333Y-65357142D02*
X116605714Y-65404761D01*
X116462857Y-65452380D01*
X116367619Y-65452380D01*
X116224761Y-65404761D01*
X116129523Y-65309523D01*
X116081904Y-65214285D01*
X116034285Y-65023809D01*
X116034285Y-64880952D01*
X116081904Y-64690476D01*
X116129523Y-64595238D01*
X116224761Y-64500000D01*
X116367619Y-64452380D01*
X116462857Y-64452380D01*
X116605714Y-64500000D01*
X116653333Y-64547619D01*
X117034285Y-64547619D02*
X117081904Y-64500000D01*
X117177142Y-64452380D01*
X117415238Y-64452380D01*
X117510476Y-64500000D01*
X117558095Y-64547619D01*
X117605714Y-64642857D01*
X117605714Y-64738095D01*
X117558095Y-64880952D01*
X116986666Y-65452380D01*
X117605714Y-65452380D01*
X121044761Y-70780476D02*
X121092380Y-70637619D01*
X121092380Y-70399523D01*
X121044761Y-70304285D01*
X120997142Y-70256666D01*
X120901904Y-70209047D01*
X120806666Y-70209047D01*
X120711428Y-70256666D01*
X120663809Y-70304285D01*
X120616190Y-70399523D01*
X120568571Y-70590000D01*
X120520952Y-70685238D01*
X120473333Y-70732857D01*
X120378095Y-70780476D01*
X120282857Y-70780476D01*
X120187619Y-70732857D01*
X120140000Y-70685238D01*
X120092380Y-70590000D01*
X120092380Y-70351904D01*
X120140000Y-70209047D01*
X120997142Y-69209047D02*
X121044761Y-69256666D01*
X121092380Y-69399523D01*
X121092380Y-69494761D01*
X121044761Y-69637619D01*
X120949523Y-69732857D01*
X120854285Y-69780476D01*
X120663809Y-69828095D01*
X120520952Y-69828095D01*
X120330476Y-69780476D01*
X120235238Y-69732857D01*
X120140000Y-69637619D01*
X120092380Y-69494761D01*
X120092380Y-69399523D01*
X120140000Y-69256666D01*
X120187619Y-69209047D01*
X121092380Y-68304285D02*
X121092380Y-68780476D01*
X120092380Y-68780476D01*
X118504761Y-70804285D02*
X118552380Y-70661428D01*
X118552380Y-70423333D01*
X118504761Y-70328095D01*
X118457142Y-70280476D01*
X118361904Y-70232857D01*
X118266666Y-70232857D01*
X118171428Y-70280476D01*
X118123809Y-70328095D01*
X118076190Y-70423333D01*
X118028571Y-70613809D01*
X117980952Y-70709047D01*
X117933333Y-70756666D01*
X117838095Y-70804285D01*
X117742857Y-70804285D01*
X117647619Y-70756666D01*
X117600000Y-70709047D01*
X117552380Y-70613809D01*
X117552380Y-70375714D01*
X117600000Y-70232857D01*
X118552380Y-69804285D02*
X117552380Y-69804285D01*
X117552380Y-69566190D01*
X117600000Y-69423333D01*
X117695238Y-69328095D01*
X117790476Y-69280476D01*
X117980952Y-69232857D01*
X118123809Y-69232857D01*
X118314285Y-69280476D01*
X118409523Y-69328095D01*
X118504761Y-69423333D01*
X118552380Y-69566190D01*
X118552380Y-69804285D01*
X118266666Y-68851904D02*
X118266666Y-68375714D01*
X118552380Y-68947142D02*
X117552380Y-68613809D01*
X118552380Y-68280476D01*
X115060000Y-70351904D02*
X115012380Y-70447142D01*
X115012380Y-70590000D01*
X115060000Y-70732857D01*
X115155238Y-70828095D01*
X115250476Y-70875714D01*
X115440952Y-70923333D01*
X115583809Y-70923333D01*
X115774285Y-70875714D01*
X115869523Y-70828095D01*
X115964761Y-70732857D01*
X116012380Y-70590000D01*
X116012380Y-70494761D01*
X115964761Y-70351904D01*
X115917142Y-70304285D01*
X115583809Y-70304285D01*
X115583809Y-70494761D01*
X116012380Y-69875714D02*
X115012380Y-69875714D01*
X116012380Y-69304285D01*
X115012380Y-69304285D01*
X116012380Y-68828095D02*
X115012380Y-68828095D01*
X115012380Y-68590000D01*
X115060000Y-68447142D01*
X115155238Y-68351904D01*
X115250476Y-68304285D01*
X115440952Y-68256666D01*
X115583809Y-68256666D01*
X115774285Y-68304285D01*
X115869523Y-68351904D01*
X115964761Y-68447142D01*
X116012380Y-68590000D01*
X116012380Y-68828095D01*
X112512380Y-70923333D02*
X113512380Y-70590000D01*
X112512380Y-70256666D01*
X113417142Y-69351904D02*
X113464761Y-69399523D01*
X113512380Y-69542380D01*
X113512380Y-69637619D01*
X113464761Y-69780476D01*
X113369523Y-69875714D01*
X113274285Y-69923333D01*
X113083809Y-69970952D01*
X112940952Y-69970952D01*
X112750476Y-69923333D01*
X112655238Y-69875714D01*
X112560000Y-69780476D01*
X112512380Y-69637619D01*
X112512380Y-69542380D01*
X112560000Y-69399523D01*
X112607619Y-69351904D01*
X113417142Y-68351904D02*
X113464761Y-68399523D01*
X113512380Y-68542380D01*
X113512380Y-68637619D01*
X113464761Y-68780476D01*
X113369523Y-68875714D01*
X113274285Y-68923333D01*
X113083809Y-68970952D01*
X112940952Y-68970952D01*
X112750476Y-68923333D01*
X112655238Y-68875714D01*
X112560000Y-68780476D01*
X112512380Y-68637619D01*
X112512380Y-68542380D01*
X112560000Y-68399523D01*
X112607619Y-68351904D01*
%TO.C,JP0*%
X137416666Y-74674380D02*
X137416666Y-75388666D01*
X137369047Y-75531523D01*
X137273809Y-75626761D01*
X137130952Y-75674380D01*
X137035714Y-75674380D01*
X137892857Y-75674380D02*
X137892857Y-74674380D01*
X138273809Y-74674380D01*
X138369047Y-74722000D01*
X138416666Y-74769619D01*
X138464285Y-74864857D01*
X138464285Y-75007714D01*
X138416666Y-75102952D01*
X138369047Y-75150571D01*
X138273809Y-75198190D01*
X137892857Y-75198190D01*
X139083333Y-74674380D02*
X139178571Y-74674380D01*
X139273809Y-74722000D01*
X139321428Y-74769619D01*
X139369047Y-74864857D01*
X139416666Y-75055333D01*
X139416666Y-75293428D01*
X139369047Y-75483904D01*
X139321428Y-75579142D01*
X139273809Y-75626761D01*
X139178571Y-75674380D01*
X139083333Y-75674380D01*
X138988095Y-75626761D01*
X138940476Y-75579142D01*
X138892857Y-75483904D01*
X138845238Y-75293428D01*
X138845238Y-75055333D01*
X138892857Y-74864857D01*
X138940476Y-74769619D01*
X138988095Y-74722000D01*
X139083333Y-74674380D01*
%TO.C,A0*%
X150535714Y-51666666D02*
X151011904Y-51666666D01*
X150440476Y-51952380D02*
X150773809Y-50952380D01*
X151107142Y-51952380D01*
X151630952Y-50952380D02*
X151726190Y-50952380D01*
X151821428Y-51000000D01*
X151869047Y-51047619D01*
X151916666Y-51142857D01*
X151964285Y-51333333D01*
X151964285Y-51571428D01*
X151916666Y-51761904D01*
X151869047Y-51857142D01*
X151821428Y-51904761D01*
X151726190Y-51952380D01*
X151630952Y-51952380D01*
X151535714Y-51904761D01*
X151488095Y-51857142D01*
X151440476Y-51761904D01*
X151392857Y-51571428D01*
X151392857Y-51333333D01*
X151440476Y-51142857D01*
X151488095Y-51047619D01*
X151535714Y-51000000D01*
X151630952Y-50952380D01*
%TO.C,J0*%
X150674380Y-74833333D02*
X151388666Y-74833333D01*
X151531523Y-74880952D01*
X151626761Y-74976190D01*
X151674380Y-75119047D01*
X151674380Y-75214285D01*
X150674380Y-74166666D02*
X150674380Y-74071428D01*
X150722000Y-73976190D01*
X150769619Y-73928571D01*
X150864857Y-73880952D01*
X151055333Y-73833333D01*
X151293428Y-73833333D01*
X151483904Y-73880952D01*
X151579142Y-73928571D01*
X151626761Y-73976190D01*
X151674380Y-74071428D01*
X151674380Y-74166666D01*
X151626761Y-74261904D01*
X151579142Y-74309523D01*
X151483904Y-74357142D01*
X151293428Y-74404761D01*
X151055333Y-74404761D01*
X150864857Y-74357142D01*
X150769619Y-74309523D01*
X150722000Y-74261904D01*
X150674380Y-74166666D01*
%TO.C,J2*%
X116556666Y-49674380D02*
X116556666Y-50388666D01*
X116509047Y-50531523D01*
X116413809Y-50626761D01*
X116270952Y-50674380D01*
X116175714Y-50674380D01*
X116985238Y-49769619D02*
X117032857Y-49722000D01*
X117128095Y-49674380D01*
X117366190Y-49674380D01*
X117461428Y-49722000D01*
X117509047Y-49769619D01*
X117556666Y-49864857D01*
X117556666Y-49960095D01*
X117509047Y-50102952D01*
X116937619Y-50674380D01*
X117556666Y-50674380D01*
%TO.C,SW0*%
X104666666Y-106904761D02*
X104809523Y-106952380D01*
X105047619Y-106952380D01*
X105142857Y-106904761D01*
X105190476Y-106857142D01*
X105238095Y-106761904D01*
X105238095Y-106666666D01*
X105190476Y-106571428D01*
X105142857Y-106523809D01*
X105047619Y-106476190D01*
X104857142Y-106428571D01*
X104761904Y-106380952D01*
X104714285Y-106333333D01*
X104666666Y-106238095D01*
X104666666Y-106142857D01*
X104714285Y-106047619D01*
X104761904Y-106000000D01*
X104857142Y-105952380D01*
X105095238Y-105952380D01*
X105238095Y-106000000D01*
X105571428Y-105952380D02*
X105809523Y-106952380D01*
X106000000Y-106238095D01*
X106190476Y-106952380D01*
X106428571Y-105952380D01*
X107000000Y-105952380D02*
X107095238Y-105952380D01*
X107190476Y-106000000D01*
X107238095Y-106047619D01*
X107285714Y-106142857D01*
X107333333Y-106333333D01*
X107333333Y-106571428D01*
X107285714Y-106761904D01*
X107238095Y-106857142D01*
X107190476Y-106904761D01*
X107095238Y-106952380D01*
X107000000Y-106952380D01*
X106904761Y-106904761D01*
X106857142Y-106857142D01*
X106809523Y-106761904D01*
X106761904Y-106571428D01*
X106761904Y-106333333D01*
X106809523Y-106142857D01*
X106857142Y-106047619D01*
X106904761Y-106000000D01*
X107000000Y-105952380D01*
%TO.C,SW1*%
X133416666Y-106904761D02*
X133559523Y-106952380D01*
X133797619Y-106952380D01*
X133892857Y-106904761D01*
X133940476Y-106857142D01*
X133988095Y-106761904D01*
X133988095Y-106666666D01*
X133940476Y-106571428D01*
X133892857Y-106523809D01*
X133797619Y-106476190D01*
X133607142Y-106428571D01*
X133511904Y-106380952D01*
X133464285Y-106333333D01*
X133416666Y-106238095D01*
X133416666Y-106142857D01*
X133464285Y-106047619D01*
X133511904Y-106000000D01*
X133607142Y-105952380D01*
X133845238Y-105952380D01*
X133988095Y-106000000D01*
X134321428Y-105952380D02*
X134559523Y-106952380D01*
X134750000Y-106238095D01*
X134940476Y-106952380D01*
X135178571Y-105952380D01*
X136083333Y-106952380D02*
X135511904Y-106952380D01*
X135797619Y-106952380D02*
X135797619Y-105952380D01*
X135702380Y-106095238D01*
X135607142Y-106190476D01*
X135511904Y-106238095D01*
%TO.C,SW2*%
X119041666Y-106904761D02*
X119184523Y-106952380D01*
X119422619Y-106952380D01*
X119517857Y-106904761D01*
X119565476Y-106857142D01*
X119613095Y-106761904D01*
X119613095Y-106666666D01*
X119565476Y-106571428D01*
X119517857Y-106523809D01*
X119422619Y-106476190D01*
X119232142Y-106428571D01*
X119136904Y-106380952D01*
X119089285Y-106333333D01*
X119041666Y-106238095D01*
X119041666Y-106142857D01*
X119089285Y-106047619D01*
X119136904Y-106000000D01*
X119232142Y-105952380D01*
X119470238Y-105952380D01*
X119613095Y-106000000D01*
X119946428Y-105952380D02*
X120184523Y-106952380D01*
X120375000Y-106238095D01*
X120565476Y-106952380D01*
X120803571Y-105952380D01*
X121136904Y-106047619D02*
X121184523Y-106000000D01*
X121279761Y-105952380D01*
X121517857Y-105952380D01*
X121613095Y-106000000D01*
X121660714Y-106047619D01*
X121708333Y-106142857D01*
X121708333Y-106238095D01*
X121660714Y-106380952D01*
X121089285Y-106952380D01*
X121708333Y-106952380D01*
%TD*%
M02*
