%TF.GenerationSoftware,KiCad,Pcbnew,(5.1.9)-1*%
%TF.CreationDate,2021-03-22T13:16:07-04:00*%
%TF.ProjectId,BitDisplay,42697444-6973-4706-9c61-792e6b696361,rev?*%
%TF.SameCoordinates,Original*%
%TF.FileFunction,Other,Fab,Top*%
%FSLAX46Y46*%
G04 Gerber Fmt 4.6, Leading zero omitted, Abs format (unit mm)*
G04 Created by KiCad (PCBNEW (5.1.9)-1) date 2021-03-22 13:16:07*
%MOMM*%
%LPD*%
G01*
G04 APERTURE LIST*
%TA.AperFunction,Profile*%
%ADD10C,0.100000*%
%TD*%
%ADD11C,0.120000*%
%ADD12C,0.100000*%
%ADD13C,0.150000*%
G04 APERTURE END LIST*
D10*
X100250000Y-110500000D02*
X100250000Y-81000000D01*
X154750000Y-110500000D02*
X100250000Y-110500000D01*
X154750000Y-81000000D02*
X154750000Y-110500000D01*
X100250000Y-81000000D02*
X154750000Y-81000000D01*
X154750000Y-79750000D02*
X154750000Y-50250000D01*
X100250000Y-79750000D02*
X100250000Y-50250000D01*
X100250000Y-79750000D02*
X154750000Y-79750000D01*
X100250000Y-50250000D02*
X154750000Y-50250000D01*
D11*
%TO.C,DS0*%
X101250000Y-81250000D02*
X139500000Y-81250000D01*
X101250000Y-93250000D02*
X101250000Y-81250000D01*
X139500000Y-93250000D02*
X101250000Y-93250000D01*
X139500000Y-81250000D02*
X139500000Y-93250000D01*
%TO.C,A0*%
X131750000Y-71500000D02*
X131750000Y-50500000D01*
X131750000Y-50500000D02*
X149750000Y-50500000D01*
X149750000Y-50500000D02*
X149750000Y-71500000D01*
X149750000Y-71500000D02*
X131750000Y-71500000D01*
D12*
%TO.C,SW0*%
X108015564Y-102250000D02*
G75*
G03*
X108015564Y-102250000I-2015564J0D01*
G01*
X109000000Y-105250000D02*
X106000000Y-105250000D01*
X109000000Y-99250000D02*
X109000000Y-105250000D01*
X103000000Y-99250000D02*
X109000000Y-99250000D01*
X103000000Y-105250000D02*
X103000000Y-99250000D01*
X106000000Y-105250000D02*
X103000000Y-105250000D01*
%TO.C,SW1*%
X134750000Y-105250000D02*
X131750000Y-105250000D01*
X131750000Y-105250000D02*
X131750000Y-99250000D01*
X131750000Y-99250000D02*
X137750000Y-99250000D01*
X137750000Y-99250000D02*
X137750000Y-105250000D01*
X137750000Y-105250000D02*
X134750000Y-105250000D01*
X136765564Y-102250000D02*
G75*
G03*
X136765564Y-102250000I-2015564J0D01*
G01*
%TO.C,SW2*%
X122390564Y-102250000D02*
G75*
G03*
X122390564Y-102250000I-2015564J0D01*
G01*
X123375000Y-105250000D02*
X120375000Y-105250000D01*
X123375000Y-99250000D02*
X123375000Y-105250000D01*
X117375000Y-99250000D02*
X123375000Y-99250000D01*
X117375000Y-105250000D02*
X117375000Y-99250000D01*
X120375000Y-105250000D02*
X117375000Y-105250000D01*
%TD*%
%TO.C,C3*%
D13*
X147932380Y-91452380D02*
X146932380Y-91452380D01*
X147027619Y-91023809D02*
X146980000Y-90976190D01*
X146932380Y-90880952D01*
X146932380Y-90642857D01*
X146980000Y-90547619D01*
X147027619Y-90500000D01*
X147122857Y-90452380D01*
X147218095Y-90452380D01*
X147360952Y-90500000D01*
X147932380Y-91071428D01*
X147932380Y-90452380D01*
X147837142Y-89452380D02*
X147884761Y-89500000D01*
X147932380Y-89642857D01*
X147932380Y-89738095D01*
X147884761Y-89880952D01*
X147789523Y-89976190D01*
X147694285Y-90023809D01*
X147503809Y-90071428D01*
X147360952Y-90071428D01*
X147170476Y-90023809D01*
X147075238Y-89976190D01*
X146980000Y-89880952D01*
X146932380Y-89738095D01*
X146932380Y-89642857D01*
X146980000Y-89500000D01*
X147027619Y-89452380D01*
X148027619Y-89261904D02*
X148027619Y-88500000D01*
X147932380Y-88261904D02*
X146932380Y-88261904D01*
X147408571Y-88261904D02*
X147408571Y-87690476D01*
X147932380Y-87690476D02*
X146932380Y-87690476D01*
X147884761Y-86833333D02*
X147932380Y-86928571D01*
X147932380Y-87119047D01*
X147884761Y-87214285D01*
X147789523Y-87261904D01*
X147408571Y-87261904D01*
X147313333Y-87214285D01*
X147265714Y-87119047D01*
X147265714Y-86928571D01*
X147313333Y-86833333D01*
X147408571Y-86785714D01*
X147503809Y-86785714D01*
X147599047Y-87261904D01*
X147932380Y-85928571D02*
X147408571Y-85928571D01*
X147313333Y-85976190D01*
X147265714Y-86071428D01*
X147265714Y-86261904D01*
X147313333Y-86357142D01*
X147884761Y-85928571D02*
X147932380Y-86023809D01*
X147932380Y-86261904D01*
X147884761Y-86357142D01*
X147789523Y-86404761D01*
X147694285Y-86404761D01*
X147599047Y-86357142D01*
X147551428Y-86261904D01*
X147551428Y-86023809D01*
X147503809Y-85928571D01*
X147932380Y-85023809D02*
X146932380Y-85023809D01*
X147884761Y-85023809D02*
X147932380Y-85119047D01*
X147932380Y-85309523D01*
X147884761Y-85404761D01*
X147837142Y-85452380D01*
X147741904Y-85500000D01*
X147456190Y-85500000D01*
X147360952Y-85452380D01*
X147313333Y-85404761D01*
X147265714Y-85309523D01*
X147265714Y-85119047D01*
X147313333Y-85023809D01*
X147884761Y-84166666D02*
X147932380Y-84261904D01*
X147932380Y-84452380D01*
X147884761Y-84547619D01*
X147789523Y-84595238D01*
X147408571Y-84595238D01*
X147313333Y-84547619D01*
X147265714Y-84452380D01*
X147265714Y-84261904D01*
X147313333Y-84166666D01*
X147408571Y-84119047D01*
X147503809Y-84119047D01*
X147599047Y-84595238D01*
X147932380Y-83690476D02*
X147265714Y-83690476D01*
X147456190Y-83690476D02*
X147360952Y-83642857D01*
X147313333Y-83595238D01*
X147265714Y-83500000D01*
X147265714Y-83404761D01*
%TO.C,REF\u002A\u002A*%
X118380952Y-56652380D02*
X118380952Y-55652380D01*
X118714285Y-56366666D01*
X119047619Y-55652380D01*
X119047619Y-56652380D01*
X119666666Y-56652380D02*
X119571428Y-56604761D01*
X119523809Y-56557142D01*
X119476190Y-56461904D01*
X119476190Y-56176190D01*
X119523809Y-56080952D01*
X119571428Y-56033333D01*
X119666666Y-55985714D01*
X119809523Y-55985714D01*
X119904761Y-56033333D01*
X119952380Y-56080952D01*
X119999999Y-56176190D01*
X119999999Y-56461904D01*
X119952380Y-56557142D01*
X119904761Y-56604761D01*
X119809523Y-56652380D01*
X119666666Y-56652380D01*
X120857142Y-55985714D02*
X120857142Y-56652380D01*
X120428571Y-55985714D02*
X120428571Y-56509523D01*
X120476190Y-56604761D01*
X120571428Y-56652380D01*
X120714285Y-56652380D01*
X120809523Y-56604761D01*
X120857142Y-56557142D01*
X121333333Y-55985714D02*
X121333333Y-56652380D01*
X121333333Y-56080952D02*
X121380952Y-56033333D01*
X121476190Y-55985714D01*
X121619047Y-55985714D01*
X121714285Y-56033333D01*
X121761904Y-56128571D01*
X121761904Y-56652380D01*
X122095238Y-55985714D02*
X122476190Y-55985714D01*
X122238095Y-55652380D02*
X122238095Y-56509523D01*
X122285714Y-56604761D01*
X122380952Y-56652380D01*
X122476190Y-56652380D01*
X122809523Y-56652380D02*
X122809523Y-55985714D01*
X122809523Y-55652380D02*
X122761904Y-55700000D01*
X122809523Y-55747619D01*
X122857142Y-55700000D01*
X122809523Y-55652380D01*
X122809523Y-55747619D01*
X123285714Y-55985714D02*
X123285714Y-56652380D01*
X123285714Y-56080952D02*
X123333333Y-56033333D01*
X123428571Y-55985714D01*
X123571428Y-55985714D01*
X123666666Y-56033333D01*
X123714285Y-56128571D01*
X123714285Y-56652380D01*
X124619047Y-55985714D02*
X124619047Y-56795238D01*
X124571428Y-56890476D01*
X124523809Y-56938095D01*
X124428571Y-56985714D01*
X124285714Y-56985714D01*
X124190476Y-56938095D01*
X124619047Y-56604761D02*
X124523809Y-56652380D01*
X124333333Y-56652380D01*
X124238095Y-56604761D01*
X124190476Y-56557142D01*
X124142857Y-56461904D01*
X124142857Y-56176190D01*
X124190476Y-56080952D01*
X124238095Y-56033333D01*
X124333333Y-55985714D01*
X124523809Y-55985714D01*
X124619047Y-56033333D01*
X125095238Y-56652380D02*
X125095238Y-55652380D01*
X125095238Y-56128571D02*
X125666666Y-56128571D01*
X125666666Y-56652380D02*
X125666666Y-55652380D01*
X126285714Y-56652380D02*
X126190476Y-56604761D01*
X126142857Y-56557142D01*
X126095238Y-56461904D01*
X126095238Y-56176190D01*
X126142857Y-56080952D01*
X126190476Y-56033333D01*
X126285714Y-55985714D01*
X126428571Y-55985714D01*
X126523809Y-56033333D01*
X126571428Y-56080952D01*
X126619047Y-56176190D01*
X126619047Y-56461904D01*
X126571428Y-56557142D01*
X126523809Y-56604761D01*
X126428571Y-56652380D01*
X126285714Y-56652380D01*
X127190476Y-56652380D02*
X127095238Y-56604761D01*
X127047619Y-56509523D01*
X127047619Y-55652380D01*
X127952380Y-56604761D02*
X127857142Y-56652380D01*
X127666666Y-56652380D01*
X127571428Y-56604761D01*
X127523809Y-56509523D01*
X127523809Y-56128571D01*
X127571428Y-56033333D01*
X127666666Y-55985714D01*
X127857142Y-55985714D01*
X127952380Y-56033333D01*
X127999999Y-56128571D01*
X127999999Y-56223809D01*
X127523809Y-56319047D01*
X128190476Y-56747619D02*
X128952380Y-56747619D01*
X129142857Y-55747619D02*
X129190476Y-55700000D01*
X129285714Y-55652380D01*
X129523809Y-55652380D01*
X129619047Y-55700000D01*
X129666666Y-55747619D01*
X129714285Y-55842857D01*
X129714285Y-55938095D01*
X129666666Y-56080952D01*
X129095238Y-56652380D01*
X129714285Y-56652380D01*
X130142857Y-56557142D02*
X130190476Y-56604761D01*
X130142857Y-56652380D01*
X130095238Y-56604761D01*
X130142857Y-56557142D01*
X130142857Y-56652380D01*
X130571428Y-55747619D02*
X130619047Y-55700000D01*
X130714285Y-55652380D01*
X130952380Y-55652380D01*
X131047619Y-55700000D01*
X131095238Y-55747619D01*
X131142857Y-55842857D01*
X131142857Y-55938095D01*
X131095238Y-56080952D01*
X130523809Y-56652380D01*
X131142857Y-56652380D01*
X131571428Y-56652380D02*
X131571428Y-55985714D01*
X131571428Y-56080952D02*
X131619047Y-56033333D01*
X131714285Y-55985714D01*
X131857142Y-55985714D01*
X131952380Y-56033333D01*
X131999999Y-56128571D01*
X131999999Y-56652380D01*
X131999999Y-56128571D02*
X132047619Y-56033333D01*
X132142857Y-55985714D01*
X132285714Y-55985714D01*
X132380952Y-56033333D01*
X132428571Y-56128571D01*
X132428571Y-56652380D01*
X132904761Y-56652380D02*
X132904761Y-55985714D01*
X132904761Y-56080952D02*
X132952380Y-56033333D01*
X133047619Y-55985714D01*
X133190476Y-55985714D01*
X133285714Y-56033333D01*
X133333333Y-56128571D01*
X133333333Y-56652380D01*
X133333333Y-56128571D02*
X133380952Y-56033333D01*
X133476190Y-55985714D01*
X133619047Y-55985714D01*
X133714285Y-56033333D01*
X133761904Y-56128571D01*
X133761904Y-56652380D01*
X133999999Y-56747619D02*
X134761904Y-56747619D01*
X135000000Y-56652380D02*
X135000000Y-55652380D01*
X135333333Y-56366666D01*
X135666666Y-55652380D01*
X135666666Y-56652380D01*
X136095238Y-55747619D02*
X136142857Y-55700000D01*
X136238095Y-55652380D01*
X136476190Y-55652380D01*
X136571428Y-55700000D01*
X136619047Y-55747619D01*
X136666666Y-55842857D01*
X136666666Y-55938095D01*
X136619047Y-56080952D01*
X136047619Y-56652380D01*
X136666666Y-56652380D01*
X126466666Y-53452380D02*
X126133333Y-52976190D01*
X125895238Y-53452380D02*
X125895238Y-52452380D01*
X126276190Y-52452380D01*
X126371428Y-52500000D01*
X126419047Y-52547619D01*
X126466666Y-52642857D01*
X126466666Y-52785714D01*
X126419047Y-52880952D01*
X126371428Y-52928571D01*
X126276190Y-52976190D01*
X125895238Y-52976190D01*
X126895238Y-52928571D02*
X127228571Y-52928571D01*
X127371428Y-53452380D02*
X126895238Y-53452380D01*
X126895238Y-52452380D01*
X127371428Y-52452380D01*
X128133333Y-52928571D02*
X127800000Y-52928571D01*
X127800000Y-53452380D02*
X127800000Y-52452380D01*
X128276190Y-52452380D01*
X128800000Y-52452380D02*
X128800000Y-52690476D01*
X128561904Y-52595238D02*
X128800000Y-52690476D01*
X129038095Y-52595238D01*
X128657142Y-52880952D02*
X128800000Y-52690476D01*
X128942857Y-52880952D01*
X129561904Y-52452380D02*
X129561904Y-52690476D01*
X129323809Y-52595238D02*
X129561904Y-52690476D01*
X129800000Y-52595238D01*
X129419047Y-52880952D02*
X129561904Y-52690476D01*
X129704761Y-52880952D01*
X93880952Y-99402380D02*
X93880952Y-98402380D01*
X94214285Y-99116666D01*
X94547619Y-98402380D01*
X94547619Y-99402380D01*
X95166666Y-99402380D02*
X95071428Y-99354761D01*
X95023809Y-99307142D01*
X94976190Y-99211904D01*
X94976190Y-98926190D01*
X95023809Y-98830952D01*
X95071428Y-98783333D01*
X95166666Y-98735714D01*
X95309523Y-98735714D01*
X95404761Y-98783333D01*
X95452380Y-98830952D01*
X95499999Y-98926190D01*
X95499999Y-99211904D01*
X95452380Y-99307142D01*
X95404761Y-99354761D01*
X95309523Y-99402380D01*
X95166666Y-99402380D01*
X96357142Y-98735714D02*
X96357142Y-99402380D01*
X95928571Y-98735714D02*
X95928571Y-99259523D01*
X95976190Y-99354761D01*
X96071428Y-99402380D01*
X96214285Y-99402380D01*
X96309523Y-99354761D01*
X96357142Y-99307142D01*
X96833333Y-98735714D02*
X96833333Y-99402380D01*
X96833333Y-98830952D02*
X96880952Y-98783333D01*
X96976190Y-98735714D01*
X97119047Y-98735714D01*
X97214285Y-98783333D01*
X97261904Y-98878571D01*
X97261904Y-99402380D01*
X97595238Y-98735714D02*
X97976190Y-98735714D01*
X97738095Y-98402380D02*
X97738095Y-99259523D01*
X97785714Y-99354761D01*
X97880952Y-99402380D01*
X97976190Y-99402380D01*
X98309523Y-99402380D02*
X98309523Y-98735714D01*
X98309523Y-98402380D02*
X98261904Y-98450000D01*
X98309523Y-98497619D01*
X98357142Y-98450000D01*
X98309523Y-98402380D01*
X98309523Y-98497619D01*
X98785714Y-98735714D02*
X98785714Y-99402380D01*
X98785714Y-98830952D02*
X98833333Y-98783333D01*
X98928571Y-98735714D01*
X99071428Y-98735714D01*
X99166666Y-98783333D01*
X99214285Y-98878571D01*
X99214285Y-99402380D01*
X100119047Y-98735714D02*
X100119047Y-99545238D01*
X100071428Y-99640476D01*
X100023809Y-99688095D01*
X99928571Y-99735714D01*
X99785714Y-99735714D01*
X99690476Y-99688095D01*
X100119047Y-99354761D02*
X100023809Y-99402380D01*
X99833333Y-99402380D01*
X99738095Y-99354761D01*
X99690476Y-99307142D01*
X99642857Y-99211904D01*
X99642857Y-98926190D01*
X99690476Y-98830952D01*
X99738095Y-98783333D01*
X99833333Y-98735714D01*
X100023809Y-98735714D01*
X100119047Y-98783333D01*
X100595238Y-99402380D02*
X100595238Y-98402380D01*
X100595238Y-98878571D02*
X101166666Y-98878571D01*
X101166666Y-99402380D02*
X101166666Y-98402380D01*
X101785714Y-99402380D02*
X101690476Y-99354761D01*
X101642857Y-99307142D01*
X101595238Y-99211904D01*
X101595238Y-98926190D01*
X101642857Y-98830952D01*
X101690476Y-98783333D01*
X101785714Y-98735714D01*
X101928571Y-98735714D01*
X102023809Y-98783333D01*
X102071428Y-98830952D01*
X102119047Y-98926190D01*
X102119047Y-99211904D01*
X102071428Y-99307142D01*
X102023809Y-99354761D01*
X101928571Y-99402380D01*
X101785714Y-99402380D01*
X102690476Y-99402380D02*
X102595238Y-99354761D01*
X102547619Y-99259523D01*
X102547619Y-98402380D01*
X103452380Y-99354761D02*
X103357142Y-99402380D01*
X103166666Y-99402380D01*
X103071428Y-99354761D01*
X103023809Y-99259523D01*
X103023809Y-98878571D01*
X103071428Y-98783333D01*
X103166666Y-98735714D01*
X103357142Y-98735714D01*
X103452380Y-98783333D01*
X103499999Y-98878571D01*
X103499999Y-98973809D01*
X103023809Y-99069047D01*
X103690476Y-99497619D02*
X104452380Y-99497619D01*
X104642857Y-98497619D02*
X104690476Y-98450000D01*
X104785714Y-98402380D01*
X105023809Y-98402380D01*
X105119047Y-98450000D01*
X105166666Y-98497619D01*
X105214285Y-98592857D01*
X105214285Y-98688095D01*
X105166666Y-98830952D01*
X104595238Y-99402380D01*
X105214285Y-99402380D01*
X105642857Y-99307142D02*
X105690476Y-99354761D01*
X105642857Y-99402380D01*
X105595238Y-99354761D01*
X105642857Y-99307142D01*
X105642857Y-99402380D01*
X106071428Y-98497619D02*
X106119047Y-98450000D01*
X106214285Y-98402380D01*
X106452380Y-98402380D01*
X106547619Y-98450000D01*
X106595238Y-98497619D01*
X106642857Y-98592857D01*
X106642857Y-98688095D01*
X106595238Y-98830952D01*
X106023809Y-99402380D01*
X106642857Y-99402380D01*
X107071428Y-99402380D02*
X107071428Y-98735714D01*
X107071428Y-98830952D02*
X107119047Y-98783333D01*
X107214285Y-98735714D01*
X107357142Y-98735714D01*
X107452380Y-98783333D01*
X107499999Y-98878571D01*
X107499999Y-99402380D01*
X107499999Y-98878571D02*
X107547619Y-98783333D01*
X107642857Y-98735714D01*
X107785714Y-98735714D01*
X107880952Y-98783333D01*
X107928571Y-98878571D01*
X107928571Y-99402380D01*
X108404761Y-99402380D02*
X108404761Y-98735714D01*
X108404761Y-98830952D02*
X108452380Y-98783333D01*
X108547619Y-98735714D01*
X108690476Y-98735714D01*
X108785714Y-98783333D01*
X108833333Y-98878571D01*
X108833333Y-99402380D01*
X108833333Y-98878571D02*
X108880952Y-98783333D01*
X108976190Y-98735714D01*
X109119047Y-98735714D01*
X109214285Y-98783333D01*
X109261904Y-98878571D01*
X109261904Y-99402380D01*
X109499999Y-99497619D02*
X110261904Y-99497619D01*
X110499999Y-99402380D02*
X110499999Y-98402380D01*
X110833333Y-99116666D01*
X111166666Y-98402380D01*
X111166666Y-99402380D01*
X111595238Y-98497619D02*
X111642857Y-98450000D01*
X111738095Y-98402380D01*
X111976190Y-98402380D01*
X112071428Y-98450000D01*
X112119047Y-98497619D01*
X112166666Y-98592857D01*
X112166666Y-98688095D01*
X112119047Y-98830952D01*
X111547619Y-99402380D01*
X112166666Y-99402380D01*
X101966666Y-96202380D02*
X101633333Y-95726190D01*
X101395238Y-96202380D02*
X101395238Y-95202380D01*
X101776190Y-95202380D01*
X101871428Y-95250000D01*
X101919047Y-95297619D01*
X101966666Y-95392857D01*
X101966666Y-95535714D01*
X101919047Y-95630952D01*
X101871428Y-95678571D01*
X101776190Y-95726190D01*
X101395238Y-95726190D01*
X102395238Y-95678571D02*
X102728571Y-95678571D01*
X102871428Y-96202380D02*
X102395238Y-96202380D01*
X102395238Y-95202380D01*
X102871428Y-95202380D01*
X103633333Y-95678571D02*
X103300000Y-95678571D01*
X103300000Y-96202380D02*
X103300000Y-95202380D01*
X103776190Y-95202380D01*
X104300000Y-95202380D02*
X104300000Y-95440476D01*
X104061904Y-95345238D02*
X104300000Y-95440476D01*
X104538095Y-95345238D01*
X104157142Y-95630952D02*
X104300000Y-95440476D01*
X104442857Y-95630952D01*
X105061904Y-95202380D02*
X105061904Y-95440476D01*
X104823809Y-95345238D02*
X105061904Y-95440476D01*
X105300000Y-95345238D01*
X104919047Y-95630952D02*
X105061904Y-95440476D01*
X105204761Y-95630952D01*
X118380952Y-111402380D02*
X118380952Y-110402380D01*
X118714285Y-111116666D01*
X119047619Y-110402380D01*
X119047619Y-111402380D01*
X119666666Y-111402380D02*
X119571428Y-111354761D01*
X119523809Y-111307142D01*
X119476190Y-111211904D01*
X119476190Y-110926190D01*
X119523809Y-110830952D01*
X119571428Y-110783333D01*
X119666666Y-110735714D01*
X119809523Y-110735714D01*
X119904761Y-110783333D01*
X119952380Y-110830952D01*
X119999999Y-110926190D01*
X119999999Y-111211904D01*
X119952380Y-111307142D01*
X119904761Y-111354761D01*
X119809523Y-111402380D01*
X119666666Y-111402380D01*
X120857142Y-110735714D02*
X120857142Y-111402380D01*
X120428571Y-110735714D02*
X120428571Y-111259523D01*
X120476190Y-111354761D01*
X120571428Y-111402380D01*
X120714285Y-111402380D01*
X120809523Y-111354761D01*
X120857142Y-111307142D01*
X121333333Y-110735714D02*
X121333333Y-111402380D01*
X121333333Y-110830952D02*
X121380952Y-110783333D01*
X121476190Y-110735714D01*
X121619047Y-110735714D01*
X121714285Y-110783333D01*
X121761904Y-110878571D01*
X121761904Y-111402380D01*
X122095238Y-110735714D02*
X122476190Y-110735714D01*
X122238095Y-110402380D02*
X122238095Y-111259523D01*
X122285714Y-111354761D01*
X122380952Y-111402380D01*
X122476190Y-111402380D01*
X122809523Y-111402380D02*
X122809523Y-110735714D01*
X122809523Y-110402380D02*
X122761904Y-110450000D01*
X122809523Y-110497619D01*
X122857142Y-110450000D01*
X122809523Y-110402380D01*
X122809523Y-110497619D01*
X123285714Y-110735714D02*
X123285714Y-111402380D01*
X123285714Y-110830952D02*
X123333333Y-110783333D01*
X123428571Y-110735714D01*
X123571428Y-110735714D01*
X123666666Y-110783333D01*
X123714285Y-110878571D01*
X123714285Y-111402380D01*
X124619047Y-110735714D02*
X124619047Y-111545238D01*
X124571428Y-111640476D01*
X124523809Y-111688095D01*
X124428571Y-111735714D01*
X124285714Y-111735714D01*
X124190476Y-111688095D01*
X124619047Y-111354761D02*
X124523809Y-111402380D01*
X124333333Y-111402380D01*
X124238095Y-111354761D01*
X124190476Y-111307142D01*
X124142857Y-111211904D01*
X124142857Y-110926190D01*
X124190476Y-110830952D01*
X124238095Y-110783333D01*
X124333333Y-110735714D01*
X124523809Y-110735714D01*
X124619047Y-110783333D01*
X125095238Y-111402380D02*
X125095238Y-110402380D01*
X125095238Y-110878571D02*
X125666666Y-110878571D01*
X125666666Y-111402380D02*
X125666666Y-110402380D01*
X126285714Y-111402380D02*
X126190476Y-111354761D01*
X126142857Y-111307142D01*
X126095238Y-111211904D01*
X126095238Y-110926190D01*
X126142857Y-110830952D01*
X126190476Y-110783333D01*
X126285714Y-110735714D01*
X126428571Y-110735714D01*
X126523809Y-110783333D01*
X126571428Y-110830952D01*
X126619047Y-110926190D01*
X126619047Y-111211904D01*
X126571428Y-111307142D01*
X126523809Y-111354761D01*
X126428571Y-111402380D01*
X126285714Y-111402380D01*
X127190476Y-111402380D02*
X127095238Y-111354761D01*
X127047619Y-111259523D01*
X127047619Y-110402380D01*
X127952380Y-111354761D02*
X127857142Y-111402380D01*
X127666666Y-111402380D01*
X127571428Y-111354761D01*
X127523809Y-111259523D01*
X127523809Y-110878571D01*
X127571428Y-110783333D01*
X127666666Y-110735714D01*
X127857142Y-110735714D01*
X127952380Y-110783333D01*
X127999999Y-110878571D01*
X127999999Y-110973809D01*
X127523809Y-111069047D01*
X128190476Y-111497619D02*
X128952380Y-111497619D01*
X129142857Y-110497619D02*
X129190476Y-110450000D01*
X129285714Y-110402380D01*
X129523809Y-110402380D01*
X129619047Y-110450000D01*
X129666666Y-110497619D01*
X129714285Y-110592857D01*
X129714285Y-110688095D01*
X129666666Y-110830952D01*
X129095238Y-111402380D01*
X129714285Y-111402380D01*
X130142857Y-111307142D02*
X130190476Y-111354761D01*
X130142857Y-111402380D01*
X130095238Y-111354761D01*
X130142857Y-111307142D01*
X130142857Y-111402380D01*
X130571428Y-110497619D02*
X130619047Y-110450000D01*
X130714285Y-110402380D01*
X130952380Y-110402380D01*
X131047619Y-110450000D01*
X131095238Y-110497619D01*
X131142857Y-110592857D01*
X131142857Y-110688095D01*
X131095238Y-110830952D01*
X130523809Y-111402380D01*
X131142857Y-111402380D01*
X131571428Y-111402380D02*
X131571428Y-110735714D01*
X131571428Y-110830952D02*
X131619047Y-110783333D01*
X131714285Y-110735714D01*
X131857142Y-110735714D01*
X131952380Y-110783333D01*
X131999999Y-110878571D01*
X131999999Y-111402380D01*
X131999999Y-110878571D02*
X132047619Y-110783333D01*
X132142857Y-110735714D01*
X132285714Y-110735714D01*
X132380952Y-110783333D01*
X132428571Y-110878571D01*
X132428571Y-111402380D01*
X132904761Y-111402380D02*
X132904761Y-110735714D01*
X132904761Y-110830952D02*
X132952380Y-110783333D01*
X133047619Y-110735714D01*
X133190476Y-110735714D01*
X133285714Y-110783333D01*
X133333333Y-110878571D01*
X133333333Y-111402380D01*
X133333333Y-110878571D02*
X133380952Y-110783333D01*
X133476190Y-110735714D01*
X133619047Y-110735714D01*
X133714285Y-110783333D01*
X133761904Y-110878571D01*
X133761904Y-111402380D01*
X133999999Y-111497619D02*
X134761904Y-111497619D01*
X135000000Y-111402380D02*
X135000000Y-110402380D01*
X135333333Y-111116666D01*
X135666666Y-110402380D01*
X135666666Y-111402380D01*
X136095238Y-110497619D02*
X136142857Y-110450000D01*
X136238095Y-110402380D01*
X136476190Y-110402380D01*
X136571428Y-110450000D01*
X136619047Y-110497619D01*
X136666666Y-110592857D01*
X136666666Y-110688095D01*
X136619047Y-110830952D01*
X136047619Y-111402380D01*
X136666666Y-111402380D01*
X126466666Y-108202380D02*
X126133333Y-107726190D01*
X125895238Y-108202380D02*
X125895238Y-107202380D01*
X126276190Y-107202380D01*
X126371428Y-107250000D01*
X126419047Y-107297619D01*
X126466666Y-107392857D01*
X126466666Y-107535714D01*
X126419047Y-107630952D01*
X126371428Y-107678571D01*
X126276190Y-107726190D01*
X125895238Y-107726190D01*
X126895238Y-107678571D02*
X127228571Y-107678571D01*
X127371428Y-108202380D02*
X126895238Y-108202380D01*
X126895238Y-107202380D01*
X127371428Y-107202380D01*
X128133333Y-107678571D02*
X127800000Y-107678571D01*
X127800000Y-108202380D02*
X127800000Y-107202380D01*
X128276190Y-107202380D01*
X128800000Y-107202380D02*
X128800000Y-107440476D01*
X128561904Y-107345238D02*
X128800000Y-107440476D01*
X129038095Y-107345238D01*
X128657142Y-107630952D02*
X128800000Y-107440476D01*
X128942857Y-107630952D01*
X129561904Y-107202380D02*
X129561904Y-107440476D01*
X129323809Y-107345238D02*
X129561904Y-107440476D01*
X129800000Y-107345238D01*
X129419047Y-107630952D02*
X129561904Y-107440476D01*
X129704761Y-107630952D01*
X142880952Y-99402380D02*
X142880952Y-98402380D01*
X143214285Y-99116666D01*
X143547619Y-98402380D01*
X143547619Y-99402380D01*
X144166666Y-99402380D02*
X144071428Y-99354761D01*
X144023809Y-99307142D01*
X143976190Y-99211904D01*
X143976190Y-98926190D01*
X144023809Y-98830952D01*
X144071428Y-98783333D01*
X144166666Y-98735714D01*
X144309523Y-98735714D01*
X144404761Y-98783333D01*
X144452380Y-98830952D01*
X144500000Y-98926190D01*
X144500000Y-99211904D01*
X144452380Y-99307142D01*
X144404761Y-99354761D01*
X144309523Y-99402380D01*
X144166666Y-99402380D01*
X145357142Y-98735714D02*
X145357142Y-99402380D01*
X144928571Y-98735714D02*
X144928571Y-99259523D01*
X144976190Y-99354761D01*
X145071428Y-99402380D01*
X145214285Y-99402380D01*
X145309523Y-99354761D01*
X145357142Y-99307142D01*
X145833333Y-98735714D02*
X145833333Y-99402380D01*
X145833333Y-98830952D02*
X145880952Y-98783333D01*
X145976190Y-98735714D01*
X146119047Y-98735714D01*
X146214285Y-98783333D01*
X146261904Y-98878571D01*
X146261904Y-99402380D01*
X146595238Y-98735714D02*
X146976190Y-98735714D01*
X146738095Y-98402380D02*
X146738095Y-99259523D01*
X146785714Y-99354761D01*
X146880952Y-99402380D01*
X146976190Y-99402380D01*
X147309523Y-99402380D02*
X147309523Y-98735714D01*
X147309523Y-98402380D02*
X147261904Y-98450000D01*
X147309523Y-98497619D01*
X147357142Y-98450000D01*
X147309523Y-98402380D01*
X147309523Y-98497619D01*
X147785714Y-98735714D02*
X147785714Y-99402380D01*
X147785714Y-98830952D02*
X147833333Y-98783333D01*
X147928571Y-98735714D01*
X148071428Y-98735714D01*
X148166666Y-98783333D01*
X148214285Y-98878571D01*
X148214285Y-99402380D01*
X149119047Y-98735714D02*
X149119047Y-99545238D01*
X149071428Y-99640476D01*
X149023809Y-99688095D01*
X148928571Y-99735714D01*
X148785714Y-99735714D01*
X148690476Y-99688095D01*
X149119047Y-99354761D02*
X149023809Y-99402380D01*
X148833333Y-99402380D01*
X148738095Y-99354761D01*
X148690476Y-99307142D01*
X148642857Y-99211904D01*
X148642857Y-98926190D01*
X148690476Y-98830952D01*
X148738095Y-98783333D01*
X148833333Y-98735714D01*
X149023809Y-98735714D01*
X149119047Y-98783333D01*
X149595238Y-99402380D02*
X149595238Y-98402380D01*
X149595238Y-98878571D02*
X150166666Y-98878571D01*
X150166666Y-99402380D02*
X150166666Y-98402380D01*
X150785714Y-99402380D02*
X150690476Y-99354761D01*
X150642857Y-99307142D01*
X150595238Y-99211904D01*
X150595238Y-98926190D01*
X150642857Y-98830952D01*
X150690476Y-98783333D01*
X150785714Y-98735714D01*
X150928571Y-98735714D01*
X151023809Y-98783333D01*
X151071428Y-98830952D01*
X151119047Y-98926190D01*
X151119047Y-99211904D01*
X151071428Y-99307142D01*
X151023809Y-99354761D01*
X150928571Y-99402380D01*
X150785714Y-99402380D01*
X151690476Y-99402380D02*
X151595238Y-99354761D01*
X151547619Y-99259523D01*
X151547619Y-98402380D01*
X152452380Y-99354761D02*
X152357142Y-99402380D01*
X152166666Y-99402380D01*
X152071428Y-99354761D01*
X152023809Y-99259523D01*
X152023809Y-98878571D01*
X152071428Y-98783333D01*
X152166666Y-98735714D01*
X152357142Y-98735714D01*
X152452380Y-98783333D01*
X152500000Y-98878571D01*
X152500000Y-98973809D01*
X152023809Y-99069047D01*
X152690476Y-99497619D02*
X153452380Y-99497619D01*
X153642857Y-98497619D02*
X153690476Y-98450000D01*
X153785714Y-98402380D01*
X154023809Y-98402380D01*
X154119047Y-98450000D01*
X154166666Y-98497619D01*
X154214285Y-98592857D01*
X154214285Y-98688095D01*
X154166666Y-98830952D01*
X153595238Y-99402380D01*
X154214285Y-99402380D01*
X154642857Y-99307142D02*
X154690476Y-99354761D01*
X154642857Y-99402380D01*
X154595238Y-99354761D01*
X154642857Y-99307142D01*
X154642857Y-99402380D01*
X155071428Y-98497619D02*
X155119047Y-98450000D01*
X155214285Y-98402380D01*
X155452380Y-98402380D01*
X155547619Y-98450000D01*
X155595238Y-98497619D01*
X155642857Y-98592857D01*
X155642857Y-98688095D01*
X155595238Y-98830952D01*
X155023809Y-99402380D01*
X155642857Y-99402380D01*
X156071428Y-99402380D02*
X156071428Y-98735714D01*
X156071428Y-98830952D02*
X156119047Y-98783333D01*
X156214285Y-98735714D01*
X156357142Y-98735714D01*
X156452380Y-98783333D01*
X156500000Y-98878571D01*
X156500000Y-99402380D01*
X156500000Y-98878571D02*
X156547619Y-98783333D01*
X156642857Y-98735714D01*
X156785714Y-98735714D01*
X156880952Y-98783333D01*
X156928571Y-98878571D01*
X156928571Y-99402380D01*
X157404761Y-99402380D02*
X157404761Y-98735714D01*
X157404761Y-98830952D02*
X157452380Y-98783333D01*
X157547619Y-98735714D01*
X157690476Y-98735714D01*
X157785714Y-98783333D01*
X157833333Y-98878571D01*
X157833333Y-99402380D01*
X157833333Y-98878571D02*
X157880952Y-98783333D01*
X157976190Y-98735714D01*
X158119047Y-98735714D01*
X158214285Y-98783333D01*
X158261904Y-98878571D01*
X158261904Y-99402380D01*
X158500000Y-99497619D02*
X159261904Y-99497619D01*
X159500000Y-99402380D02*
X159500000Y-98402380D01*
X159833333Y-99116666D01*
X160166666Y-98402380D01*
X160166666Y-99402380D01*
X160595238Y-98497619D02*
X160642857Y-98450000D01*
X160738095Y-98402380D01*
X160976190Y-98402380D01*
X161071428Y-98450000D01*
X161119047Y-98497619D01*
X161166666Y-98592857D01*
X161166666Y-98688095D01*
X161119047Y-98830952D01*
X160547619Y-99402380D01*
X161166666Y-99402380D01*
X150966666Y-96202380D02*
X150633333Y-95726190D01*
X150395238Y-96202380D02*
X150395238Y-95202380D01*
X150776190Y-95202380D01*
X150871428Y-95250000D01*
X150919047Y-95297619D01*
X150966666Y-95392857D01*
X150966666Y-95535714D01*
X150919047Y-95630952D01*
X150871428Y-95678571D01*
X150776190Y-95726190D01*
X150395238Y-95726190D01*
X151395238Y-95678571D02*
X151728571Y-95678571D01*
X151871428Y-96202380D02*
X151395238Y-96202380D01*
X151395238Y-95202380D01*
X151871428Y-95202380D01*
X152633333Y-95678571D02*
X152300000Y-95678571D01*
X152300000Y-96202380D02*
X152300000Y-95202380D01*
X152776190Y-95202380D01*
X153300000Y-95202380D02*
X153300000Y-95440476D01*
X153061904Y-95345238D02*
X153300000Y-95440476D01*
X153538095Y-95345238D01*
X153157142Y-95630952D02*
X153300000Y-95440476D01*
X153442857Y-95630952D01*
X154061904Y-95202380D02*
X154061904Y-95440476D01*
X153823809Y-95345238D02*
X154061904Y-95440476D01*
X154300000Y-95345238D01*
X153919047Y-95630952D02*
X154061904Y-95440476D01*
X154204761Y-95630952D01*
X118380952Y-80652380D02*
X118380952Y-79652380D01*
X118714285Y-80366666D01*
X119047619Y-79652380D01*
X119047619Y-80652380D01*
X119666666Y-80652380D02*
X119571428Y-80604761D01*
X119523809Y-80557142D01*
X119476190Y-80461904D01*
X119476190Y-80176190D01*
X119523809Y-80080952D01*
X119571428Y-80033333D01*
X119666666Y-79985714D01*
X119809523Y-79985714D01*
X119904761Y-80033333D01*
X119952380Y-80080952D01*
X119999999Y-80176190D01*
X119999999Y-80461904D01*
X119952380Y-80557142D01*
X119904761Y-80604761D01*
X119809523Y-80652380D01*
X119666666Y-80652380D01*
X120857142Y-79985714D02*
X120857142Y-80652380D01*
X120428571Y-79985714D02*
X120428571Y-80509523D01*
X120476190Y-80604761D01*
X120571428Y-80652380D01*
X120714285Y-80652380D01*
X120809523Y-80604761D01*
X120857142Y-80557142D01*
X121333333Y-79985714D02*
X121333333Y-80652380D01*
X121333333Y-80080952D02*
X121380952Y-80033333D01*
X121476190Y-79985714D01*
X121619047Y-79985714D01*
X121714285Y-80033333D01*
X121761904Y-80128571D01*
X121761904Y-80652380D01*
X122095238Y-79985714D02*
X122476190Y-79985714D01*
X122238095Y-79652380D02*
X122238095Y-80509523D01*
X122285714Y-80604761D01*
X122380952Y-80652380D01*
X122476190Y-80652380D01*
X122809523Y-80652380D02*
X122809523Y-79985714D01*
X122809523Y-79652380D02*
X122761904Y-79700000D01*
X122809523Y-79747619D01*
X122857142Y-79700000D01*
X122809523Y-79652380D01*
X122809523Y-79747619D01*
X123285714Y-79985714D02*
X123285714Y-80652380D01*
X123285714Y-80080952D02*
X123333333Y-80033333D01*
X123428571Y-79985714D01*
X123571428Y-79985714D01*
X123666666Y-80033333D01*
X123714285Y-80128571D01*
X123714285Y-80652380D01*
X124619047Y-79985714D02*
X124619047Y-80795238D01*
X124571428Y-80890476D01*
X124523809Y-80938095D01*
X124428571Y-80985714D01*
X124285714Y-80985714D01*
X124190476Y-80938095D01*
X124619047Y-80604761D02*
X124523809Y-80652380D01*
X124333333Y-80652380D01*
X124238095Y-80604761D01*
X124190476Y-80557142D01*
X124142857Y-80461904D01*
X124142857Y-80176190D01*
X124190476Y-80080952D01*
X124238095Y-80033333D01*
X124333333Y-79985714D01*
X124523809Y-79985714D01*
X124619047Y-80033333D01*
X125095238Y-80652380D02*
X125095238Y-79652380D01*
X125095238Y-80128571D02*
X125666666Y-80128571D01*
X125666666Y-80652380D02*
X125666666Y-79652380D01*
X126285714Y-80652380D02*
X126190476Y-80604761D01*
X126142857Y-80557142D01*
X126095238Y-80461904D01*
X126095238Y-80176190D01*
X126142857Y-80080952D01*
X126190476Y-80033333D01*
X126285714Y-79985714D01*
X126428571Y-79985714D01*
X126523809Y-80033333D01*
X126571428Y-80080952D01*
X126619047Y-80176190D01*
X126619047Y-80461904D01*
X126571428Y-80557142D01*
X126523809Y-80604761D01*
X126428571Y-80652380D01*
X126285714Y-80652380D01*
X127190476Y-80652380D02*
X127095238Y-80604761D01*
X127047619Y-80509523D01*
X127047619Y-79652380D01*
X127952380Y-80604761D02*
X127857142Y-80652380D01*
X127666666Y-80652380D01*
X127571428Y-80604761D01*
X127523809Y-80509523D01*
X127523809Y-80128571D01*
X127571428Y-80033333D01*
X127666666Y-79985714D01*
X127857142Y-79985714D01*
X127952380Y-80033333D01*
X127999999Y-80128571D01*
X127999999Y-80223809D01*
X127523809Y-80319047D01*
X128190476Y-80747619D02*
X128952380Y-80747619D01*
X129142857Y-79747619D02*
X129190476Y-79700000D01*
X129285714Y-79652380D01*
X129523809Y-79652380D01*
X129619047Y-79700000D01*
X129666666Y-79747619D01*
X129714285Y-79842857D01*
X129714285Y-79938095D01*
X129666666Y-80080952D01*
X129095238Y-80652380D01*
X129714285Y-80652380D01*
X130142857Y-80557142D02*
X130190476Y-80604761D01*
X130142857Y-80652380D01*
X130095238Y-80604761D01*
X130142857Y-80557142D01*
X130142857Y-80652380D01*
X130571428Y-79747619D02*
X130619047Y-79700000D01*
X130714285Y-79652380D01*
X130952380Y-79652380D01*
X131047619Y-79700000D01*
X131095238Y-79747619D01*
X131142857Y-79842857D01*
X131142857Y-79938095D01*
X131095238Y-80080952D01*
X130523809Y-80652380D01*
X131142857Y-80652380D01*
X131571428Y-80652380D02*
X131571428Y-79985714D01*
X131571428Y-80080952D02*
X131619047Y-80033333D01*
X131714285Y-79985714D01*
X131857142Y-79985714D01*
X131952380Y-80033333D01*
X131999999Y-80128571D01*
X131999999Y-80652380D01*
X131999999Y-80128571D02*
X132047619Y-80033333D01*
X132142857Y-79985714D01*
X132285714Y-79985714D01*
X132380952Y-80033333D01*
X132428571Y-80128571D01*
X132428571Y-80652380D01*
X132904761Y-80652380D02*
X132904761Y-79985714D01*
X132904761Y-80080952D02*
X132952380Y-80033333D01*
X133047619Y-79985714D01*
X133190476Y-79985714D01*
X133285714Y-80033333D01*
X133333333Y-80128571D01*
X133333333Y-80652380D01*
X133333333Y-80128571D02*
X133380952Y-80033333D01*
X133476190Y-79985714D01*
X133619047Y-79985714D01*
X133714285Y-80033333D01*
X133761904Y-80128571D01*
X133761904Y-80652380D01*
X133999999Y-80747619D02*
X134761904Y-80747619D01*
X135000000Y-80652380D02*
X135000000Y-79652380D01*
X135333333Y-80366666D01*
X135666666Y-79652380D01*
X135666666Y-80652380D01*
X136095238Y-79747619D02*
X136142857Y-79700000D01*
X136238095Y-79652380D01*
X136476190Y-79652380D01*
X136571428Y-79700000D01*
X136619047Y-79747619D01*
X136666666Y-79842857D01*
X136666666Y-79938095D01*
X136619047Y-80080952D01*
X136047619Y-80652380D01*
X136666666Y-80652380D01*
X126466666Y-77452380D02*
X126133333Y-76976190D01*
X125895238Y-77452380D02*
X125895238Y-76452380D01*
X126276190Y-76452380D01*
X126371428Y-76500000D01*
X126419047Y-76547619D01*
X126466666Y-76642857D01*
X126466666Y-76785714D01*
X126419047Y-76880952D01*
X126371428Y-76928571D01*
X126276190Y-76976190D01*
X125895238Y-76976190D01*
X126895238Y-76928571D02*
X127228571Y-76928571D01*
X127371428Y-77452380D02*
X126895238Y-77452380D01*
X126895238Y-76452380D01*
X127371428Y-76452380D01*
X128133333Y-76928571D02*
X127800000Y-76928571D01*
X127800000Y-77452380D02*
X127800000Y-76452380D01*
X128276190Y-76452380D01*
X128800000Y-76452380D02*
X128800000Y-76690476D01*
X128561904Y-76595238D02*
X128800000Y-76690476D01*
X129038095Y-76595238D01*
X128657142Y-76880952D02*
X128800000Y-76690476D01*
X128942857Y-76880952D01*
X129561904Y-76452380D02*
X129561904Y-76690476D01*
X129323809Y-76595238D02*
X129561904Y-76690476D01*
X129800000Y-76595238D01*
X129419047Y-76880952D02*
X129561904Y-76690476D01*
X129704761Y-76880952D01*
X93880952Y-68652380D02*
X93880952Y-67652380D01*
X94214285Y-68366666D01*
X94547619Y-67652380D01*
X94547619Y-68652380D01*
X95166666Y-68652380D02*
X95071428Y-68604761D01*
X95023809Y-68557142D01*
X94976190Y-68461904D01*
X94976190Y-68176190D01*
X95023809Y-68080952D01*
X95071428Y-68033333D01*
X95166666Y-67985714D01*
X95309523Y-67985714D01*
X95404761Y-68033333D01*
X95452380Y-68080952D01*
X95499999Y-68176190D01*
X95499999Y-68461904D01*
X95452380Y-68557142D01*
X95404761Y-68604761D01*
X95309523Y-68652380D01*
X95166666Y-68652380D01*
X96357142Y-67985714D02*
X96357142Y-68652380D01*
X95928571Y-67985714D02*
X95928571Y-68509523D01*
X95976190Y-68604761D01*
X96071428Y-68652380D01*
X96214285Y-68652380D01*
X96309523Y-68604761D01*
X96357142Y-68557142D01*
X96833333Y-67985714D02*
X96833333Y-68652380D01*
X96833333Y-68080952D02*
X96880952Y-68033333D01*
X96976190Y-67985714D01*
X97119047Y-67985714D01*
X97214285Y-68033333D01*
X97261904Y-68128571D01*
X97261904Y-68652380D01*
X97595238Y-67985714D02*
X97976190Y-67985714D01*
X97738095Y-67652380D02*
X97738095Y-68509523D01*
X97785714Y-68604761D01*
X97880952Y-68652380D01*
X97976190Y-68652380D01*
X98309523Y-68652380D02*
X98309523Y-67985714D01*
X98309523Y-67652380D02*
X98261904Y-67700000D01*
X98309523Y-67747619D01*
X98357142Y-67700000D01*
X98309523Y-67652380D01*
X98309523Y-67747619D01*
X98785714Y-67985714D02*
X98785714Y-68652380D01*
X98785714Y-68080952D02*
X98833333Y-68033333D01*
X98928571Y-67985714D01*
X99071428Y-67985714D01*
X99166666Y-68033333D01*
X99214285Y-68128571D01*
X99214285Y-68652380D01*
X100119047Y-67985714D02*
X100119047Y-68795238D01*
X100071428Y-68890476D01*
X100023809Y-68938095D01*
X99928571Y-68985714D01*
X99785714Y-68985714D01*
X99690476Y-68938095D01*
X100119047Y-68604761D02*
X100023809Y-68652380D01*
X99833333Y-68652380D01*
X99738095Y-68604761D01*
X99690476Y-68557142D01*
X99642857Y-68461904D01*
X99642857Y-68176190D01*
X99690476Y-68080952D01*
X99738095Y-68033333D01*
X99833333Y-67985714D01*
X100023809Y-67985714D01*
X100119047Y-68033333D01*
X100595238Y-68652380D02*
X100595238Y-67652380D01*
X100595238Y-68128571D02*
X101166666Y-68128571D01*
X101166666Y-68652380D02*
X101166666Y-67652380D01*
X101785714Y-68652380D02*
X101690476Y-68604761D01*
X101642857Y-68557142D01*
X101595238Y-68461904D01*
X101595238Y-68176190D01*
X101642857Y-68080952D01*
X101690476Y-68033333D01*
X101785714Y-67985714D01*
X101928571Y-67985714D01*
X102023809Y-68033333D01*
X102071428Y-68080952D01*
X102119047Y-68176190D01*
X102119047Y-68461904D01*
X102071428Y-68557142D01*
X102023809Y-68604761D01*
X101928571Y-68652380D01*
X101785714Y-68652380D01*
X102690476Y-68652380D02*
X102595238Y-68604761D01*
X102547619Y-68509523D01*
X102547619Y-67652380D01*
X103452380Y-68604761D02*
X103357142Y-68652380D01*
X103166666Y-68652380D01*
X103071428Y-68604761D01*
X103023809Y-68509523D01*
X103023809Y-68128571D01*
X103071428Y-68033333D01*
X103166666Y-67985714D01*
X103357142Y-67985714D01*
X103452380Y-68033333D01*
X103499999Y-68128571D01*
X103499999Y-68223809D01*
X103023809Y-68319047D01*
X103690476Y-68747619D02*
X104452380Y-68747619D01*
X104642857Y-67747619D02*
X104690476Y-67700000D01*
X104785714Y-67652380D01*
X105023809Y-67652380D01*
X105119047Y-67700000D01*
X105166666Y-67747619D01*
X105214285Y-67842857D01*
X105214285Y-67938095D01*
X105166666Y-68080952D01*
X104595238Y-68652380D01*
X105214285Y-68652380D01*
X105642857Y-68557142D02*
X105690476Y-68604761D01*
X105642857Y-68652380D01*
X105595238Y-68604761D01*
X105642857Y-68557142D01*
X105642857Y-68652380D01*
X106071428Y-67747619D02*
X106119047Y-67700000D01*
X106214285Y-67652380D01*
X106452380Y-67652380D01*
X106547619Y-67700000D01*
X106595238Y-67747619D01*
X106642857Y-67842857D01*
X106642857Y-67938095D01*
X106595238Y-68080952D01*
X106023809Y-68652380D01*
X106642857Y-68652380D01*
X107071428Y-68652380D02*
X107071428Y-67985714D01*
X107071428Y-68080952D02*
X107119047Y-68033333D01*
X107214285Y-67985714D01*
X107357142Y-67985714D01*
X107452380Y-68033333D01*
X107499999Y-68128571D01*
X107499999Y-68652380D01*
X107499999Y-68128571D02*
X107547619Y-68033333D01*
X107642857Y-67985714D01*
X107785714Y-67985714D01*
X107880952Y-68033333D01*
X107928571Y-68128571D01*
X107928571Y-68652380D01*
X108404761Y-68652380D02*
X108404761Y-67985714D01*
X108404761Y-68080952D02*
X108452380Y-68033333D01*
X108547619Y-67985714D01*
X108690476Y-67985714D01*
X108785714Y-68033333D01*
X108833333Y-68128571D01*
X108833333Y-68652380D01*
X108833333Y-68128571D02*
X108880952Y-68033333D01*
X108976190Y-67985714D01*
X109119047Y-67985714D01*
X109214285Y-68033333D01*
X109261904Y-68128571D01*
X109261904Y-68652380D01*
X109499999Y-68747619D02*
X110261904Y-68747619D01*
X110499999Y-68652380D02*
X110499999Y-67652380D01*
X110833333Y-68366666D01*
X111166666Y-67652380D01*
X111166666Y-68652380D01*
X111595238Y-67747619D02*
X111642857Y-67700000D01*
X111738095Y-67652380D01*
X111976190Y-67652380D01*
X112071428Y-67700000D01*
X112119047Y-67747619D01*
X112166666Y-67842857D01*
X112166666Y-67938095D01*
X112119047Y-68080952D01*
X111547619Y-68652380D01*
X112166666Y-68652380D01*
X101966666Y-65452380D02*
X101633333Y-64976190D01*
X101395238Y-65452380D02*
X101395238Y-64452380D01*
X101776190Y-64452380D01*
X101871428Y-64500000D01*
X101919047Y-64547619D01*
X101966666Y-64642857D01*
X101966666Y-64785714D01*
X101919047Y-64880952D01*
X101871428Y-64928571D01*
X101776190Y-64976190D01*
X101395238Y-64976190D01*
X102395238Y-64928571D02*
X102728571Y-64928571D01*
X102871428Y-65452380D02*
X102395238Y-65452380D01*
X102395238Y-64452380D01*
X102871428Y-64452380D01*
X103633333Y-64928571D02*
X103300000Y-64928571D01*
X103300000Y-65452380D02*
X103300000Y-64452380D01*
X103776190Y-64452380D01*
X104300000Y-64452380D02*
X104300000Y-64690476D01*
X104061904Y-64595238D02*
X104300000Y-64690476D01*
X104538095Y-64595238D01*
X104157142Y-64880952D02*
X104300000Y-64690476D01*
X104442857Y-64880952D01*
X105061904Y-64452380D02*
X105061904Y-64690476D01*
X104823809Y-64595238D02*
X105061904Y-64690476D01*
X105300000Y-64595238D01*
X104919047Y-64880952D02*
X105061904Y-64690476D01*
X105204761Y-64880952D01*
%TO.C,DS0*%
X117797619Y-90952380D02*
X117988095Y-90952380D01*
X118083333Y-91000000D01*
X118178571Y-91095238D01*
X118226190Y-91285714D01*
X118226190Y-91619047D01*
X118178571Y-91809523D01*
X118083333Y-91904761D01*
X117988095Y-91952380D01*
X117797619Y-91952380D01*
X117702380Y-91904761D01*
X117607142Y-91809523D01*
X117559523Y-91619047D01*
X117559523Y-91285714D01*
X117607142Y-91095238D01*
X117702380Y-91000000D01*
X117797619Y-90952380D01*
X119130952Y-91952380D02*
X118654761Y-91952380D01*
X118654761Y-90952380D01*
X119464285Y-91428571D02*
X119797619Y-91428571D01*
X119940476Y-91952380D02*
X119464285Y-91952380D01*
X119464285Y-90952380D01*
X119940476Y-90952380D01*
X120369047Y-91952380D02*
X120369047Y-90952380D01*
X120607142Y-90952380D01*
X120750000Y-91000000D01*
X120845238Y-91095238D01*
X120892857Y-91190476D01*
X120940476Y-91380952D01*
X120940476Y-91523809D01*
X120892857Y-91714285D01*
X120845238Y-91809523D01*
X120750000Y-91904761D01*
X120607142Y-91952380D01*
X120369047Y-91952380D01*
%TO.C,JP1*%
X154103571Y-93417142D02*
X154151190Y-93274285D01*
X154198809Y-93226666D01*
X154294047Y-93179047D01*
X154436904Y-93179047D01*
X154532142Y-93226666D01*
X154579761Y-93274285D01*
X154627380Y-93369523D01*
X154627380Y-93750476D01*
X153627380Y-93750476D01*
X153627380Y-93417142D01*
X153675000Y-93321904D01*
X153722619Y-93274285D01*
X153817857Y-93226666D01*
X153913095Y-93226666D01*
X154008333Y-93274285D01*
X154055952Y-93321904D01*
X154103571Y-93417142D01*
X154103571Y-93750476D01*
X153960714Y-92893333D02*
X153960714Y-92512380D01*
X153627380Y-92750476D02*
X154484523Y-92750476D01*
X154579761Y-92702857D01*
X154627380Y-92607619D01*
X154627380Y-92512380D01*
X153960714Y-92179047D02*
X154627380Y-92179047D01*
X154055952Y-92179047D02*
X154008333Y-92131428D01*
X153960714Y-92036190D01*
X153960714Y-91893333D01*
X154008333Y-91798095D01*
X154103571Y-91750476D01*
X154627380Y-91750476D01*
X153627380Y-90988571D02*
X154341666Y-90988571D01*
X154484523Y-91036190D01*
X154579761Y-91131428D01*
X154627380Y-91274285D01*
X154627380Y-91369523D01*
X153960714Y-90083809D02*
X154627380Y-90083809D01*
X153960714Y-90512380D02*
X154484523Y-90512380D01*
X154579761Y-90464761D01*
X154627380Y-90369523D01*
X154627380Y-90226666D01*
X154579761Y-90131428D01*
X154532142Y-90083809D01*
X154627380Y-89607619D02*
X153960714Y-89607619D01*
X154055952Y-89607619D02*
X154008333Y-89560000D01*
X153960714Y-89464761D01*
X153960714Y-89321904D01*
X154008333Y-89226666D01*
X154103571Y-89179047D01*
X154627380Y-89179047D01*
X154103571Y-89179047D02*
X154008333Y-89131428D01*
X153960714Y-89036190D01*
X153960714Y-88893333D01*
X154008333Y-88798095D01*
X154103571Y-88750476D01*
X154627380Y-88750476D01*
X153960714Y-88274285D02*
X154960714Y-88274285D01*
X154008333Y-88274285D02*
X153960714Y-88179047D01*
X153960714Y-87988571D01*
X154008333Y-87893333D01*
X154055952Y-87845714D01*
X154151190Y-87798095D01*
X154436904Y-87798095D01*
X154532142Y-87845714D01*
X154579761Y-87893333D01*
X154627380Y-87988571D01*
X154627380Y-88179047D01*
X154579761Y-88274285D01*
X154579761Y-86988571D02*
X154627380Y-87083809D01*
X154627380Y-87274285D01*
X154579761Y-87369523D01*
X154484523Y-87417142D01*
X154103571Y-87417142D01*
X154008333Y-87369523D01*
X153960714Y-87274285D01*
X153960714Y-87083809D01*
X154008333Y-86988571D01*
X154103571Y-86940952D01*
X154198809Y-86940952D01*
X154294047Y-87417142D01*
X154627380Y-86512380D02*
X153960714Y-86512380D01*
X154151190Y-86512380D02*
X154055952Y-86464761D01*
X154008333Y-86417142D01*
X153960714Y-86321904D01*
X153960714Y-86226666D01*
%TO.C,C3*%
X104682380Y-57532380D02*
X104682380Y-56532380D01*
X105110952Y-56627619D02*
X105158571Y-56580000D01*
X105253809Y-56532380D01*
X105491904Y-56532380D01*
X105587142Y-56580000D01*
X105634761Y-56627619D01*
X105682380Y-56722857D01*
X105682380Y-56818095D01*
X105634761Y-56960952D01*
X105063333Y-57532380D01*
X105682380Y-57532380D01*
X106682380Y-57437142D02*
X106634761Y-57484761D01*
X106491904Y-57532380D01*
X106396666Y-57532380D01*
X106253809Y-57484761D01*
X106158571Y-57389523D01*
X106110952Y-57294285D01*
X106063333Y-57103809D01*
X106063333Y-56960952D01*
X106110952Y-56770476D01*
X106158571Y-56675238D01*
X106253809Y-56580000D01*
X106396666Y-56532380D01*
X106491904Y-56532380D01*
X106634761Y-56580000D01*
X106682380Y-56627619D01*
X106872857Y-57627619D02*
X107634761Y-57627619D01*
X107872857Y-57532380D02*
X107872857Y-56532380D01*
X108349047Y-56865714D02*
X108349047Y-57532380D01*
X108349047Y-56960952D02*
X108396666Y-56913333D01*
X108491904Y-56865714D01*
X108634761Y-56865714D01*
X108730000Y-56913333D01*
X108777619Y-57008571D01*
X108777619Y-57532380D01*
%TO.C,C2*%
X113972857Y-68482380D02*
X113972857Y-67482380D01*
X114401428Y-67577619D02*
X114449047Y-67530000D01*
X114544285Y-67482380D01*
X114782380Y-67482380D01*
X114877619Y-67530000D01*
X114925238Y-67577619D01*
X114972857Y-67672857D01*
X114972857Y-67768095D01*
X114925238Y-67910952D01*
X114353809Y-68482380D01*
X114972857Y-68482380D01*
X115972857Y-68387142D02*
X115925238Y-68434761D01*
X115782380Y-68482380D01*
X115687142Y-68482380D01*
X115544285Y-68434761D01*
X115449047Y-68339523D01*
X115401428Y-68244285D01*
X115353809Y-68053809D01*
X115353809Y-67910952D01*
X115401428Y-67720476D01*
X115449047Y-67625238D01*
X115544285Y-67530000D01*
X115687142Y-67482380D01*
X115782380Y-67482380D01*
X115925238Y-67530000D01*
X115972857Y-67577619D01*
X116163333Y-68577619D02*
X116925238Y-68577619D01*
X117496666Y-67958571D02*
X117639523Y-68006190D01*
X117687142Y-68053809D01*
X117734761Y-68149047D01*
X117734761Y-68291904D01*
X117687142Y-68387142D01*
X117639523Y-68434761D01*
X117544285Y-68482380D01*
X117163333Y-68482380D01*
X117163333Y-67482380D01*
X117496666Y-67482380D01*
X117591904Y-67530000D01*
X117639523Y-67577619D01*
X117687142Y-67672857D01*
X117687142Y-67768095D01*
X117639523Y-67863333D01*
X117591904Y-67910952D01*
X117496666Y-67958571D01*
X117163333Y-67958571D01*
X118163333Y-67482380D02*
X118163333Y-68291904D01*
X118210952Y-68387142D01*
X118258571Y-68434761D01*
X118353809Y-68482380D01*
X118544285Y-68482380D01*
X118639523Y-68434761D01*
X118687142Y-68387142D01*
X118734761Y-68291904D01*
X118734761Y-67482380D01*
X119163333Y-68434761D02*
X119306190Y-68482380D01*
X119544285Y-68482380D01*
X119639523Y-68434761D01*
X119687142Y-68387142D01*
X119734761Y-68291904D01*
X119734761Y-68196666D01*
X119687142Y-68101428D01*
X119639523Y-68053809D01*
X119544285Y-68006190D01*
X119353809Y-67958571D01*
X119258571Y-67910952D01*
X119210952Y-67863333D01*
X119163333Y-67768095D01*
X119163333Y-67672857D01*
X119210952Y-67577619D01*
X119258571Y-67530000D01*
X119353809Y-67482380D01*
X119591904Y-67482380D01*
X119734761Y-67530000D01*
X113972857Y-72582380D02*
X113972857Y-71582380D01*
X114401428Y-71677619D02*
X114449047Y-71630000D01*
X114544285Y-71582380D01*
X114782380Y-71582380D01*
X114877619Y-71630000D01*
X114925238Y-71677619D01*
X114972857Y-71772857D01*
X114972857Y-71868095D01*
X114925238Y-72010952D01*
X114353809Y-72582380D01*
X114972857Y-72582380D01*
X115972857Y-72487142D02*
X115925238Y-72534761D01*
X115782380Y-72582380D01*
X115687142Y-72582380D01*
X115544285Y-72534761D01*
X115449047Y-72439523D01*
X115401428Y-72344285D01*
X115353809Y-72153809D01*
X115353809Y-72010952D01*
X115401428Y-71820476D01*
X115449047Y-71725238D01*
X115544285Y-71630000D01*
X115687142Y-71582380D01*
X115782380Y-71582380D01*
X115925238Y-71630000D01*
X115972857Y-71677619D01*
X116163333Y-72677619D02*
X116925238Y-72677619D01*
X117496666Y-72058571D02*
X117639523Y-72106190D01*
X117687142Y-72153809D01*
X117734761Y-72249047D01*
X117734761Y-72391904D01*
X117687142Y-72487142D01*
X117639523Y-72534761D01*
X117544285Y-72582380D01*
X117163333Y-72582380D01*
X117163333Y-71582380D01*
X117496666Y-71582380D01*
X117591904Y-71630000D01*
X117639523Y-71677619D01*
X117687142Y-71772857D01*
X117687142Y-71868095D01*
X117639523Y-71963333D01*
X117591904Y-72010952D01*
X117496666Y-72058571D01*
X117163333Y-72058571D01*
X118163333Y-71582380D02*
X118163333Y-72391904D01*
X118210952Y-72487142D01*
X118258571Y-72534761D01*
X118353809Y-72582380D01*
X118544285Y-72582380D01*
X118639523Y-72534761D01*
X118687142Y-72487142D01*
X118734761Y-72391904D01*
X118734761Y-71582380D01*
X119163333Y-72534761D02*
X119306190Y-72582380D01*
X119544285Y-72582380D01*
X119639523Y-72534761D01*
X119687142Y-72487142D01*
X119734761Y-72391904D01*
X119734761Y-72296666D01*
X119687142Y-72201428D01*
X119639523Y-72153809D01*
X119544285Y-72106190D01*
X119353809Y-72058571D01*
X119258571Y-72010952D01*
X119210952Y-71963333D01*
X119163333Y-71868095D01*
X119163333Y-71772857D01*
X119210952Y-71677619D01*
X119258571Y-71630000D01*
X119353809Y-71582380D01*
X119591904Y-71582380D01*
X119734761Y-71630000D01*
%TO.C,JP0*%
X134892857Y-78678571D02*
X135035714Y-78726190D01*
X135083333Y-78773809D01*
X135130952Y-78869047D01*
X135130952Y-79011904D01*
X135083333Y-79107142D01*
X135035714Y-79154761D01*
X134940476Y-79202380D01*
X134559523Y-79202380D01*
X134559523Y-78202380D01*
X134892857Y-78202380D01*
X134988095Y-78250000D01*
X135035714Y-78297619D01*
X135083333Y-78392857D01*
X135083333Y-78488095D01*
X135035714Y-78583333D01*
X134988095Y-78630952D01*
X134892857Y-78678571D01*
X134559523Y-78678571D01*
X135416666Y-78535714D02*
X135797619Y-78535714D01*
X135559523Y-78202380D02*
X135559523Y-79059523D01*
X135607142Y-79154761D01*
X135702380Y-79202380D01*
X135797619Y-79202380D01*
X136130952Y-78535714D02*
X136130952Y-79202380D01*
X136130952Y-78630952D02*
X136178571Y-78583333D01*
X136273809Y-78535714D01*
X136416666Y-78535714D01*
X136511904Y-78583333D01*
X136559523Y-78678571D01*
X136559523Y-79202380D01*
X137321428Y-78202380D02*
X137321428Y-78916666D01*
X137273809Y-79059523D01*
X137178571Y-79154761D01*
X137035714Y-79202380D01*
X136940476Y-79202380D01*
X138226190Y-78535714D02*
X138226190Y-79202380D01*
X137797619Y-78535714D02*
X137797619Y-79059523D01*
X137845238Y-79154761D01*
X137940476Y-79202380D01*
X138083333Y-79202380D01*
X138178571Y-79154761D01*
X138226190Y-79107142D01*
X138702380Y-79202380D02*
X138702380Y-78535714D01*
X138702380Y-78630952D02*
X138750000Y-78583333D01*
X138845238Y-78535714D01*
X138988095Y-78535714D01*
X139083333Y-78583333D01*
X139130952Y-78678571D01*
X139130952Y-79202380D01*
X139130952Y-78678571D02*
X139178571Y-78583333D01*
X139273809Y-78535714D01*
X139416666Y-78535714D01*
X139511904Y-78583333D01*
X139559523Y-78678571D01*
X139559523Y-79202380D01*
X140035714Y-78535714D02*
X140035714Y-79535714D01*
X140035714Y-78583333D02*
X140130952Y-78535714D01*
X140321428Y-78535714D01*
X140416666Y-78583333D01*
X140464285Y-78630952D01*
X140511904Y-78726190D01*
X140511904Y-79011904D01*
X140464285Y-79107142D01*
X140416666Y-79154761D01*
X140321428Y-79202380D01*
X140130952Y-79202380D01*
X140035714Y-79154761D01*
X141321428Y-79154761D02*
X141226190Y-79202380D01*
X141035714Y-79202380D01*
X140940476Y-79154761D01*
X140892857Y-79059523D01*
X140892857Y-78678571D01*
X140940476Y-78583333D01*
X141035714Y-78535714D01*
X141226190Y-78535714D01*
X141321428Y-78583333D01*
X141369047Y-78678571D01*
X141369047Y-78773809D01*
X140892857Y-78869047D01*
X141797619Y-79202380D02*
X141797619Y-78535714D01*
X141797619Y-78726190D02*
X141845238Y-78630952D01*
X141892857Y-78583333D01*
X141988095Y-78535714D01*
X142083333Y-78535714D01*
%TO.C,A0*%
X135654761Y-72904761D02*
X135797619Y-72952380D01*
X136035714Y-72952380D01*
X136130952Y-72904761D01*
X136178571Y-72857142D01*
X136226190Y-72761904D01*
X136226190Y-72666666D01*
X136178571Y-72571428D01*
X136130952Y-72523809D01*
X136035714Y-72476190D01*
X135845238Y-72428571D01*
X135750000Y-72380952D01*
X135702380Y-72333333D01*
X135654761Y-72238095D01*
X135654761Y-72142857D01*
X135702380Y-72047619D01*
X135750000Y-72000000D01*
X135845238Y-71952380D01*
X136083333Y-71952380D01*
X136226190Y-72000000D01*
X137035714Y-72904761D02*
X136940476Y-72952380D01*
X136750000Y-72952380D01*
X136654761Y-72904761D01*
X136607142Y-72809523D01*
X136607142Y-72428571D01*
X136654761Y-72333333D01*
X136750000Y-72285714D01*
X136940476Y-72285714D01*
X137035714Y-72333333D01*
X137083333Y-72428571D01*
X137083333Y-72523809D01*
X136607142Y-72619047D01*
X137892857Y-72904761D02*
X137797619Y-72952380D01*
X137607142Y-72952380D01*
X137511904Y-72904761D01*
X137464285Y-72809523D01*
X137464285Y-72428571D01*
X137511904Y-72333333D01*
X137607142Y-72285714D01*
X137797619Y-72285714D01*
X137892857Y-72333333D01*
X137940476Y-72428571D01*
X137940476Y-72523809D01*
X137464285Y-72619047D01*
X138797619Y-72952380D02*
X138797619Y-71952380D01*
X138797619Y-72904761D02*
X138702380Y-72952380D01*
X138511904Y-72952380D01*
X138416666Y-72904761D01*
X138369047Y-72857142D01*
X138321428Y-72761904D01*
X138321428Y-72476190D01*
X138369047Y-72380952D01*
X138416666Y-72333333D01*
X138511904Y-72285714D01*
X138702380Y-72285714D01*
X138797619Y-72333333D01*
X139035714Y-73047619D02*
X139797619Y-73047619D01*
X139940476Y-71952380D02*
X140607142Y-72952380D01*
X140607142Y-71952380D02*
X139940476Y-72952380D01*
X140988095Y-72952380D02*
X140988095Y-72285714D01*
X140988095Y-71952380D02*
X140940476Y-72000000D01*
X140988095Y-72047619D01*
X141035714Y-72000000D01*
X140988095Y-71952380D01*
X140988095Y-72047619D01*
X141892857Y-72952380D02*
X141892857Y-72428571D01*
X141845238Y-72333333D01*
X141750000Y-72285714D01*
X141559523Y-72285714D01*
X141464285Y-72333333D01*
X141892857Y-72904761D02*
X141797619Y-72952380D01*
X141559523Y-72952380D01*
X141464285Y-72904761D01*
X141416666Y-72809523D01*
X141416666Y-72714285D01*
X141464285Y-72619047D01*
X141559523Y-72571428D01*
X141797619Y-72571428D01*
X141892857Y-72523809D01*
X142511904Y-72952380D02*
X142416666Y-72904761D01*
X142369047Y-72857142D01*
X142321428Y-72761904D01*
X142321428Y-72476190D01*
X142369047Y-72380952D01*
X142416666Y-72333333D01*
X142511904Y-72285714D01*
X142654761Y-72285714D01*
X142750000Y-72333333D01*
X142797619Y-72380952D01*
X142845238Y-72476190D01*
X142845238Y-72761904D01*
X142797619Y-72857142D01*
X142750000Y-72904761D01*
X142654761Y-72952380D01*
X142511904Y-72952380D01*
X143035714Y-73047619D02*
X143797619Y-73047619D01*
X144559523Y-72952380D02*
X143988095Y-72952380D01*
X144273809Y-72952380D02*
X144273809Y-71952380D01*
X144178571Y-72095238D01*
X144083333Y-72190476D01*
X143988095Y-72238095D01*
X144988095Y-72857142D02*
X145035714Y-72904761D01*
X144988095Y-72952380D01*
X144940476Y-72904761D01*
X144988095Y-72857142D01*
X144988095Y-72952380D01*
X145369047Y-72952380D02*
X145892857Y-72285714D01*
X145369047Y-72285714D02*
X145892857Y-72952380D01*
%TO.C,J0*%
X157262380Y-80047857D02*
X156262380Y-80047857D01*
X156262380Y-79666904D01*
X156310000Y-79571666D01*
X156357619Y-79524047D01*
X156452857Y-79476428D01*
X156595714Y-79476428D01*
X156690952Y-79524047D01*
X156738571Y-79571666D01*
X156786190Y-79666904D01*
X156786190Y-80047857D01*
X157262380Y-78905000D02*
X157214761Y-79000238D01*
X157167142Y-79047857D01*
X157071904Y-79095476D01*
X156786190Y-79095476D01*
X156690952Y-79047857D01*
X156643333Y-79000238D01*
X156595714Y-78905000D01*
X156595714Y-78762142D01*
X156643333Y-78666904D01*
X156690952Y-78619285D01*
X156786190Y-78571666D01*
X157071904Y-78571666D01*
X157167142Y-78619285D01*
X157214761Y-78666904D01*
X157262380Y-78762142D01*
X157262380Y-78905000D01*
X156595714Y-78238333D02*
X157262380Y-78047857D01*
X156786190Y-77857380D01*
X157262380Y-77666904D01*
X156595714Y-77476428D01*
X157214761Y-76714523D02*
X157262380Y-76809761D01*
X157262380Y-77000238D01*
X157214761Y-77095476D01*
X157119523Y-77143095D01*
X156738571Y-77143095D01*
X156643333Y-77095476D01*
X156595714Y-77000238D01*
X156595714Y-76809761D01*
X156643333Y-76714523D01*
X156738571Y-76666904D01*
X156833809Y-76666904D01*
X156929047Y-77143095D01*
X157262380Y-76238333D02*
X156595714Y-76238333D01*
X156786190Y-76238333D02*
X156690952Y-76190714D01*
X156643333Y-76143095D01*
X156595714Y-76047857D01*
X156595714Y-75952619D01*
X157262380Y-74857380D02*
X156262380Y-74857380D01*
X156738571Y-74857380D02*
X156738571Y-74285952D01*
X157262380Y-74285952D02*
X156262380Y-74285952D01*
X157262380Y-73381190D02*
X156262380Y-73381190D01*
X157214761Y-73381190D02*
X157262380Y-73476428D01*
X157262380Y-73666904D01*
X157214761Y-73762142D01*
X157167142Y-73809761D01*
X157071904Y-73857380D01*
X156786190Y-73857380D01*
X156690952Y-73809761D01*
X156643333Y-73762142D01*
X156595714Y-73666904D01*
X156595714Y-73476428D01*
X156643333Y-73381190D01*
X157262380Y-72905000D02*
X156595714Y-72905000D01*
X156786190Y-72905000D02*
X156690952Y-72857380D01*
X156643333Y-72809761D01*
X156595714Y-72714523D01*
X156595714Y-72619285D01*
%TO.C,J2*%
X112278809Y-55341666D02*
X112755000Y-55341666D01*
X112183571Y-55627380D02*
X112516904Y-54627380D01*
X112850238Y-55627380D01*
X113183571Y-54960714D02*
X113183571Y-55627380D01*
X113183571Y-55055952D02*
X113231190Y-55008333D01*
X113326428Y-54960714D01*
X113469285Y-54960714D01*
X113564523Y-55008333D01*
X113612142Y-55103571D01*
X113612142Y-55627380D01*
X114516904Y-55627380D02*
X114516904Y-55103571D01*
X114469285Y-55008333D01*
X114374047Y-54960714D01*
X114183571Y-54960714D01*
X114088333Y-55008333D01*
X114516904Y-55579761D02*
X114421666Y-55627380D01*
X114183571Y-55627380D01*
X114088333Y-55579761D01*
X114040714Y-55484523D01*
X114040714Y-55389285D01*
X114088333Y-55294047D01*
X114183571Y-55246428D01*
X114421666Y-55246428D01*
X114516904Y-55198809D01*
X115135952Y-55627380D02*
X115040714Y-55579761D01*
X114993095Y-55484523D01*
X114993095Y-54627380D01*
X115659761Y-55627380D02*
X115564523Y-55579761D01*
X115516904Y-55532142D01*
X115469285Y-55436904D01*
X115469285Y-55151190D01*
X115516904Y-55055952D01*
X115564523Y-55008333D01*
X115659761Y-54960714D01*
X115802619Y-54960714D01*
X115897857Y-55008333D01*
X115945476Y-55055952D01*
X115993095Y-55151190D01*
X115993095Y-55436904D01*
X115945476Y-55532142D01*
X115897857Y-55579761D01*
X115802619Y-55627380D01*
X115659761Y-55627380D01*
X116850238Y-54960714D02*
X116850238Y-55770238D01*
X116802619Y-55865476D01*
X116755000Y-55913095D01*
X116659761Y-55960714D01*
X116516904Y-55960714D01*
X116421666Y-55913095D01*
X116850238Y-55579761D02*
X116755000Y-55627380D01*
X116564523Y-55627380D01*
X116469285Y-55579761D01*
X116421666Y-55532142D01*
X116374047Y-55436904D01*
X116374047Y-55151190D01*
X116421666Y-55055952D01*
X116469285Y-55008333D01*
X116564523Y-54960714D01*
X116755000Y-54960714D01*
X116850238Y-55008333D01*
X118088333Y-55627380D02*
X118088333Y-54627380D01*
X118088333Y-55103571D02*
X118659761Y-55103571D01*
X118659761Y-55627380D02*
X118659761Y-54627380D01*
X119564523Y-55627380D02*
X119564523Y-54627380D01*
X119564523Y-55579761D02*
X119469285Y-55627380D01*
X119278809Y-55627380D01*
X119183571Y-55579761D01*
X119135952Y-55532142D01*
X119088333Y-55436904D01*
X119088333Y-55151190D01*
X119135952Y-55055952D01*
X119183571Y-55008333D01*
X119278809Y-54960714D01*
X119469285Y-54960714D01*
X119564523Y-55008333D01*
X120040714Y-55627380D02*
X120040714Y-54960714D01*
X120040714Y-55151190D02*
X120088333Y-55055952D01*
X120135952Y-55008333D01*
X120231190Y-54960714D01*
X120326428Y-54960714D01*
%TO.C,SW0*%
X104404761Y-97966666D02*
X104880952Y-97966666D01*
X104309523Y-98252380D02*
X104642857Y-97252380D01*
X104976190Y-98252380D01*
X105738095Y-97585714D02*
X105738095Y-98252380D01*
X105309523Y-97585714D02*
X105309523Y-98109523D01*
X105357142Y-98204761D01*
X105452380Y-98252380D01*
X105595238Y-98252380D01*
X105690476Y-98204761D01*
X105738095Y-98157142D01*
X106119047Y-98252380D02*
X106642857Y-97585714D01*
X106119047Y-97585714D02*
X106642857Y-98252380D01*
X104666666Y-102654761D02*
X104809523Y-102702380D01*
X105047619Y-102702380D01*
X105142857Y-102654761D01*
X105190476Y-102607142D01*
X105238095Y-102511904D01*
X105238095Y-102416666D01*
X105190476Y-102321428D01*
X105142857Y-102273809D01*
X105047619Y-102226190D01*
X104857142Y-102178571D01*
X104761904Y-102130952D01*
X104714285Y-102083333D01*
X104666666Y-101988095D01*
X104666666Y-101892857D01*
X104714285Y-101797619D01*
X104761904Y-101750000D01*
X104857142Y-101702380D01*
X105095238Y-101702380D01*
X105238095Y-101750000D01*
X105571428Y-101702380D02*
X105809523Y-102702380D01*
X106000000Y-101988095D01*
X106190476Y-102702380D01*
X106428571Y-101702380D01*
X107000000Y-101702380D02*
X107095238Y-101702380D01*
X107190476Y-101750000D01*
X107238095Y-101797619D01*
X107285714Y-101892857D01*
X107333333Y-102083333D01*
X107333333Y-102321428D01*
X107285714Y-102511904D01*
X107238095Y-102607142D01*
X107190476Y-102654761D01*
X107095238Y-102702380D01*
X107000000Y-102702380D01*
X106904761Y-102654761D01*
X106857142Y-102607142D01*
X106809523Y-102511904D01*
X106761904Y-102321428D01*
X106761904Y-102083333D01*
X106809523Y-101892857D01*
X106857142Y-101797619D01*
X106904761Y-101750000D01*
X107000000Y-101702380D01*
%TO.C,SW1*%
X130607142Y-98252380D02*
X130607142Y-97252380D01*
X130845238Y-97252380D01*
X130988095Y-97300000D01*
X131083333Y-97395238D01*
X131130952Y-97490476D01*
X131178571Y-97680952D01*
X131178571Y-97823809D01*
X131130952Y-98014285D01*
X131083333Y-98109523D01*
X130988095Y-98204761D01*
X130845238Y-98252380D01*
X130607142Y-98252380D01*
X131607142Y-98252380D02*
X131607142Y-97585714D01*
X131607142Y-97252380D02*
X131559523Y-97300000D01*
X131607142Y-97347619D01*
X131654761Y-97300000D01*
X131607142Y-97252380D01*
X131607142Y-97347619D01*
X132035714Y-98204761D02*
X132130952Y-98252380D01*
X132321428Y-98252380D01*
X132416666Y-98204761D01*
X132464285Y-98109523D01*
X132464285Y-98061904D01*
X132416666Y-97966666D01*
X132321428Y-97919047D01*
X132178571Y-97919047D01*
X132083333Y-97871428D01*
X132035714Y-97776190D01*
X132035714Y-97728571D01*
X132083333Y-97633333D01*
X132178571Y-97585714D01*
X132321428Y-97585714D01*
X132416666Y-97633333D01*
X132892857Y-97585714D02*
X132892857Y-98585714D01*
X132892857Y-97633333D02*
X132988095Y-97585714D01*
X133178571Y-97585714D01*
X133273809Y-97633333D01*
X133321428Y-97680952D01*
X133369047Y-97776190D01*
X133369047Y-98061904D01*
X133321428Y-98157142D01*
X133273809Y-98204761D01*
X133178571Y-98252380D01*
X132988095Y-98252380D01*
X132892857Y-98204761D01*
X134559523Y-98252380D02*
X134559523Y-97252380D01*
X134892857Y-97966666D01*
X135226190Y-97252380D01*
X135226190Y-98252380D01*
X135845238Y-98252380D02*
X135750000Y-98204761D01*
X135702380Y-98157142D01*
X135654761Y-98061904D01*
X135654761Y-97776190D01*
X135702380Y-97680952D01*
X135750000Y-97633333D01*
X135845238Y-97585714D01*
X135988095Y-97585714D01*
X136083333Y-97633333D01*
X136130952Y-97680952D01*
X136178571Y-97776190D01*
X136178571Y-98061904D01*
X136130952Y-98157142D01*
X136083333Y-98204761D01*
X135988095Y-98252380D01*
X135845238Y-98252380D01*
X137035714Y-98252380D02*
X137035714Y-97252380D01*
X137035714Y-98204761D02*
X136940476Y-98252380D01*
X136750000Y-98252380D01*
X136654761Y-98204761D01*
X136607142Y-98157142D01*
X136559523Y-98061904D01*
X136559523Y-97776190D01*
X136607142Y-97680952D01*
X136654761Y-97633333D01*
X136750000Y-97585714D01*
X136940476Y-97585714D01*
X137035714Y-97633333D01*
X137892857Y-98204761D02*
X137797619Y-98252380D01*
X137607142Y-98252380D01*
X137511904Y-98204761D01*
X137464285Y-98109523D01*
X137464285Y-97728571D01*
X137511904Y-97633333D01*
X137607142Y-97585714D01*
X137797619Y-97585714D01*
X137892857Y-97633333D01*
X137940476Y-97728571D01*
X137940476Y-97823809D01*
X137464285Y-97919047D01*
X133416666Y-102654761D02*
X133559523Y-102702380D01*
X133797619Y-102702380D01*
X133892857Y-102654761D01*
X133940476Y-102607142D01*
X133988095Y-102511904D01*
X133988095Y-102416666D01*
X133940476Y-102321428D01*
X133892857Y-102273809D01*
X133797619Y-102226190D01*
X133607142Y-102178571D01*
X133511904Y-102130952D01*
X133464285Y-102083333D01*
X133416666Y-101988095D01*
X133416666Y-101892857D01*
X133464285Y-101797619D01*
X133511904Y-101750000D01*
X133607142Y-101702380D01*
X133845238Y-101702380D01*
X133988095Y-101750000D01*
X134321428Y-101702380D02*
X134559523Y-102702380D01*
X134750000Y-101988095D01*
X134940476Y-102702380D01*
X135178571Y-101702380D01*
X136083333Y-102702380D02*
X135511904Y-102702380D01*
X135797619Y-102702380D02*
X135797619Y-101702380D01*
X135702380Y-101845238D01*
X135607142Y-101940476D01*
X135511904Y-101988095D01*
%TO.C,SW2*%
X115946428Y-98252380D02*
X115946428Y-97252380D01*
X116422619Y-97585714D02*
X116422619Y-98252380D01*
X116422619Y-97680952D02*
X116470238Y-97633333D01*
X116565476Y-97585714D01*
X116708333Y-97585714D01*
X116803571Y-97633333D01*
X116851190Y-97728571D01*
X116851190Y-98252380D01*
X117327380Y-97585714D02*
X117327380Y-98585714D01*
X117327380Y-97633333D02*
X117422619Y-97585714D01*
X117613095Y-97585714D01*
X117708333Y-97633333D01*
X117755952Y-97680952D01*
X117803571Y-97776190D01*
X117803571Y-98061904D01*
X117755952Y-98157142D01*
X117708333Y-98204761D01*
X117613095Y-98252380D01*
X117422619Y-98252380D01*
X117327380Y-98204761D01*
X118660714Y-97585714D02*
X118660714Y-98252380D01*
X118232142Y-97585714D02*
X118232142Y-98109523D01*
X118279761Y-98204761D01*
X118375000Y-98252380D01*
X118517857Y-98252380D01*
X118613095Y-98204761D01*
X118660714Y-98157142D01*
X118994047Y-97585714D02*
X119375000Y-97585714D01*
X119136904Y-97252380D02*
X119136904Y-98109523D01*
X119184523Y-98204761D01*
X119279761Y-98252380D01*
X119375000Y-98252380D01*
X120470238Y-98252380D02*
X120470238Y-97252380D01*
X120803571Y-97966666D01*
X121136904Y-97252380D01*
X121136904Y-98252380D01*
X121755952Y-98252380D02*
X121660714Y-98204761D01*
X121613095Y-98157142D01*
X121565476Y-98061904D01*
X121565476Y-97776190D01*
X121613095Y-97680952D01*
X121660714Y-97633333D01*
X121755952Y-97585714D01*
X121898809Y-97585714D01*
X121994047Y-97633333D01*
X122041666Y-97680952D01*
X122089285Y-97776190D01*
X122089285Y-98061904D01*
X122041666Y-98157142D01*
X121994047Y-98204761D01*
X121898809Y-98252380D01*
X121755952Y-98252380D01*
X122946428Y-98252380D02*
X122946428Y-97252380D01*
X122946428Y-98204761D02*
X122851190Y-98252380D01*
X122660714Y-98252380D01*
X122565476Y-98204761D01*
X122517857Y-98157142D01*
X122470238Y-98061904D01*
X122470238Y-97776190D01*
X122517857Y-97680952D01*
X122565476Y-97633333D01*
X122660714Y-97585714D01*
X122851190Y-97585714D01*
X122946428Y-97633333D01*
X123803571Y-98204761D02*
X123708333Y-98252380D01*
X123517857Y-98252380D01*
X123422619Y-98204761D01*
X123375000Y-98109523D01*
X123375000Y-97728571D01*
X123422619Y-97633333D01*
X123517857Y-97585714D01*
X123708333Y-97585714D01*
X123803571Y-97633333D01*
X123851190Y-97728571D01*
X123851190Y-97823809D01*
X123375000Y-97919047D01*
X119041666Y-102654761D02*
X119184523Y-102702380D01*
X119422619Y-102702380D01*
X119517857Y-102654761D01*
X119565476Y-102607142D01*
X119613095Y-102511904D01*
X119613095Y-102416666D01*
X119565476Y-102321428D01*
X119517857Y-102273809D01*
X119422619Y-102226190D01*
X119232142Y-102178571D01*
X119136904Y-102130952D01*
X119089285Y-102083333D01*
X119041666Y-101988095D01*
X119041666Y-101892857D01*
X119089285Y-101797619D01*
X119136904Y-101750000D01*
X119232142Y-101702380D01*
X119470238Y-101702380D01*
X119613095Y-101750000D01*
X119946428Y-101702380D02*
X120184523Y-102702380D01*
X120375000Y-101988095D01*
X120565476Y-102702380D01*
X120803571Y-101702380D01*
X121136904Y-101797619D02*
X121184523Y-101750000D01*
X121279761Y-101702380D01*
X121517857Y-101702380D01*
X121613095Y-101750000D01*
X121660714Y-101797619D01*
X121708333Y-101892857D01*
X121708333Y-101988095D01*
X121660714Y-102130952D01*
X121089285Y-102702380D01*
X121708333Y-102702380D01*
%TD*%
M02*
