%TF.GenerationSoftware,KiCad,Pcbnew,(5.1.9)-1*%
%TF.CreationDate,2021-03-22T13:16:07-04:00*%
%TF.ProjectId,BitDisplay,42697444-6973-4706-9c61-792e6b696361,rev?*%
%TF.SameCoordinates,Original*%
%TF.FileFunction,Copper,L2,Bot*%
%TF.FilePolarity,Positive*%
%FSLAX46Y46*%
G04 Gerber Fmt 4.6, Leading zero omitted, Abs format (unit mm)*
G04 Created by KiCad (PCBNEW (5.1.9)-1) date 2021-03-22 13:16:07*
%MOMM*%
%LPD*%
G01*
G04 APERTURE LIST*
%TA.AperFunction,Profile*%
%ADD10C,0.100000*%
%TD*%
%TA.AperFunction,ComponentPad*%
%ADD11C,1.900000*%
%TD*%
%TA.AperFunction,ComponentPad*%
%ADD12C,2.000000*%
%TD*%
%TA.AperFunction,ViaPad*%
%ADD13C,0.600000*%
%TD*%
%TA.AperFunction,Conductor*%
%ADD14C,0.200000*%
%TD*%
%TA.AperFunction,Conductor*%
%ADD15C,0.254000*%
%TD*%
%TA.AperFunction,Conductor*%
%ADD16C,0.100000*%
%TD*%
G04 APERTURE END LIST*
D10*
X100250000Y-110500000D02*
X100250000Y-81000000D01*
X154750000Y-110500000D02*
X100250000Y-110500000D01*
X154750000Y-81000000D02*
X154750000Y-110500000D01*
X100250000Y-81000000D02*
X154750000Y-81000000D01*
X154750000Y-79750000D02*
X154750000Y-50250000D01*
X100250000Y-79750000D02*
X100250000Y-50250000D01*
X100250000Y-79750000D02*
X154750000Y-79750000D01*
X100250000Y-50250000D02*
X154750000Y-50250000D01*
D11*
%TO.P,C3,4*%
%TO.N,Net-(A0-Pad5)*%
X142480000Y-91060000D03*
%TO.P,C3,3*%
%TO.N,Net-(A0-Pad4)*%
X142480000Y-88520000D03*
%TO.P,C3,2*%
%TO.N,GND*%
X142480000Y-85980000D03*
%TO.P,C3,1*%
%TO.N,+5V*%
X142480000Y-83440000D03*
%TD*%
%TO.P,DS0,1*%
%TO.N,+5V*%
X138000000Y-85980000D03*
%TO.P,DS0,2*%
%TO.N,GND*%
X138000000Y-83440000D03*
%TO.P,DS0,3*%
%TO.N,Net-(A0-Pad4)*%
X138000000Y-91060000D03*
%TO.P,DS0,4*%
%TO.N,Net-(A0-Pad5)*%
X138000000Y-88520000D03*
%TD*%
%TO.P,JP1,1*%
%TO.N,Net-(A0-Pad10)*%
X151000000Y-91330000D03*
%TO.P,JP1,2*%
%TO.N,Net-(A0-Pad9)*%
X151000000Y-88790000D03*
%TO.P,JP1,3*%
%TO.N,Net-(A0-Pad8)*%
X151000000Y-86250000D03*
%TD*%
%TO.P,C3,4*%
%TO.N,Net-(A0-Pad7)*%
X110540000Y-52000000D03*
%TO.P,C3,3*%
%TO.N,Net-(A0-Pad6)*%
X108000000Y-52000000D03*
%TO.P,C3,2*%
%TO.N,GND*%
X105460000Y-52000000D03*
%TO.P,C3,1*%
%TO.N,+5V*%
X102920000Y-52000000D03*
%TD*%
%TO.P,C2,4*%
%TO.N,Net-(A0-Pad5)*%
X120640000Y-62950000D03*
%TO.P,C2,3*%
%TO.N,Net-(A0-Pad4)*%
X118100000Y-62950000D03*
%TO.P,C2,2*%
%TO.N,GND*%
X115560000Y-62950000D03*
%TO.P,C2,1*%
%TO.N,N/C*%
X113020000Y-62950000D03*
%TD*%
%TO.P,C2,4*%
%TO.N,Net-(A0-Pad5)*%
X120640000Y-67050000D03*
%TO.P,C2,3*%
%TO.N,Net-(A0-Pad4)*%
X118100000Y-67050000D03*
%TO.P,C2,2*%
%TO.N,GND*%
X115560000Y-67050000D03*
%TO.P,C2,1*%
%TO.N,+5V*%
X113020000Y-67050000D03*
%TD*%
%TO.P,JP0,3*%
%TO.N,Net-(A0-Pad8)*%
X140790000Y-77000000D03*
%TO.P,JP0,2*%
%TO.N,Net-(A0-Pad9)*%
X138250000Y-77000000D03*
%TO.P,JP0,1*%
%TO.N,Net-(A0-Pad10)*%
X135710000Y-77000000D03*
%TD*%
%TO.P,A0,0*%
%TO.N,Net-(A0-Pad0)*%
X133130000Y-52880000D03*
%TO.P,A0,1*%
%TO.N,Net-(A0-Pad1)*%
X133130000Y-55420000D03*
%TO.P,A0,2*%
%TO.N,Net-(A0-Pad2)*%
X133130000Y-57960000D03*
%TO.P,A0,3*%
%TO.N,Net-(A0-Pad3)*%
X133130000Y-60500000D03*
%TO.P,A0,4*%
%TO.N,Net-(A0-Pad4)*%
X133130000Y-63040000D03*
%TO.P,A0,5*%
%TO.N,Net-(A0-Pad5)*%
X133130000Y-65580000D03*
%TO.P,A0,6*%
%TO.N,Net-(A0-Pad6)*%
X133130000Y-68120000D03*
%TO.P,A0,13*%
%TO.N,+5V*%
X148370000Y-52880000D03*
%TO.P,A0,12*%
%TO.N,GND*%
X148370000Y-55420000D03*
%TO.P,A0,11*%
%TO.N,Net-(A0-Pad11)*%
X148370000Y-57960000D03*
%TO.P,A0,10*%
%TO.N,Net-(A0-Pad10)*%
X148370000Y-60500000D03*
%TO.P,A0,9*%
%TO.N,Net-(A0-Pad9)*%
X148370000Y-63040000D03*
%TO.P,A0,8*%
%TO.N,Net-(A0-Pad8)*%
X148370000Y-65580000D03*
%TO.P,A0,7*%
%TO.N,Net-(A0-Pad7)*%
X148370000Y-68120000D03*
%TD*%
%TO.P,J0,1*%
%TO.N,+5V*%
X153000000Y-74500000D03*
%TO.P,J0,2*%
%TO.N,GND*%
X153000000Y-77040000D03*
%TD*%
%TO.P,J2,1*%
%TO.N,Net-(A0-Pad3)*%
X113080000Y-52000000D03*
%TO.P,J2,2*%
%TO.N,Net-(A0-Pad2)*%
X115620000Y-52000000D03*
%TO.P,J2,3*%
%TO.N,Net-(A0-Pad1)*%
X118160000Y-52000000D03*
%TO.P,J2,4*%
%TO.N,Net-(A0-Pad0)*%
X120700000Y-52000000D03*
%TD*%
D12*
%TO.P,SW0,2*%
%TO.N,Net-(A0-Pad8)*%
X109250000Y-100000000D03*
%TO.P,SW0,1*%
%TO.N,GND*%
X109250000Y-104500000D03*
%TO.P,SW0,2*%
%TO.N,Net-(A0-Pad8)*%
X102750000Y-100000000D03*
%TO.P,SW0,1*%
%TO.N,GND*%
X102750000Y-104500000D03*
%TD*%
%TO.P,SW1,1*%
%TO.N,GND*%
X131500000Y-104500000D03*
%TO.P,SW1,2*%
%TO.N,Net-(A0-Pad9)*%
X131500000Y-100000000D03*
%TO.P,SW1,1*%
%TO.N,GND*%
X138000000Y-104500000D03*
%TO.P,SW1,2*%
%TO.N,Net-(A0-Pad9)*%
X138000000Y-100000000D03*
%TD*%
%TO.P,SW2,2*%
%TO.N,Net-(A0-Pad10)*%
X123625000Y-100000000D03*
%TO.P,SW2,1*%
%TO.N,GND*%
X123625000Y-104500000D03*
%TO.P,SW2,2*%
%TO.N,Net-(A0-Pad10)*%
X117125000Y-100000000D03*
%TO.P,SW2,1*%
%TO.N,GND*%
X117125000Y-104500000D03*
%TD*%
D13*
%TO.N,Net-(A0-Pad6)*%
X129000000Y-68250000D03*
%TO.N,Net-(A0-Pad7)*%
X134250000Y-71000000D03*
%TD*%
D14*
%TO.N,Net-(A0-Pad5)*%
X138770000Y-88520000D02*
X138000000Y-88520000D01*
X141310000Y-91060000D02*
X138770000Y-88520000D01*
X142480000Y-91060000D02*
X141310000Y-91060000D01*
%TO.N,Net-(A0-Pad6)*%
X129000000Y-62250000D02*
X129000000Y-68250000D01*
X127250000Y-60500000D02*
X129000000Y-62250000D01*
X116500000Y-60500000D02*
X127250000Y-60500000D01*
X108000000Y-52000000D02*
X116500000Y-60500000D01*
%TO.N,Net-(A0-Pad10)*%
X148370000Y-60500000D02*
X146500000Y-60500000D01*
X135710000Y-71290000D02*
X135710000Y-77000000D01*
X146500000Y-60500000D02*
X135710000Y-71290000D01*
%TO.N,Net-(A0-Pad9)*%
X145460000Y-63040000D02*
X148370000Y-63040000D01*
X138250000Y-70250000D02*
X145460000Y-63040000D01*
X138250000Y-77000000D02*
X138250000Y-70250000D01*
X148960000Y-88790000D02*
X151000000Y-88790000D01*
X138000000Y-99750000D02*
X148960000Y-88790000D01*
X138000000Y-100000000D02*
X138000000Y-99750000D01*
%TO.N,Net-(A0-Pad8)*%
X144420000Y-65580000D02*
X148370000Y-65580000D01*
X140790000Y-69210000D02*
X144420000Y-65580000D01*
X140790000Y-77000000D02*
X140790000Y-69210000D01*
%TO.N,Net-(A0-Pad7)*%
X132250000Y-71000000D02*
X134250000Y-71000000D01*
X129750000Y-61250000D02*
X129750000Y-68500000D01*
X129750000Y-68500000D02*
X132250000Y-71000000D01*
X128500000Y-60000000D02*
X129750000Y-61250000D01*
X118540000Y-60000000D02*
X128500000Y-60000000D01*
X110540000Y-52000000D02*
X118540000Y-60000000D01*
%TD*%
D15*
%TO.N,GND*%
X154065001Y-109815000D02*
X100935000Y-109815000D01*
X100935000Y-107579117D01*
X125765000Y-107579117D01*
X125765000Y-107920883D01*
X125831675Y-108256081D01*
X125962463Y-108571831D01*
X126152337Y-108855998D01*
X126394002Y-109097663D01*
X126678169Y-109287537D01*
X126993919Y-109418325D01*
X127329117Y-109485000D01*
X127670883Y-109485000D01*
X128006081Y-109418325D01*
X128321831Y-109287537D01*
X128605998Y-109097663D01*
X128847663Y-108855998D01*
X129037537Y-108571831D01*
X129168325Y-108256081D01*
X129235000Y-107920883D01*
X129235000Y-107579117D01*
X129168325Y-107243919D01*
X129037537Y-106928169D01*
X128847663Y-106644002D01*
X128605998Y-106402337D01*
X128321831Y-106212463D01*
X128006081Y-106081675D01*
X127670883Y-106015000D01*
X127329117Y-106015000D01*
X126993919Y-106081675D01*
X126678169Y-106212463D01*
X126394002Y-106402337D01*
X126152337Y-106644002D01*
X125962463Y-106928169D01*
X125831675Y-107243919D01*
X125765000Y-107579117D01*
X100935000Y-107579117D01*
X100935000Y-105635413D01*
X101794192Y-105635413D01*
X101889956Y-105899814D01*
X102179571Y-106040704D01*
X102491108Y-106122384D01*
X102812595Y-106141718D01*
X103131675Y-106097961D01*
X103436088Y-105992795D01*
X103610044Y-105899814D01*
X103705808Y-105635413D01*
X108294192Y-105635413D01*
X108389956Y-105899814D01*
X108679571Y-106040704D01*
X108991108Y-106122384D01*
X109312595Y-106141718D01*
X109631675Y-106097961D01*
X109936088Y-105992795D01*
X110110044Y-105899814D01*
X110205808Y-105635413D01*
X116169192Y-105635413D01*
X116264956Y-105899814D01*
X116554571Y-106040704D01*
X116866108Y-106122384D01*
X117187595Y-106141718D01*
X117506675Y-106097961D01*
X117811088Y-105992795D01*
X117985044Y-105899814D01*
X118080808Y-105635413D01*
X122669192Y-105635413D01*
X122764956Y-105899814D01*
X123054571Y-106040704D01*
X123366108Y-106122384D01*
X123687595Y-106141718D01*
X124006675Y-106097961D01*
X124311088Y-105992795D01*
X124485044Y-105899814D01*
X124580808Y-105635413D01*
X130544192Y-105635413D01*
X130639956Y-105899814D01*
X130929571Y-106040704D01*
X131241108Y-106122384D01*
X131562595Y-106141718D01*
X131881675Y-106097961D01*
X132186088Y-105992795D01*
X132360044Y-105899814D01*
X132455808Y-105635413D01*
X137044192Y-105635413D01*
X137139956Y-105899814D01*
X137429571Y-106040704D01*
X137741108Y-106122384D01*
X138062595Y-106141718D01*
X138381675Y-106097961D01*
X138686088Y-105992795D01*
X138860044Y-105899814D01*
X138955808Y-105635413D01*
X138000000Y-104679605D01*
X137044192Y-105635413D01*
X132455808Y-105635413D01*
X131500000Y-104679605D01*
X130544192Y-105635413D01*
X124580808Y-105635413D01*
X123625000Y-104679605D01*
X122669192Y-105635413D01*
X118080808Y-105635413D01*
X117125000Y-104679605D01*
X116169192Y-105635413D01*
X110205808Y-105635413D01*
X109250000Y-104679605D01*
X108294192Y-105635413D01*
X103705808Y-105635413D01*
X102750000Y-104679605D01*
X101794192Y-105635413D01*
X100935000Y-105635413D01*
X100935000Y-104562595D01*
X101108282Y-104562595D01*
X101152039Y-104881675D01*
X101257205Y-105186088D01*
X101350186Y-105360044D01*
X101614587Y-105455808D01*
X102570395Y-104500000D01*
X102929605Y-104500000D01*
X103885413Y-105455808D01*
X104149814Y-105360044D01*
X104290704Y-105070429D01*
X104372384Y-104758892D01*
X104384189Y-104562595D01*
X107608282Y-104562595D01*
X107652039Y-104881675D01*
X107757205Y-105186088D01*
X107850186Y-105360044D01*
X108114587Y-105455808D01*
X109070395Y-104500000D01*
X109429605Y-104500000D01*
X110385413Y-105455808D01*
X110649814Y-105360044D01*
X110790704Y-105070429D01*
X110872384Y-104758892D01*
X110884189Y-104562595D01*
X115483282Y-104562595D01*
X115527039Y-104881675D01*
X115632205Y-105186088D01*
X115725186Y-105360044D01*
X115989587Y-105455808D01*
X116945395Y-104500000D01*
X117304605Y-104500000D01*
X118260413Y-105455808D01*
X118524814Y-105360044D01*
X118665704Y-105070429D01*
X118747384Y-104758892D01*
X118759189Y-104562595D01*
X121983282Y-104562595D01*
X122027039Y-104881675D01*
X122132205Y-105186088D01*
X122225186Y-105360044D01*
X122489587Y-105455808D01*
X123445395Y-104500000D01*
X123804605Y-104500000D01*
X124760413Y-105455808D01*
X125024814Y-105360044D01*
X125165704Y-105070429D01*
X125247384Y-104758892D01*
X125259189Y-104562595D01*
X129858282Y-104562595D01*
X129902039Y-104881675D01*
X130007205Y-105186088D01*
X130100186Y-105360044D01*
X130364587Y-105455808D01*
X131320395Y-104500000D01*
X131679605Y-104500000D01*
X132635413Y-105455808D01*
X132899814Y-105360044D01*
X133040704Y-105070429D01*
X133122384Y-104758892D01*
X133134189Y-104562595D01*
X136358282Y-104562595D01*
X136402039Y-104881675D01*
X136507205Y-105186088D01*
X136600186Y-105360044D01*
X136864587Y-105455808D01*
X137820395Y-104500000D01*
X138179605Y-104500000D01*
X139135413Y-105455808D01*
X139399814Y-105360044D01*
X139540704Y-105070429D01*
X139622384Y-104758892D01*
X139641718Y-104437405D01*
X139597961Y-104118325D01*
X139492795Y-103813912D01*
X139399814Y-103639956D01*
X139135413Y-103544192D01*
X138179605Y-104500000D01*
X137820395Y-104500000D01*
X136864587Y-103544192D01*
X136600186Y-103639956D01*
X136459296Y-103929571D01*
X136377616Y-104241108D01*
X136358282Y-104562595D01*
X133134189Y-104562595D01*
X133141718Y-104437405D01*
X133097961Y-104118325D01*
X132992795Y-103813912D01*
X132899814Y-103639956D01*
X132635413Y-103544192D01*
X131679605Y-104500000D01*
X131320395Y-104500000D01*
X130364587Y-103544192D01*
X130100186Y-103639956D01*
X129959296Y-103929571D01*
X129877616Y-104241108D01*
X129858282Y-104562595D01*
X125259189Y-104562595D01*
X125266718Y-104437405D01*
X125222961Y-104118325D01*
X125117795Y-103813912D01*
X125024814Y-103639956D01*
X124760413Y-103544192D01*
X123804605Y-104500000D01*
X123445395Y-104500000D01*
X122489587Y-103544192D01*
X122225186Y-103639956D01*
X122084296Y-103929571D01*
X122002616Y-104241108D01*
X121983282Y-104562595D01*
X118759189Y-104562595D01*
X118766718Y-104437405D01*
X118722961Y-104118325D01*
X118617795Y-103813912D01*
X118524814Y-103639956D01*
X118260413Y-103544192D01*
X117304605Y-104500000D01*
X116945395Y-104500000D01*
X115989587Y-103544192D01*
X115725186Y-103639956D01*
X115584296Y-103929571D01*
X115502616Y-104241108D01*
X115483282Y-104562595D01*
X110884189Y-104562595D01*
X110891718Y-104437405D01*
X110847961Y-104118325D01*
X110742795Y-103813912D01*
X110649814Y-103639956D01*
X110385413Y-103544192D01*
X109429605Y-104500000D01*
X109070395Y-104500000D01*
X108114587Y-103544192D01*
X107850186Y-103639956D01*
X107709296Y-103929571D01*
X107627616Y-104241108D01*
X107608282Y-104562595D01*
X104384189Y-104562595D01*
X104391718Y-104437405D01*
X104347961Y-104118325D01*
X104242795Y-103813912D01*
X104149814Y-103639956D01*
X103885413Y-103544192D01*
X102929605Y-104500000D01*
X102570395Y-104500000D01*
X101614587Y-103544192D01*
X101350186Y-103639956D01*
X101209296Y-103929571D01*
X101127616Y-104241108D01*
X101108282Y-104562595D01*
X100935000Y-104562595D01*
X100935000Y-103364587D01*
X101794192Y-103364587D01*
X102750000Y-104320395D01*
X103705808Y-103364587D01*
X108294192Y-103364587D01*
X109250000Y-104320395D01*
X110205808Y-103364587D01*
X116169192Y-103364587D01*
X117125000Y-104320395D01*
X118080808Y-103364587D01*
X122669192Y-103364587D01*
X123625000Y-104320395D01*
X124580808Y-103364587D01*
X130544192Y-103364587D01*
X131500000Y-104320395D01*
X132455808Y-103364587D01*
X137044192Y-103364587D01*
X138000000Y-104320395D01*
X138955808Y-103364587D01*
X138860044Y-103100186D01*
X138570429Y-102959296D01*
X138258892Y-102877616D01*
X137937405Y-102858282D01*
X137618325Y-102902039D01*
X137313912Y-103007205D01*
X137139956Y-103100186D01*
X137044192Y-103364587D01*
X132455808Y-103364587D01*
X132360044Y-103100186D01*
X132070429Y-102959296D01*
X131758892Y-102877616D01*
X131437405Y-102858282D01*
X131118325Y-102902039D01*
X130813912Y-103007205D01*
X130639956Y-103100186D01*
X130544192Y-103364587D01*
X124580808Y-103364587D01*
X124485044Y-103100186D01*
X124195429Y-102959296D01*
X123883892Y-102877616D01*
X123562405Y-102858282D01*
X123243325Y-102902039D01*
X122938912Y-103007205D01*
X122764956Y-103100186D01*
X122669192Y-103364587D01*
X118080808Y-103364587D01*
X117985044Y-103100186D01*
X117695429Y-102959296D01*
X117383892Y-102877616D01*
X117062405Y-102858282D01*
X116743325Y-102902039D01*
X116438912Y-103007205D01*
X116264956Y-103100186D01*
X116169192Y-103364587D01*
X110205808Y-103364587D01*
X110110044Y-103100186D01*
X109820429Y-102959296D01*
X109508892Y-102877616D01*
X109187405Y-102858282D01*
X108868325Y-102902039D01*
X108563912Y-103007205D01*
X108389956Y-103100186D01*
X108294192Y-103364587D01*
X103705808Y-103364587D01*
X103610044Y-103100186D01*
X103320429Y-102959296D01*
X103008892Y-102877616D01*
X102687405Y-102858282D01*
X102368325Y-102902039D01*
X102063912Y-103007205D01*
X101889956Y-103100186D01*
X101794192Y-103364587D01*
X100935000Y-103364587D01*
X100935000Y-99838967D01*
X101115000Y-99838967D01*
X101115000Y-100161033D01*
X101177832Y-100476912D01*
X101301082Y-100774463D01*
X101480013Y-101042252D01*
X101707748Y-101269987D01*
X101975537Y-101448918D01*
X102273088Y-101572168D01*
X102588967Y-101635000D01*
X102911033Y-101635000D01*
X103226912Y-101572168D01*
X103524463Y-101448918D01*
X103792252Y-101269987D01*
X104019987Y-101042252D01*
X104198918Y-100774463D01*
X104322168Y-100476912D01*
X104385000Y-100161033D01*
X104385000Y-99838967D01*
X107615000Y-99838967D01*
X107615000Y-100161033D01*
X107677832Y-100476912D01*
X107801082Y-100774463D01*
X107980013Y-101042252D01*
X108207748Y-101269987D01*
X108475537Y-101448918D01*
X108773088Y-101572168D01*
X109088967Y-101635000D01*
X109411033Y-101635000D01*
X109726912Y-101572168D01*
X110024463Y-101448918D01*
X110292252Y-101269987D01*
X110519987Y-101042252D01*
X110698918Y-100774463D01*
X110822168Y-100476912D01*
X110885000Y-100161033D01*
X110885000Y-99838967D01*
X115490000Y-99838967D01*
X115490000Y-100161033D01*
X115552832Y-100476912D01*
X115676082Y-100774463D01*
X115855013Y-101042252D01*
X116082748Y-101269987D01*
X116350537Y-101448918D01*
X116648088Y-101572168D01*
X116963967Y-101635000D01*
X117286033Y-101635000D01*
X117601912Y-101572168D01*
X117899463Y-101448918D01*
X118167252Y-101269987D01*
X118394987Y-101042252D01*
X118573918Y-100774463D01*
X118697168Y-100476912D01*
X118760000Y-100161033D01*
X118760000Y-99838967D01*
X121990000Y-99838967D01*
X121990000Y-100161033D01*
X122052832Y-100476912D01*
X122176082Y-100774463D01*
X122355013Y-101042252D01*
X122582748Y-101269987D01*
X122850537Y-101448918D01*
X123148088Y-101572168D01*
X123463967Y-101635000D01*
X123786033Y-101635000D01*
X124101912Y-101572168D01*
X124399463Y-101448918D01*
X124667252Y-101269987D01*
X124894987Y-101042252D01*
X125073918Y-100774463D01*
X125197168Y-100476912D01*
X125260000Y-100161033D01*
X125260000Y-99838967D01*
X129865000Y-99838967D01*
X129865000Y-100161033D01*
X129927832Y-100476912D01*
X130051082Y-100774463D01*
X130230013Y-101042252D01*
X130457748Y-101269987D01*
X130725537Y-101448918D01*
X131023088Y-101572168D01*
X131338967Y-101635000D01*
X131661033Y-101635000D01*
X131976912Y-101572168D01*
X132274463Y-101448918D01*
X132542252Y-101269987D01*
X132769987Y-101042252D01*
X132948918Y-100774463D01*
X133072168Y-100476912D01*
X133135000Y-100161033D01*
X133135000Y-99838967D01*
X136365000Y-99838967D01*
X136365000Y-100161033D01*
X136427832Y-100476912D01*
X136551082Y-100774463D01*
X136730013Y-101042252D01*
X136957748Y-101269987D01*
X137225537Y-101448918D01*
X137523088Y-101572168D01*
X137838967Y-101635000D01*
X138161033Y-101635000D01*
X138476912Y-101572168D01*
X138774463Y-101448918D01*
X139042252Y-101269987D01*
X139269987Y-101042252D01*
X139448918Y-100774463D01*
X139572168Y-100476912D01*
X139635000Y-100161033D01*
X139635000Y-99838967D01*
X139572168Y-99523088D01*
X139482598Y-99306848D01*
X143210329Y-95579117D01*
X150265000Y-95579117D01*
X150265000Y-95920883D01*
X150331675Y-96256081D01*
X150462463Y-96571831D01*
X150652337Y-96855998D01*
X150894002Y-97097663D01*
X151178169Y-97287537D01*
X151493919Y-97418325D01*
X151829117Y-97485000D01*
X152170883Y-97485000D01*
X152506081Y-97418325D01*
X152821831Y-97287537D01*
X153105998Y-97097663D01*
X153347663Y-96855998D01*
X153537537Y-96571831D01*
X153668325Y-96256081D01*
X153735000Y-95920883D01*
X153735000Y-95579117D01*
X153668325Y-95243919D01*
X153537537Y-94928169D01*
X153347663Y-94644002D01*
X153105998Y-94402337D01*
X152821831Y-94212463D01*
X152506081Y-94081675D01*
X152170883Y-94015000D01*
X151829117Y-94015000D01*
X151493919Y-94081675D01*
X151178169Y-94212463D01*
X150894002Y-94402337D01*
X150652337Y-94644002D01*
X150462463Y-94928169D01*
X150331675Y-95243919D01*
X150265000Y-95579117D01*
X143210329Y-95579117D01*
X149264447Y-89525000D01*
X149588855Y-89525000D01*
X149595391Y-89540779D01*
X149768850Y-89800379D01*
X149989621Y-90021150D01*
X150047764Y-90060000D01*
X149989621Y-90098850D01*
X149768850Y-90319621D01*
X149595391Y-90579221D01*
X149475911Y-90867673D01*
X149415000Y-91173891D01*
X149415000Y-91486109D01*
X149475911Y-91792327D01*
X149595391Y-92080779D01*
X149768850Y-92340379D01*
X149989621Y-92561150D01*
X150249221Y-92734609D01*
X150537673Y-92854089D01*
X150843891Y-92915000D01*
X151156109Y-92915000D01*
X151462327Y-92854089D01*
X151750779Y-92734609D01*
X152010379Y-92561150D01*
X152231150Y-92340379D01*
X152404609Y-92080779D01*
X152524089Y-91792327D01*
X152585000Y-91486109D01*
X152585000Y-91173891D01*
X152524089Y-90867673D01*
X152404609Y-90579221D01*
X152231150Y-90319621D01*
X152010379Y-90098850D01*
X151952236Y-90060000D01*
X152010379Y-90021150D01*
X152231150Y-89800379D01*
X152404609Y-89540779D01*
X152524089Y-89252327D01*
X152585000Y-88946109D01*
X152585000Y-88633891D01*
X152524089Y-88327673D01*
X152404609Y-88039221D01*
X152231150Y-87779621D01*
X152010379Y-87558850D01*
X151952236Y-87520000D01*
X152010379Y-87481150D01*
X152231150Y-87260379D01*
X152404609Y-87000779D01*
X152524089Y-86712327D01*
X152585000Y-86406109D01*
X152585000Y-86093891D01*
X152524089Y-85787673D01*
X152404609Y-85499221D01*
X152231150Y-85239621D01*
X152010379Y-85018850D01*
X151750779Y-84845391D01*
X151462327Y-84725911D01*
X151156109Y-84665000D01*
X150843891Y-84665000D01*
X150537673Y-84725911D01*
X150249221Y-84845391D01*
X149989621Y-85018850D01*
X149768850Y-85239621D01*
X149595391Y-85499221D01*
X149475911Y-85787673D01*
X149415000Y-86093891D01*
X149415000Y-86406109D01*
X149475911Y-86712327D01*
X149595391Y-87000779D01*
X149768850Y-87260379D01*
X149989621Y-87481150D01*
X150047764Y-87520000D01*
X149989621Y-87558850D01*
X149768850Y-87779621D01*
X149595391Y-88039221D01*
X149588855Y-88055000D01*
X148996105Y-88055000D01*
X148960000Y-88051444D01*
X148815915Y-88065635D01*
X148677366Y-88107663D01*
X148549680Y-88175913D01*
X148437762Y-88267762D01*
X148414746Y-88295807D01*
X138314940Y-98395614D01*
X138161033Y-98365000D01*
X137838967Y-98365000D01*
X137523088Y-98427832D01*
X137225537Y-98551082D01*
X136957748Y-98730013D01*
X136730013Y-98957748D01*
X136551082Y-99225537D01*
X136427832Y-99523088D01*
X136365000Y-99838967D01*
X133135000Y-99838967D01*
X133072168Y-99523088D01*
X132948918Y-99225537D01*
X132769987Y-98957748D01*
X132542252Y-98730013D01*
X132274463Y-98551082D01*
X131976912Y-98427832D01*
X131661033Y-98365000D01*
X131338967Y-98365000D01*
X131023088Y-98427832D01*
X130725537Y-98551082D01*
X130457748Y-98730013D01*
X130230013Y-98957748D01*
X130051082Y-99225537D01*
X129927832Y-99523088D01*
X129865000Y-99838967D01*
X125260000Y-99838967D01*
X125197168Y-99523088D01*
X125073918Y-99225537D01*
X124894987Y-98957748D01*
X124667252Y-98730013D01*
X124399463Y-98551082D01*
X124101912Y-98427832D01*
X123786033Y-98365000D01*
X123463967Y-98365000D01*
X123148088Y-98427832D01*
X122850537Y-98551082D01*
X122582748Y-98730013D01*
X122355013Y-98957748D01*
X122176082Y-99225537D01*
X122052832Y-99523088D01*
X121990000Y-99838967D01*
X118760000Y-99838967D01*
X118697168Y-99523088D01*
X118573918Y-99225537D01*
X118394987Y-98957748D01*
X118167252Y-98730013D01*
X117899463Y-98551082D01*
X117601912Y-98427832D01*
X117286033Y-98365000D01*
X116963967Y-98365000D01*
X116648088Y-98427832D01*
X116350537Y-98551082D01*
X116082748Y-98730013D01*
X115855013Y-98957748D01*
X115676082Y-99225537D01*
X115552832Y-99523088D01*
X115490000Y-99838967D01*
X110885000Y-99838967D01*
X110822168Y-99523088D01*
X110698918Y-99225537D01*
X110519987Y-98957748D01*
X110292252Y-98730013D01*
X110024463Y-98551082D01*
X109726912Y-98427832D01*
X109411033Y-98365000D01*
X109088967Y-98365000D01*
X108773088Y-98427832D01*
X108475537Y-98551082D01*
X108207748Y-98730013D01*
X107980013Y-98957748D01*
X107801082Y-99225537D01*
X107677832Y-99523088D01*
X107615000Y-99838967D01*
X104385000Y-99838967D01*
X104322168Y-99523088D01*
X104198918Y-99225537D01*
X104019987Y-98957748D01*
X103792252Y-98730013D01*
X103524463Y-98551082D01*
X103226912Y-98427832D01*
X102911033Y-98365000D01*
X102588967Y-98365000D01*
X102273088Y-98427832D01*
X101975537Y-98551082D01*
X101707748Y-98730013D01*
X101480013Y-98957748D01*
X101301082Y-99225537D01*
X101177832Y-99523088D01*
X101115000Y-99838967D01*
X100935000Y-99838967D01*
X100935000Y-95579117D01*
X101265000Y-95579117D01*
X101265000Y-95920883D01*
X101331675Y-96256081D01*
X101462463Y-96571831D01*
X101652337Y-96855998D01*
X101894002Y-97097663D01*
X102178169Y-97287537D01*
X102493919Y-97418325D01*
X102829117Y-97485000D01*
X103170883Y-97485000D01*
X103506081Y-97418325D01*
X103821831Y-97287537D01*
X104105998Y-97097663D01*
X104347663Y-96855998D01*
X104537537Y-96571831D01*
X104668325Y-96256081D01*
X104735000Y-95920883D01*
X104735000Y-95579117D01*
X104668325Y-95243919D01*
X104537537Y-94928169D01*
X104347663Y-94644002D01*
X104105998Y-94402337D01*
X103821831Y-94212463D01*
X103506081Y-94081675D01*
X103170883Y-94015000D01*
X102829117Y-94015000D01*
X102493919Y-94081675D01*
X102178169Y-94212463D01*
X101894002Y-94402337D01*
X101652337Y-94644002D01*
X101462463Y-94928169D01*
X101331675Y-95243919D01*
X101265000Y-95579117D01*
X100935000Y-95579117D01*
X100935000Y-85823891D01*
X136415000Y-85823891D01*
X136415000Y-86136109D01*
X136475911Y-86442327D01*
X136595391Y-86730779D01*
X136768850Y-86990379D01*
X136989621Y-87211150D01*
X137047764Y-87250000D01*
X136989621Y-87288850D01*
X136768850Y-87509621D01*
X136595391Y-87769221D01*
X136475911Y-88057673D01*
X136415000Y-88363891D01*
X136415000Y-88676109D01*
X136475911Y-88982327D01*
X136595391Y-89270779D01*
X136768850Y-89530379D01*
X136989621Y-89751150D01*
X137047764Y-89790000D01*
X136989621Y-89828850D01*
X136768850Y-90049621D01*
X136595391Y-90309221D01*
X136475911Y-90597673D01*
X136415000Y-90903891D01*
X136415000Y-91216109D01*
X136475911Y-91522327D01*
X136595391Y-91810779D01*
X136768850Y-92070379D01*
X136989621Y-92291150D01*
X137249221Y-92464609D01*
X137537673Y-92584089D01*
X137843891Y-92645000D01*
X138156109Y-92645000D01*
X138462327Y-92584089D01*
X138750779Y-92464609D01*
X139010379Y-92291150D01*
X139231150Y-92070379D01*
X139404609Y-91810779D01*
X139524089Y-91522327D01*
X139585000Y-91216109D01*
X139585000Y-90903891D01*
X139524089Y-90597673D01*
X139404609Y-90309221D01*
X139231150Y-90049621D01*
X139010379Y-89828850D01*
X138952236Y-89790000D01*
X138981200Y-89770647D01*
X140764746Y-91554193D01*
X140787762Y-91582238D01*
X140899680Y-91674087D01*
X141027367Y-91742337D01*
X141049869Y-91749163D01*
X141075391Y-91810779D01*
X141248850Y-92070379D01*
X141469621Y-92291150D01*
X141729221Y-92464609D01*
X142017673Y-92584089D01*
X142323891Y-92645000D01*
X142636109Y-92645000D01*
X142942327Y-92584089D01*
X143230779Y-92464609D01*
X143490379Y-92291150D01*
X143711150Y-92070379D01*
X143884609Y-91810779D01*
X144004089Y-91522327D01*
X144065000Y-91216109D01*
X144065000Y-90903891D01*
X144004089Y-90597673D01*
X143884609Y-90309221D01*
X143711150Y-90049621D01*
X143490379Y-89828850D01*
X143432236Y-89790000D01*
X143490379Y-89751150D01*
X143711150Y-89530379D01*
X143884609Y-89270779D01*
X144004089Y-88982327D01*
X144065000Y-88676109D01*
X144065000Y-88363891D01*
X144004089Y-88057673D01*
X143884609Y-87769221D01*
X143711150Y-87509621D01*
X143490379Y-87288850D01*
X143358324Y-87200613D01*
X143400147Y-87079752D01*
X142480000Y-86159605D01*
X141559853Y-87079752D01*
X141601676Y-87200613D01*
X141469621Y-87288850D01*
X141248850Y-87509621D01*
X141075391Y-87769221D01*
X140955911Y-88057673D01*
X140895000Y-88363891D01*
X140895000Y-88676109D01*
X140955911Y-88982327D01*
X141075391Y-89270779D01*
X141248850Y-89530379D01*
X141469621Y-89751150D01*
X141527764Y-89790000D01*
X141469621Y-89828850D01*
X141293959Y-90004512D01*
X139568032Y-88278585D01*
X139524089Y-88057673D01*
X139404609Y-87769221D01*
X139231150Y-87509621D01*
X139010379Y-87288850D01*
X138952236Y-87250000D01*
X139010379Y-87211150D01*
X139231150Y-86990379D01*
X139404609Y-86730779D01*
X139524089Y-86442327D01*
X139585000Y-86136109D01*
X139585000Y-86044573D01*
X140888641Y-86044573D01*
X140931816Y-86353791D01*
X141034487Y-86648644D01*
X141120958Y-86810421D01*
X141380248Y-86900147D01*
X142300395Y-85980000D01*
X142659605Y-85980000D01*
X143579752Y-86900147D01*
X143839042Y-86810421D01*
X143974935Y-86529329D01*
X144053379Y-86227127D01*
X144071359Y-85915427D01*
X144028184Y-85606209D01*
X143925513Y-85311356D01*
X143839042Y-85149579D01*
X143579752Y-85059853D01*
X142659605Y-85980000D01*
X142300395Y-85980000D01*
X141380248Y-85059853D01*
X141120958Y-85149579D01*
X140985065Y-85430671D01*
X140906621Y-85732873D01*
X140888641Y-86044573D01*
X139585000Y-86044573D01*
X139585000Y-85823891D01*
X139524089Y-85517673D01*
X139404609Y-85229221D01*
X139231150Y-84969621D01*
X139010379Y-84748850D01*
X138878324Y-84660613D01*
X138920147Y-84539752D01*
X138000000Y-83619605D01*
X137079853Y-84539752D01*
X137121676Y-84660613D01*
X136989621Y-84748850D01*
X136768850Y-84969621D01*
X136595391Y-85229221D01*
X136475911Y-85517673D01*
X136415000Y-85823891D01*
X100935000Y-85823891D01*
X100935000Y-83504573D01*
X136408641Y-83504573D01*
X136451816Y-83813791D01*
X136554487Y-84108644D01*
X136640958Y-84270421D01*
X136900248Y-84360147D01*
X137820395Y-83440000D01*
X138179605Y-83440000D01*
X139099752Y-84360147D01*
X139359042Y-84270421D01*
X139494935Y-83989329D01*
X139573379Y-83687127D01*
X139591359Y-83375427D01*
X139578579Y-83283891D01*
X140895000Y-83283891D01*
X140895000Y-83596109D01*
X140955911Y-83902327D01*
X141075391Y-84190779D01*
X141248850Y-84450379D01*
X141469621Y-84671150D01*
X141601676Y-84759387D01*
X141559853Y-84880248D01*
X142480000Y-85800395D01*
X143400147Y-84880248D01*
X143358324Y-84759387D01*
X143490379Y-84671150D01*
X143711150Y-84450379D01*
X143884609Y-84190779D01*
X144004089Y-83902327D01*
X144065000Y-83596109D01*
X144065000Y-83283891D01*
X144004089Y-82977673D01*
X143884609Y-82689221D01*
X143711150Y-82429621D01*
X143490379Y-82208850D01*
X143230779Y-82035391D01*
X142942327Y-81915911D01*
X142636109Y-81855000D01*
X142323891Y-81855000D01*
X142017673Y-81915911D01*
X141729221Y-82035391D01*
X141469621Y-82208850D01*
X141248850Y-82429621D01*
X141075391Y-82689221D01*
X140955911Y-82977673D01*
X140895000Y-83283891D01*
X139578579Y-83283891D01*
X139548184Y-83066209D01*
X139445513Y-82771356D01*
X139359042Y-82609579D01*
X139099752Y-82519853D01*
X138179605Y-83440000D01*
X137820395Y-83440000D01*
X136900248Y-82519853D01*
X136640958Y-82609579D01*
X136505065Y-82890671D01*
X136426621Y-83192873D01*
X136408641Y-83504573D01*
X100935000Y-83504573D01*
X100935000Y-82340248D01*
X137079853Y-82340248D01*
X138000000Y-83260395D01*
X138920147Y-82340248D01*
X138830421Y-82080958D01*
X138549329Y-81945065D01*
X138247127Y-81866621D01*
X137935427Y-81848641D01*
X137626209Y-81891816D01*
X137331356Y-81994487D01*
X137169579Y-82080958D01*
X137079853Y-82340248D01*
X100935000Y-82340248D01*
X100935000Y-81685000D01*
X154065000Y-81685000D01*
X154065001Y-109815000D01*
%TA.AperFunction,Conductor*%
D16*
G36*
X154065001Y-109815000D02*
G01*
X100935000Y-109815000D01*
X100935000Y-107579117D01*
X125765000Y-107579117D01*
X125765000Y-107920883D01*
X125831675Y-108256081D01*
X125962463Y-108571831D01*
X126152337Y-108855998D01*
X126394002Y-109097663D01*
X126678169Y-109287537D01*
X126993919Y-109418325D01*
X127329117Y-109485000D01*
X127670883Y-109485000D01*
X128006081Y-109418325D01*
X128321831Y-109287537D01*
X128605998Y-109097663D01*
X128847663Y-108855998D01*
X129037537Y-108571831D01*
X129168325Y-108256081D01*
X129235000Y-107920883D01*
X129235000Y-107579117D01*
X129168325Y-107243919D01*
X129037537Y-106928169D01*
X128847663Y-106644002D01*
X128605998Y-106402337D01*
X128321831Y-106212463D01*
X128006081Y-106081675D01*
X127670883Y-106015000D01*
X127329117Y-106015000D01*
X126993919Y-106081675D01*
X126678169Y-106212463D01*
X126394002Y-106402337D01*
X126152337Y-106644002D01*
X125962463Y-106928169D01*
X125831675Y-107243919D01*
X125765000Y-107579117D01*
X100935000Y-107579117D01*
X100935000Y-105635413D01*
X101794192Y-105635413D01*
X101889956Y-105899814D01*
X102179571Y-106040704D01*
X102491108Y-106122384D01*
X102812595Y-106141718D01*
X103131675Y-106097961D01*
X103436088Y-105992795D01*
X103610044Y-105899814D01*
X103705808Y-105635413D01*
X108294192Y-105635413D01*
X108389956Y-105899814D01*
X108679571Y-106040704D01*
X108991108Y-106122384D01*
X109312595Y-106141718D01*
X109631675Y-106097961D01*
X109936088Y-105992795D01*
X110110044Y-105899814D01*
X110205808Y-105635413D01*
X116169192Y-105635413D01*
X116264956Y-105899814D01*
X116554571Y-106040704D01*
X116866108Y-106122384D01*
X117187595Y-106141718D01*
X117506675Y-106097961D01*
X117811088Y-105992795D01*
X117985044Y-105899814D01*
X118080808Y-105635413D01*
X122669192Y-105635413D01*
X122764956Y-105899814D01*
X123054571Y-106040704D01*
X123366108Y-106122384D01*
X123687595Y-106141718D01*
X124006675Y-106097961D01*
X124311088Y-105992795D01*
X124485044Y-105899814D01*
X124580808Y-105635413D01*
X130544192Y-105635413D01*
X130639956Y-105899814D01*
X130929571Y-106040704D01*
X131241108Y-106122384D01*
X131562595Y-106141718D01*
X131881675Y-106097961D01*
X132186088Y-105992795D01*
X132360044Y-105899814D01*
X132455808Y-105635413D01*
X137044192Y-105635413D01*
X137139956Y-105899814D01*
X137429571Y-106040704D01*
X137741108Y-106122384D01*
X138062595Y-106141718D01*
X138381675Y-106097961D01*
X138686088Y-105992795D01*
X138860044Y-105899814D01*
X138955808Y-105635413D01*
X138000000Y-104679605D01*
X137044192Y-105635413D01*
X132455808Y-105635413D01*
X131500000Y-104679605D01*
X130544192Y-105635413D01*
X124580808Y-105635413D01*
X123625000Y-104679605D01*
X122669192Y-105635413D01*
X118080808Y-105635413D01*
X117125000Y-104679605D01*
X116169192Y-105635413D01*
X110205808Y-105635413D01*
X109250000Y-104679605D01*
X108294192Y-105635413D01*
X103705808Y-105635413D01*
X102750000Y-104679605D01*
X101794192Y-105635413D01*
X100935000Y-105635413D01*
X100935000Y-104562595D01*
X101108282Y-104562595D01*
X101152039Y-104881675D01*
X101257205Y-105186088D01*
X101350186Y-105360044D01*
X101614587Y-105455808D01*
X102570395Y-104500000D01*
X102929605Y-104500000D01*
X103885413Y-105455808D01*
X104149814Y-105360044D01*
X104290704Y-105070429D01*
X104372384Y-104758892D01*
X104384189Y-104562595D01*
X107608282Y-104562595D01*
X107652039Y-104881675D01*
X107757205Y-105186088D01*
X107850186Y-105360044D01*
X108114587Y-105455808D01*
X109070395Y-104500000D01*
X109429605Y-104500000D01*
X110385413Y-105455808D01*
X110649814Y-105360044D01*
X110790704Y-105070429D01*
X110872384Y-104758892D01*
X110884189Y-104562595D01*
X115483282Y-104562595D01*
X115527039Y-104881675D01*
X115632205Y-105186088D01*
X115725186Y-105360044D01*
X115989587Y-105455808D01*
X116945395Y-104500000D01*
X117304605Y-104500000D01*
X118260413Y-105455808D01*
X118524814Y-105360044D01*
X118665704Y-105070429D01*
X118747384Y-104758892D01*
X118759189Y-104562595D01*
X121983282Y-104562595D01*
X122027039Y-104881675D01*
X122132205Y-105186088D01*
X122225186Y-105360044D01*
X122489587Y-105455808D01*
X123445395Y-104500000D01*
X123804605Y-104500000D01*
X124760413Y-105455808D01*
X125024814Y-105360044D01*
X125165704Y-105070429D01*
X125247384Y-104758892D01*
X125259189Y-104562595D01*
X129858282Y-104562595D01*
X129902039Y-104881675D01*
X130007205Y-105186088D01*
X130100186Y-105360044D01*
X130364587Y-105455808D01*
X131320395Y-104500000D01*
X131679605Y-104500000D01*
X132635413Y-105455808D01*
X132899814Y-105360044D01*
X133040704Y-105070429D01*
X133122384Y-104758892D01*
X133134189Y-104562595D01*
X136358282Y-104562595D01*
X136402039Y-104881675D01*
X136507205Y-105186088D01*
X136600186Y-105360044D01*
X136864587Y-105455808D01*
X137820395Y-104500000D01*
X138179605Y-104500000D01*
X139135413Y-105455808D01*
X139399814Y-105360044D01*
X139540704Y-105070429D01*
X139622384Y-104758892D01*
X139641718Y-104437405D01*
X139597961Y-104118325D01*
X139492795Y-103813912D01*
X139399814Y-103639956D01*
X139135413Y-103544192D01*
X138179605Y-104500000D01*
X137820395Y-104500000D01*
X136864587Y-103544192D01*
X136600186Y-103639956D01*
X136459296Y-103929571D01*
X136377616Y-104241108D01*
X136358282Y-104562595D01*
X133134189Y-104562595D01*
X133141718Y-104437405D01*
X133097961Y-104118325D01*
X132992795Y-103813912D01*
X132899814Y-103639956D01*
X132635413Y-103544192D01*
X131679605Y-104500000D01*
X131320395Y-104500000D01*
X130364587Y-103544192D01*
X130100186Y-103639956D01*
X129959296Y-103929571D01*
X129877616Y-104241108D01*
X129858282Y-104562595D01*
X125259189Y-104562595D01*
X125266718Y-104437405D01*
X125222961Y-104118325D01*
X125117795Y-103813912D01*
X125024814Y-103639956D01*
X124760413Y-103544192D01*
X123804605Y-104500000D01*
X123445395Y-104500000D01*
X122489587Y-103544192D01*
X122225186Y-103639956D01*
X122084296Y-103929571D01*
X122002616Y-104241108D01*
X121983282Y-104562595D01*
X118759189Y-104562595D01*
X118766718Y-104437405D01*
X118722961Y-104118325D01*
X118617795Y-103813912D01*
X118524814Y-103639956D01*
X118260413Y-103544192D01*
X117304605Y-104500000D01*
X116945395Y-104500000D01*
X115989587Y-103544192D01*
X115725186Y-103639956D01*
X115584296Y-103929571D01*
X115502616Y-104241108D01*
X115483282Y-104562595D01*
X110884189Y-104562595D01*
X110891718Y-104437405D01*
X110847961Y-104118325D01*
X110742795Y-103813912D01*
X110649814Y-103639956D01*
X110385413Y-103544192D01*
X109429605Y-104500000D01*
X109070395Y-104500000D01*
X108114587Y-103544192D01*
X107850186Y-103639956D01*
X107709296Y-103929571D01*
X107627616Y-104241108D01*
X107608282Y-104562595D01*
X104384189Y-104562595D01*
X104391718Y-104437405D01*
X104347961Y-104118325D01*
X104242795Y-103813912D01*
X104149814Y-103639956D01*
X103885413Y-103544192D01*
X102929605Y-104500000D01*
X102570395Y-104500000D01*
X101614587Y-103544192D01*
X101350186Y-103639956D01*
X101209296Y-103929571D01*
X101127616Y-104241108D01*
X101108282Y-104562595D01*
X100935000Y-104562595D01*
X100935000Y-103364587D01*
X101794192Y-103364587D01*
X102750000Y-104320395D01*
X103705808Y-103364587D01*
X108294192Y-103364587D01*
X109250000Y-104320395D01*
X110205808Y-103364587D01*
X116169192Y-103364587D01*
X117125000Y-104320395D01*
X118080808Y-103364587D01*
X122669192Y-103364587D01*
X123625000Y-104320395D01*
X124580808Y-103364587D01*
X130544192Y-103364587D01*
X131500000Y-104320395D01*
X132455808Y-103364587D01*
X137044192Y-103364587D01*
X138000000Y-104320395D01*
X138955808Y-103364587D01*
X138860044Y-103100186D01*
X138570429Y-102959296D01*
X138258892Y-102877616D01*
X137937405Y-102858282D01*
X137618325Y-102902039D01*
X137313912Y-103007205D01*
X137139956Y-103100186D01*
X137044192Y-103364587D01*
X132455808Y-103364587D01*
X132360044Y-103100186D01*
X132070429Y-102959296D01*
X131758892Y-102877616D01*
X131437405Y-102858282D01*
X131118325Y-102902039D01*
X130813912Y-103007205D01*
X130639956Y-103100186D01*
X130544192Y-103364587D01*
X124580808Y-103364587D01*
X124485044Y-103100186D01*
X124195429Y-102959296D01*
X123883892Y-102877616D01*
X123562405Y-102858282D01*
X123243325Y-102902039D01*
X122938912Y-103007205D01*
X122764956Y-103100186D01*
X122669192Y-103364587D01*
X118080808Y-103364587D01*
X117985044Y-103100186D01*
X117695429Y-102959296D01*
X117383892Y-102877616D01*
X117062405Y-102858282D01*
X116743325Y-102902039D01*
X116438912Y-103007205D01*
X116264956Y-103100186D01*
X116169192Y-103364587D01*
X110205808Y-103364587D01*
X110110044Y-103100186D01*
X109820429Y-102959296D01*
X109508892Y-102877616D01*
X109187405Y-102858282D01*
X108868325Y-102902039D01*
X108563912Y-103007205D01*
X108389956Y-103100186D01*
X108294192Y-103364587D01*
X103705808Y-103364587D01*
X103610044Y-103100186D01*
X103320429Y-102959296D01*
X103008892Y-102877616D01*
X102687405Y-102858282D01*
X102368325Y-102902039D01*
X102063912Y-103007205D01*
X101889956Y-103100186D01*
X101794192Y-103364587D01*
X100935000Y-103364587D01*
X100935000Y-99838967D01*
X101115000Y-99838967D01*
X101115000Y-100161033D01*
X101177832Y-100476912D01*
X101301082Y-100774463D01*
X101480013Y-101042252D01*
X101707748Y-101269987D01*
X101975537Y-101448918D01*
X102273088Y-101572168D01*
X102588967Y-101635000D01*
X102911033Y-101635000D01*
X103226912Y-101572168D01*
X103524463Y-101448918D01*
X103792252Y-101269987D01*
X104019987Y-101042252D01*
X104198918Y-100774463D01*
X104322168Y-100476912D01*
X104385000Y-100161033D01*
X104385000Y-99838967D01*
X107615000Y-99838967D01*
X107615000Y-100161033D01*
X107677832Y-100476912D01*
X107801082Y-100774463D01*
X107980013Y-101042252D01*
X108207748Y-101269987D01*
X108475537Y-101448918D01*
X108773088Y-101572168D01*
X109088967Y-101635000D01*
X109411033Y-101635000D01*
X109726912Y-101572168D01*
X110024463Y-101448918D01*
X110292252Y-101269987D01*
X110519987Y-101042252D01*
X110698918Y-100774463D01*
X110822168Y-100476912D01*
X110885000Y-100161033D01*
X110885000Y-99838967D01*
X115490000Y-99838967D01*
X115490000Y-100161033D01*
X115552832Y-100476912D01*
X115676082Y-100774463D01*
X115855013Y-101042252D01*
X116082748Y-101269987D01*
X116350537Y-101448918D01*
X116648088Y-101572168D01*
X116963967Y-101635000D01*
X117286033Y-101635000D01*
X117601912Y-101572168D01*
X117899463Y-101448918D01*
X118167252Y-101269987D01*
X118394987Y-101042252D01*
X118573918Y-100774463D01*
X118697168Y-100476912D01*
X118760000Y-100161033D01*
X118760000Y-99838967D01*
X121990000Y-99838967D01*
X121990000Y-100161033D01*
X122052832Y-100476912D01*
X122176082Y-100774463D01*
X122355013Y-101042252D01*
X122582748Y-101269987D01*
X122850537Y-101448918D01*
X123148088Y-101572168D01*
X123463967Y-101635000D01*
X123786033Y-101635000D01*
X124101912Y-101572168D01*
X124399463Y-101448918D01*
X124667252Y-101269987D01*
X124894987Y-101042252D01*
X125073918Y-100774463D01*
X125197168Y-100476912D01*
X125260000Y-100161033D01*
X125260000Y-99838967D01*
X129865000Y-99838967D01*
X129865000Y-100161033D01*
X129927832Y-100476912D01*
X130051082Y-100774463D01*
X130230013Y-101042252D01*
X130457748Y-101269987D01*
X130725537Y-101448918D01*
X131023088Y-101572168D01*
X131338967Y-101635000D01*
X131661033Y-101635000D01*
X131976912Y-101572168D01*
X132274463Y-101448918D01*
X132542252Y-101269987D01*
X132769987Y-101042252D01*
X132948918Y-100774463D01*
X133072168Y-100476912D01*
X133135000Y-100161033D01*
X133135000Y-99838967D01*
X136365000Y-99838967D01*
X136365000Y-100161033D01*
X136427832Y-100476912D01*
X136551082Y-100774463D01*
X136730013Y-101042252D01*
X136957748Y-101269987D01*
X137225537Y-101448918D01*
X137523088Y-101572168D01*
X137838967Y-101635000D01*
X138161033Y-101635000D01*
X138476912Y-101572168D01*
X138774463Y-101448918D01*
X139042252Y-101269987D01*
X139269987Y-101042252D01*
X139448918Y-100774463D01*
X139572168Y-100476912D01*
X139635000Y-100161033D01*
X139635000Y-99838967D01*
X139572168Y-99523088D01*
X139482598Y-99306848D01*
X143210329Y-95579117D01*
X150265000Y-95579117D01*
X150265000Y-95920883D01*
X150331675Y-96256081D01*
X150462463Y-96571831D01*
X150652337Y-96855998D01*
X150894002Y-97097663D01*
X151178169Y-97287537D01*
X151493919Y-97418325D01*
X151829117Y-97485000D01*
X152170883Y-97485000D01*
X152506081Y-97418325D01*
X152821831Y-97287537D01*
X153105998Y-97097663D01*
X153347663Y-96855998D01*
X153537537Y-96571831D01*
X153668325Y-96256081D01*
X153735000Y-95920883D01*
X153735000Y-95579117D01*
X153668325Y-95243919D01*
X153537537Y-94928169D01*
X153347663Y-94644002D01*
X153105998Y-94402337D01*
X152821831Y-94212463D01*
X152506081Y-94081675D01*
X152170883Y-94015000D01*
X151829117Y-94015000D01*
X151493919Y-94081675D01*
X151178169Y-94212463D01*
X150894002Y-94402337D01*
X150652337Y-94644002D01*
X150462463Y-94928169D01*
X150331675Y-95243919D01*
X150265000Y-95579117D01*
X143210329Y-95579117D01*
X149264447Y-89525000D01*
X149588855Y-89525000D01*
X149595391Y-89540779D01*
X149768850Y-89800379D01*
X149989621Y-90021150D01*
X150047764Y-90060000D01*
X149989621Y-90098850D01*
X149768850Y-90319621D01*
X149595391Y-90579221D01*
X149475911Y-90867673D01*
X149415000Y-91173891D01*
X149415000Y-91486109D01*
X149475911Y-91792327D01*
X149595391Y-92080779D01*
X149768850Y-92340379D01*
X149989621Y-92561150D01*
X150249221Y-92734609D01*
X150537673Y-92854089D01*
X150843891Y-92915000D01*
X151156109Y-92915000D01*
X151462327Y-92854089D01*
X151750779Y-92734609D01*
X152010379Y-92561150D01*
X152231150Y-92340379D01*
X152404609Y-92080779D01*
X152524089Y-91792327D01*
X152585000Y-91486109D01*
X152585000Y-91173891D01*
X152524089Y-90867673D01*
X152404609Y-90579221D01*
X152231150Y-90319621D01*
X152010379Y-90098850D01*
X151952236Y-90060000D01*
X152010379Y-90021150D01*
X152231150Y-89800379D01*
X152404609Y-89540779D01*
X152524089Y-89252327D01*
X152585000Y-88946109D01*
X152585000Y-88633891D01*
X152524089Y-88327673D01*
X152404609Y-88039221D01*
X152231150Y-87779621D01*
X152010379Y-87558850D01*
X151952236Y-87520000D01*
X152010379Y-87481150D01*
X152231150Y-87260379D01*
X152404609Y-87000779D01*
X152524089Y-86712327D01*
X152585000Y-86406109D01*
X152585000Y-86093891D01*
X152524089Y-85787673D01*
X152404609Y-85499221D01*
X152231150Y-85239621D01*
X152010379Y-85018850D01*
X151750779Y-84845391D01*
X151462327Y-84725911D01*
X151156109Y-84665000D01*
X150843891Y-84665000D01*
X150537673Y-84725911D01*
X150249221Y-84845391D01*
X149989621Y-85018850D01*
X149768850Y-85239621D01*
X149595391Y-85499221D01*
X149475911Y-85787673D01*
X149415000Y-86093891D01*
X149415000Y-86406109D01*
X149475911Y-86712327D01*
X149595391Y-87000779D01*
X149768850Y-87260379D01*
X149989621Y-87481150D01*
X150047764Y-87520000D01*
X149989621Y-87558850D01*
X149768850Y-87779621D01*
X149595391Y-88039221D01*
X149588855Y-88055000D01*
X148996105Y-88055000D01*
X148960000Y-88051444D01*
X148815915Y-88065635D01*
X148677366Y-88107663D01*
X148549680Y-88175913D01*
X148437762Y-88267762D01*
X148414746Y-88295807D01*
X138314940Y-98395614D01*
X138161033Y-98365000D01*
X137838967Y-98365000D01*
X137523088Y-98427832D01*
X137225537Y-98551082D01*
X136957748Y-98730013D01*
X136730013Y-98957748D01*
X136551082Y-99225537D01*
X136427832Y-99523088D01*
X136365000Y-99838967D01*
X133135000Y-99838967D01*
X133072168Y-99523088D01*
X132948918Y-99225537D01*
X132769987Y-98957748D01*
X132542252Y-98730013D01*
X132274463Y-98551082D01*
X131976912Y-98427832D01*
X131661033Y-98365000D01*
X131338967Y-98365000D01*
X131023088Y-98427832D01*
X130725537Y-98551082D01*
X130457748Y-98730013D01*
X130230013Y-98957748D01*
X130051082Y-99225537D01*
X129927832Y-99523088D01*
X129865000Y-99838967D01*
X125260000Y-99838967D01*
X125197168Y-99523088D01*
X125073918Y-99225537D01*
X124894987Y-98957748D01*
X124667252Y-98730013D01*
X124399463Y-98551082D01*
X124101912Y-98427832D01*
X123786033Y-98365000D01*
X123463967Y-98365000D01*
X123148088Y-98427832D01*
X122850537Y-98551082D01*
X122582748Y-98730013D01*
X122355013Y-98957748D01*
X122176082Y-99225537D01*
X122052832Y-99523088D01*
X121990000Y-99838967D01*
X118760000Y-99838967D01*
X118697168Y-99523088D01*
X118573918Y-99225537D01*
X118394987Y-98957748D01*
X118167252Y-98730013D01*
X117899463Y-98551082D01*
X117601912Y-98427832D01*
X117286033Y-98365000D01*
X116963967Y-98365000D01*
X116648088Y-98427832D01*
X116350537Y-98551082D01*
X116082748Y-98730013D01*
X115855013Y-98957748D01*
X115676082Y-99225537D01*
X115552832Y-99523088D01*
X115490000Y-99838967D01*
X110885000Y-99838967D01*
X110822168Y-99523088D01*
X110698918Y-99225537D01*
X110519987Y-98957748D01*
X110292252Y-98730013D01*
X110024463Y-98551082D01*
X109726912Y-98427832D01*
X109411033Y-98365000D01*
X109088967Y-98365000D01*
X108773088Y-98427832D01*
X108475537Y-98551082D01*
X108207748Y-98730013D01*
X107980013Y-98957748D01*
X107801082Y-99225537D01*
X107677832Y-99523088D01*
X107615000Y-99838967D01*
X104385000Y-99838967D01*
X104322168Y-99523088D01*
X104198918Y-99225537D01*
X104019987Y-98957748D01*
X103792252Y-98730013D01*
X103524463Y-98551082D01*
X103226912Y-98427832D01*
X102911033Y-98365000D01*
X102588967Y-98365000D01*
X102273088Y-98427832D01*
X101975537Y-98551082D01*
X101707748Y-98730013D01*
X101480013Y-98957748D01*
X101301082Y-99225537D01*
X101177832Y-99523088D01*
X101115000Y-99838967D01*
X100935000Y-99838967D01*
X100935000Y-95579117D01*
X101265000Y-95579117D01*
X101265000Y-95920883D01*
X101331675Y-96256081D01*
X101462463Y-96571831D01*
X101652337Y-96855998D01*
X101894002Y-97097663D01*
X102178169Y-97287537D01*
X102493919Y-97418325D01*
X102829117Y-97485000D01*
X103170883Y-97485000D01*
X103506081Y-97418325D01*
X103821831Y-97287537D01*
X104105998Y-97097663D01*
X104347663Y-96855998D01*
X104537537Y-96571831D01*
X104668325Y-96256081D01*
X104735000Y-95920883D01*
X104735000Y-95579117D01*
X104668325Y-95243919D01*
X104537537Y-94928169D01*
X104347663Y-94644002D01*
X104105998Y-94402337D01*
X103821831Y-94212463D01*
X103506081Y-94081675D01*
X103170883Y-94015000D01*
X102829117Y-94015000D01*
X102493919Y-94081675D01*
X102178169Y-94212463D01*
X101894002Y-94402337D01*
X101652337Y-94644002D01*
X101462463Y-94928169D01*
X101331675Y-95243919D01*
X101265000Y-95579117D01*
X100935000Y-95579117D01*
X100935000Y-85823891D01*
X136415000Y-85823891D01*
X136415000Y-86136109D01*
X136475911Y-86442327D01*
X136595391Y-86730779D01*
X136768850Y-86990379D01*
X136989621Y-87211150D01*
X137047764Y-87250000D01*
X136989621Y-87288850D01*
X136768850Y-87509621D01*
X136595391Y-87769221D01*
X136475911Y-88057673D01*
X136415000Y-88363891D01*
X136415000Y-88676109D01*
X136475911Y-88982327D01*
X136595391Y-89270779D01*
X136768850Y-89530379D01*
X136989621Y-89751150D01*
X137047764Y-89790000D01*
X136989621Y-89828850D01*
X136768850Y-90049621D01*
X136595391Y-90309221D01*
X136475911Y-90597673D01*
X136415000Y-90903891D01*
X136415000Y-91216109D01*
X136475911Y-91522327D01*
X136595391Y-91810779D01*
X136768850Y-92070379D01*
X136989621Y-92291150D01*
X137249221Y-92464609D01*
X137537673Y-92584089D01*
X137843891Y-92645000D01*
X138156109Y-92645000D01*
X138462327Y-92584089D01*
X138750779Y-92464609D01*
X139010379Y-92291150D01*
X139231150Y-92070379D01*
X139404609Y-91810779D01*
X139524089Y-91522327D01*
X139585000Y-91216109D01*
X139585000Y-90903891D01*
X139524089Y-90597673D01*
X139404609Y-90309221D01*
X139231150Y-90049621D01*
X139010379Y-89828850D01*
X138952236Y-89790000D01*
X138981200Y-89770647D01*
X140764746Y-91554193D01*
X140787762Y-91582238D01*
X140899680Y-91674087D01*
X141027367Y-91742337D01*
X141049869Y-91749163D01*
X141075391Y-91810779D01*
X141248850Y-92070379D01*
X141469621Y-92291150D01*
X141729221Y-92464609D01*
X142017673Y-92584089D01*
X142323891Y-92645000D01*
X142636109Y-92645000D01*
X142942327Y-92584089D01*
X143230779Y-92464609D01*
X143490379Y-92291150D01*
X143711150Y-92070379D01*
X143884609Y-91810779D01*
X144004089Y-91522327D01*
X144065000Y-91216109D01*
X144065000Y-90903891D01*
X144004089Y-90597673D01*
X143884609Y-90309221D01*
X143711150Y-90049621D01*
X143490379Y-89828850D01*
X143432236Y-89790000D01*
X143490379Y-89751150D01*
X143711150Y-89530379D01*
X143884609Y-89270779D01*
X144004089Y-88982327D01*
X144065000Y-88676109D01*
X144065000Y-88363891D01*
X144004089Y-88057673D01*
X143884609Y-87769221D01*
X143711150Y-87509621D01*
X143490379Y-87288850D01*
X143358324Y-87200613D01*
X143400147Y-87079752D01*
X142480000Y-86159605D01*
X141559853Y-87079752D01*
X141601676Y-87200613D01*
X141469621Y-87288850D01*
X141248850Y-87509621D01*
X141075391Y-87769221D01*
X140955911Y-88057673D01*
X140895000Y-88363891D01*
X140895000Y-88676109D01*
X140955911Y-88982327D01*
X141075391Y-89270779D01*
X141248850Y-89530379D01*
X141469621Y-89751150D01*
X141527764Y-89790000D01*
X141469621Y-89828850D01*
X141293959Y-90004512D01*
X139568032Y-88278585D01*
X139524089Y-88057673D01*
X139404609Y-87769221D01*
X139231150Y-87509621D01*
X139010379Y-87288850D01*
X138952236Y-87250000D01*
X139010379Y-87211150D01*
X139231150Y-86990379D01*
X139404609Y-86730779D01*
X139524089Y-86442327D01*
X139585000Y-86136109D01*
X139585000Y-86044573D01*
X140888641Y-86044573D01*
X140931816Y-86353791D01*
X141034487Y-86648644D01*
X141120958Y-86810421D01*
X141380248Y-86900147D01*
X142300395Y-85980000D01*
X142659605Y-85980000D01*
X143579752Y-86900147D01*
X143839042Y-86810421D01*
X143974935Y-86529329D01*
X144053379Y-86227127D01*
X144071359Y-85915427D01*
X144028184Y-85606209D01*
X143925513Y-85311356D01*
X143839042Y-85149579D01*
X143579752Y-85059853D01*
X142659605Y-85980000D01*
X142300395Y-85980000D01*
X141380248Y-85059853D01*
X141120958Y-85149579D01*
X140985065Y-85430671D01*
X140906621Y-85732873D01*
X140888641Y-86044573D01*
X139585000Y-86044573D01*
X139585000Y-85823891D01*
X139524089Y-85517673D01*
X139404609Y-85229221D01*
X139231150Y-84969621D01*
X139010379Y-84748850D01*
X138878324Y-84660613D01*
X138920147Y-84539752D01*
X138000000Y-83619605D01*
X137079853Y-84539752D01*
X137121676Y-84660613D01*
X136989621Y-84748850D01*
X136768850Y-84969621D01*
X136595391Y-85229221D01*
X136475911Y-85517673D01*
X136415000Y-85823891D01*
X100935000Y-85823891D01*
X100935000Y-83504573D01*
X136408641Y-83504573D01*
X136451816Y-83813791D01*
X136554487Y-84108644D01*
X136640958Y-84270421D01*
X136900248Y-84360147D01*
X137820395Y-83440000D01*
X138179605Y-83440000D01*
X139099752Y-84360147D01*
X139359042Y-84270421D01*
X139494935Y-83989329D01*
X139573379Y-83687127D01*
X139591359Y-83375427D01*
X139578579Y-83283891D01*
X140895000Y-83283891D01*
X140895000Y-83596109D01*
X140955911Y-83902327D01*
X141075391Y-84190779D01*
X141248850Y-84450379D01*
X141469621Y-84671150D01*
X141601676Y-84759387D01*
X141559853Y-84880248D01*
X142480000Y-85800395D01*
X143400147Y-84880248D01*
X143358324Y-84759387D01*
X143490379Y-84671150D01*
X143711150Y-84450379D01*
X143884609Y-84190779D01*
X144004089Y-83902327D01*
X144065000Y-83596109D01*
X144065000Y-83283891D01*
X144004089Y-82977673D01*
X143884609Y-82689221D01*
X143711150Y-82429621D01*
X143490379Y-82208850D01*
X143230779Y-82035391D01*
X142942327Y-81915911D01*
X142636109Y-81855000D01*
X142323891Y-81855000D01*
X142017673Y-81915911D01*
X141729221Y-82035391D01*
X141469621Y-82208850D01*
X141248850Y-82429621D01*
X141075391Y-82689221D01*
X140955911Y-82977673D01*
X140895000Y-83283891D01*
X139578579Y-83283891D01*
X139548184Y-83066209D01*
X139445513Y-82771356D01*
X139359042Y-82609579D01*
X139099752Y-82519853D01*
X138179605Y-83440000D01*
X137820395Y-83440000D01*
X136900248Y-82519853D01*
X136640958Y-82609579D01*
X136505065Y-82890671D01*
X136426621Y-83192873D01*
X136408641Y-83504573D01*
X100935000Y-83504573D01*
X100935000Y-82340248D01*
X137079853Y-82340248D01*
X138000000Y-83260395D01*
X138920147Y-82340248D01*
X138830421Y-82080958D01*
X138549329Y-81945065D01*
X138247127Y-81866621D01*
X137935427Y-81848641D01*
X137626209Y-81891816D01*
X137331356Y-81994487D01*
X137169579Y-82080958D01*
X137079853Y-82340248D01*
X100935000Y-82340248D01*
X100935000Y-81685000D01*
X154065000Y-81685000D01*
X154065001Y-109815000D01*
G37*
%TD.AperFunction*%
D15*
X101688850Y-50989621D02*
X101515391Y-51249221D01*
X101395911Y-51537673D01*
X101335000Y-51843891D01*
X101335000Y-52156109D01*
X101395911Y-52462327D01*
X101515391Y-52750779D01*
X101688850Y-53010379D01*
X101909621Y-53231150D01*
X102169221Y-53404609D01*
X102457673Y-53524089D01*
X102763891Y-53585000D01*
X103076109Y-53585000D01*
X103382327Y-53524089D01*
X103670779Y-53404609D01*
X103930379Y-53231150D01*
X104061777Y-53099752D01*
X104539853Y-53099752D01*
X104629579Y-53359042D01*
X104910671Y-53494935D01*
X105212873Y-53573379D01*
X105524573Y-53591359D01*
X105833791Y-53548184D01*
X106128644Y-53445513D01*
X106290421Y-53359042D01*
X106380147Y-53099752D01*
X105460000Y-52179605D01*
X104539853Y-53099752D01*
X104061777Y-53099752D01*
X104151150Y-53010379D01*
X104239387Y-52878324D01*
X104360248Y-52920147D01*
X105280395Y-52000000D01*
X105266253Y-51985858D01*
X105445858Y-51806253D01*
X105460000Y-51820395D01*
X105474143Y-51806253D01*
X105653748Y-51985858D01*
X105639605Y-52000000D01*
X106559752Y-52920147D01*
X106680613Y-52878324D01*
X106768850Y-53010379D01*
X106989621Y-53231150D01*
X107249221Y-53404609D01*
X107537673Y-53524089D01*
X107843891Y-53585000D01*
X108156109Y-53585000D01*
X108462327Y-53524089D01*
X108478107Y-53517553D01*
X115954746Y-60994193D01*
X115977762Y-61022238D01*
X116089680Y-61114087D01*
X116217367Y-61182337D01*
X116355915Y-61224365D01*
X116463895Y-61235000D01*
X116463904Y-61235000D01*
X116499999Y-61238555D01*
X116536094Y-61235000D01*
X126945554Y-61235000D01*
X128265000Y-62554447D01*
X128265001Y-67667048D01*
X128171414Y-67807111D01*
X128100932Y-67977271D01*
X128065000Y-68157911D01*
X128065000Y-68342089D01*
X128100932Y-68522729D01*
X128171414Y-68692889D01*
X128273738Y-68846028D01*
X128403972Y-68976262D01*
X128557111Y-69078586D01*
X128727271Y-69149068D01*
X128907911Y-69185000D01*
X129092089Y-69185000D01*
X129272729Y-69149068D01*
X129334172Y-69123618D01*
X131704746Y-71494193D01*
X131727762Y-71522238D01*
X131839680Y-71614087D01*
X131967367Y-71682337D01*
X132105915Y-71724365D01*
X132250000Y-71738556D01*
X132286105Y-71735000D01*
X133667049Y-71735000D01*
X133807111Y-71828586D01*
X133977271Y-71899068D01*
X134157911Y-71935000D01*
X134342089Y-71935000D01*
X134522729Y-71899068D01*
X134692889Y-71828586D01*
X134846028Y-71726262D01*
X134975000Y-71597290D01*
X134975001Y-75588855D01*
X134959221Y-75595391D01*
X134699621Y-75768850D01*
X134478850Y-75989621D01*
X134305391Y-76249221D01*
X134185911Y-76537673D01*
X134125000Y-76843891D01*
X134125000Y-77156109D01*
X134185911Y-77462327D01*
X134305391Y-77750779D01*
X134478850Y-78010379D01*
X134699621Y-78231150D01*
X134959221Y-78404609D01*
X135247673Y-78524089D01*
X135553891Y-78585000D01*
X135866109Y-78585000D01*
X136172327Y-78524089D01*
X136460779Y-78404609D01*
X136720379Y-78231150D01*
X136941150Y-78010379D01*
X136980000Y-77952236D01*
X137018850Y-78010379D01*
X137239621Y-78231150D01*
X137499221Y-78404609D01*
X137787673Y-78524089D01*
X138093891Y-78585000D01*
X138406109Y-78585000D01*
X138712327Y-78524089D01*
X139000779Y-78404609D01*
X139260379Y-78231150D01*
X139481150Y-78010379D01*
X139520000Y-77952236D01*
X139558850Y-78010379D01*
X139779621Y-78231150D01*
X140039221Y-78404609D01*
X140327673Y-78524089D01*
X140633891Y-78585000D01*
X140946109Y-78585000D01*
X141252327Y-78524089D01*
X141540779Y-78404609D01*
X141800379Y-78231150D01*
X142021150Y-78010379D01*
X142194609Y-77750779D01*
X142314089Y-77462327D01*
X142375000Y-77156109D01*
X142375000Y-77104573D01*
X151408641Y-77104573D01*
X151451816Y-77413791D01*
X151554487Y-77708644D01*
X151640958Y-77870421D01*
X151900248Y-77960147D01*
X152820395Y-77040000D01*
X151900248Y-76119853D01*
X151640958Y-76209579D01*
X151505065Y-76490671D01*
X151426621Y-76792873D01*
X151408641Y-77104573D01*
X142375000Y-77104573D01*
X142375000Y-76843891D01*
X142314089Y-76537673D01*
X142194609Y-76249221D01*
X142021150Y-75989621D01*
X141800379Y-75768850D01*
X141540779Y-75595391D01*
X141525000Y-75588855D01*
X141525000Y-69514446D01*
X144724447Y-66315000D01*
X146958855Y-66315000D01*
X146965391Y-66330779D01*
X147138850Y-66590379D01*
X147359621Y-66811150D01*
X147417764Y-66850000D01*
X147359621Y-66888850D01*
X147138850Y-67109621D01*
X146965391Y-67369221D01*
X146845911Y-67657673D01*
X146785000Y-67963891D01*
X146785000Y-68276109D01*
X146845911Y-68582327D01*
X146965391Y-68870779D01*
X147138850Y-69130379D01*
X147359621Y-69351150D01*
X147619221Y-69524609D01*
X147907673Y-69644089D01*
X148213891Y-69705000D01*
X148526109Y-69705000D01*
X148832327Y-69644089D01*
X149120779Y-69524609D01*
X149380379Y-69351150D01*
X149601150Y-69130379D01*
X149774609Y-68870779D01*
X149894089Y-68582327D01*
X149955000Y-68276109D01*
X149955000Y-67963891D01*
X149894089Y-67657673D01*
X149774609Y-67369221D01*
X149601150Y-67109621D01*
X149380379Y-66888850D01*
X149322236Y-66850000D01*
X149380379Y-66811150D01*
X149601150Y-66590379D01*
X149774609Y-66330779D01*
X149894089Y-66042327D01*
X149955000Y-65736109D01*
X149955000Y-65423891D01*
X149894089Y-65117673D01*
X149774609Y-64829221D01*
X149601150Y-64569621D01*
X149380379Y-64348850D01*
X149322236Y-64310000D01*
X149380379Y-64271150D01*
X149601150Y-64050379D01*
X149774609Y-63790779D01*
X149894089Y-63502327D01*
X149955000Y-63196109D01*
X149955000Y-62883891D01*
X149894089Y-62577673D01*
X149774609Y-62289221D01*
X149601150Y-62029621D01*
X149380379Y-61808850D01*
X149322236Y-61770000D01*
X149380379Y-61731150D01*
X149601150Y-61510379D01*
X149774609Y-61250779D01*
X149894089Y-60962327D01*
X149955000Y-60656109D01*
X149955000Y-60343891D01*
X149894089Y-60037673D01*
X149774609Y-59749221D01*
X149601150Y-59489621D01*
X149380379Y-59268850D01*
X149322236Y-59230000D01*
X149380379Y-59191150D01*
X149601150Y-58970379D01*
X149774609Y-58710779D01*
X149894089Y-58422327D01*
X149955000Y-58116109D01*
X149955000Y-57803891D01*
X149894089Y-57497673D01*
X149774609Y-57209221D01*
X149601150Y-56949621D01*
X149380379Y-56728850D01*
X149248324Y-56640613D01*
X149290147Y-56519752D01*
X148370000Y-55599605D01*
X147449853Y-56519752D01*
X147491676Y-56640613D01*
X147359621Y-56728850D01*
X147138850Y-56949621D01*
X146965391Y-57209221D01*
X146845911Y-57497673D01*
X146785000Y-57803891D01*
X146785000Y-58116109D01*
X146845911Y-58422327D01*
X146965391Y-58710779D01*
X147138850Y-58970379D01*
X147359621Y-59191150D01*
X147417764Y-59230000D01*
X147359621Y-59268850D01*
X147138850Y-59489621D01*
X146965391Y-59749221D01*
X146958855Y-59765000D01*
X146536094Y-59765000D01*
X146499999Y-59761445D01*
X146463904Y-59765000D01*
X146463895Y-59765000D01*
X146355915Y-59775635D01*
X146217367Y-59817663D01*
X146089680Y-59885913D01*
X145977762Y-59977762D01*
X145954747Y-60005806D01*
X135215808Y-70744746D01*
X135187762Y-70767763D01*
X135163100Y-70797814D01*
X135149068Y-70727271D01*
X135078586Y-70557111D01*
X134976262Y-70403972D01*
X134846028Y-70273738D01*
X134692889Y-70171414D01*
X134522729Y-70100932D01*
X134342089Y-70065000D01*
X134157911Y-70065000D01*
X133977271Y-70100932D01*
X133807111Y-70171414D01*
X133667049Y-70265000D01*
X132554447Y-70265000D01*
X130485000Y-68195554D01*
X130485000Y-61286105D01*
X130488556Y-61250000D01*
X130474365Y-61105915D01*
X130455963Y-61045253D01*
X130432337Y-60967367D01*
X130364087Y-60839680D01*
X130317269Y-60782633D01*
X130295253Y-60755806D01*
X130295250Y-60755803D01*
X130272237Y-60727762D01*
X130244197Y-60704750D01*
X129045258Y-59505812D01*
X129022238Y-59477762D01*
X128910320Y-59385913D01*
X128782633Y-59317663D01*
X128644085Y-59275635D01*
X128536105Y-59265000D01*
X128500000Y-59261444D01*
X128463895Y-59265000D01*
X118844447Y-59265000D01*
X113164446Y-53585000D01*
X113236109Y-53585000D01*
X113542327Y-53524089D01*
X113830779Y-53404609D01*
X114090379Y-53231150D01*
X114311150Y-53010379D01*
X114350000Y-52952236D01*
X114388850Y-53010379D01*
X114609621Y-53231150D01*
X114869221Y-53404609D01*
X115157673Y-53524089D01*
X115463891Y-53585000D01*
X115776109Y-53585000D01*
X116082327Y-53524089D01*
X116370779Y-53404609D01*
X116630379Y-53231150D01*
X116851150Y-53010379D01*
X116890000Y-52952236D01*
X116928850Y-53010379D01*
X117149621Y-53231150D01*
X117409221Y-53404609D01*
X117697673Y-53524089D01*
X118003891Y-53585000D01*
X118316109Y-53585000D01*
X118622327Y-53524089D01*
X118910779Y-53404609D01*
X119170379Y-53231150D01*
X119391150Y-53010379D01*
X119430000Y-52952236D01*
X119468850Y-53010379D01*
X119689621Y-53231150D01*
X119949221Y-53404609D01*
X120237673Y-53524089D01*
X120543891Y-53585000D01*
X120856109Y-53585000D01*
X121162327Y-53524089D01*
X121450779Y-53404609D01*
X121710379Y-53231150D01*
X121931150Y-53010379D01*
X122052265Y-52829117D01*
X125765000Y-52829117D01*
X125765000Y-53170883D01*
X125831675Y-53506081D01*
X125962463Y-53821831D01*
X126152337Y-54105998D01*
X126394002Y-54347663D01*
X126678169Y-54537537D01*
X126993919Y-54668325D01*
X127329117Y-54735000D01*
X127670883Y-54735000D01*
X128006081Y-54668325D01*
X128321831Y-54537537D01*
X128605998Y-54347663D01*
X128847663Y-54105998D01*
X129037537Y-53821831D01*
X129168325Y-53506081D01*
X129235000Y-53170883D01*
X129235000Y-52829117D01*
X129214070Y-52723891D01*
X131545000Y-52723891D01*
X131545000Y-53036109D01*
X131605911Y-53342327D01*
X131725391Y-53630779D01*
X131898850Y-53890379D01*
X132119621Y-54111150D01*
X132177764Y-54150000D01*
X132119621Y-54188850D01*
X131898850Y-54409621D01*
X131725391Y-54669221D01*
X131605911Y-54957673D01*
X131545000Y-55263891D01*
X131545000Y-55576109D01*
X131605911Y-55882327D01*
X131725391Y-56170779D01*
X131898850Y-56430379D01*
X132119621Y-56651150D01*
X132177764Y-56690000D01*
X132119621Y-56728850D01*
X131898850Y-56949621D01*
X131725391Y-57209221D01*
X131605911Y-57497673D01*
X131545000Y-57803891D01*
X131545000Y-58116109D01*
X131605911Y-58422327D01*
X131725391Y-58710779D01*
X131898850Y-58970379D01*
X132119621Y-59191150D01*
X132177764Y-59230000D01*
X132119621Y-59268850D01*
X131898850Y-59489621D01*
X131725391Y-59749221D01*
X131605911Y-60037673D01*
X131545000Y-60343891D01*
X131545000Y-60656109D01*
X131605911Y-60962327D01*
X131725391Y-61250779D01*
X131898850Y-61510379D01*
X132119621Y-61731150D01*
X132177764Y-61770000D01*
X132119621Y-61808850D01*
X131898850Y-62029621D01*
X131725391Y-62289221D01*
X131605911Y-62577673D01*
X131545000Y-62883891D01*
X131545000Y-63196109D01*
X131605911Y-63502327D01*
X131725391Y-63790779D01*
X131898850Y-64050379D01*
X132119621Y-64271150D01*
X132177764Y-64310000D01*
X132119621Y-64348850D01*
X131898850Y-64569621D01*
X131725391Y-64829221D01*
X131605911Y-65117673D01*
X131545000Y-65423891D01*
X131545000Y-65736109D01*
X131605911Y-66042327D01*
X131725391Y-66330779D01*
X131898850Y-66590379D01*
X132119621Y-66811150D01*
X132177764Y-66850000D01*
X132119621Y-66888850D01*
X131898850Y-67109621D01*
X131725391Y-67369221D01*
X131605911Y-67657673D01*
X131545000Y-67963891D01*
X131545000Y-68276109D01*
X131605911Y-68582327D01*
X131725391Y-68870779D01*
X131898850Y-69130379D01*
X132119621Y-69351150D01*
X132379221Y-69524609D01*
X132667673Y-69644089D01*
X132973891Y-69705000D01*
X133286109Y-69705000D01*
X133592327Y-69644089D01*
X133880779Y-69524609D01*
X134140379Y-69351150D01*
X134361150Y-69130379D01*
X134534609Y-68870779D01*
X134654089Y-68582327D01*
X134715000Y-68276109D01*
X134715000Y-67963891D01*
X134654089Y-67657673D01*
X134534609Y-67369221D01*
X134361150Y-67109621D01*
X134140379Y-66888850D01*
X134082236Y-66850000D01*
X134140379Y-66811150D01*
X134361150Y-66590379D01*
X134534609Y-66330779D01*
X134654089Y-66042327D01*
X134715000Y-65736109D01*
X134715000Y-65423891D01*
X134654089Y-65117673D01*
X134534609Y-64829221D01*
X134361150Y-64569621D01*
X134140379Y-64348850D01*
X134082236Y-64310000D01*
X134140379Y-64271150D01*
X134361150Y-64050379D01*
X134534609Y-63790779D01*
X134654089Y-63502327D01*
X134715000Y-63196109D01*
X134715000Y-62883891D01*
X134654089Y-62577673D01*
X134534609Y-62289221D01*
X134361150Y-62029621D01*
X134140379Y-61808850D01*
X134082236Y-61770000D01*
X134140379Y-61731150D01*
X134361150Y-61510379D01*
X134534609Y-61250779D01*
X134654089Y-60962327D01*
X134715000Y-60656109D01*
X134715000Y-60343891D01*
X134654089Y-60037673D01*
X134534609Y-59749221D01*
X134361150Y-59489621D01*
X134140379Y-59268850D01*
X134082236Y-59230000D01*
X134140379Y-59191150D01*
X134361150Y-58970379D01*
X134534609Y-58710779D01*
X134654089Y-58422327D01*
X134715000Y-58116109D01*
X134715000Y-57803891D01*
X134654089Y-57497673D01*
X134534609Y-57209221D01*
X134361150Y-56949621D01*
X134140379Y-56728850D01*
X134082236Y-56690000D01*
X134140379Y-56651150D01*
X134361150Y-56430379D01*
X134534609Y-56170779D01*
X134654089Y-55882327D01*
X134715000Y-55576109D01*
X134715000Y-55484573D01*
X146778641Y-55484573D01*
X146821816Y-55793791D01*
X146924487Y-56088644D01*
X147010958Y-56250421D01*
X147270248Y-56340147D01*
X148190395Y-55420000D01*
X148549605Y-55420000D01*
X149469752Y-56340147D01*
X149729042Y-56250421D01*
X149864935Y-55969329D01*
X149943379Y-55667127D01*
X149961359Y-55355427D01*
X149918184Y-55046209D01*
X149815513Y-54751356D01*
X149729042Y-54589579D01*
X149469752Y-54499853D01*
X148549605Y-55420000D01*
X148190395Y-55420000D01*
X147270248Y-54499853D01*
X147010958Y-54589579D01*
X146875065Y-54870671D01*
X146796621Y-55172873D01*
X146778641Y-55484573D01*
X134715000Y-55484573D01*
X134715000Y-55263891D01*
X134654089Y-54957673D01*
X134534609Y-54669221D01*
X134361150Y-54409621D01*
X134140379Y-54188850D01*
X134082236Y-54150000D01*
X134140379Y-54111150D01*
X134361150Y-53890379D01*
X134534609Y-53630779D01*
X134654089Y-53342327D01*
X134715000Y-53036109D01*
X134715000Y-52723891D01*
X146785000Y-52723891D01*
X146785000Y-53036109D01*
X146845911Y-53342327D01*
X146965391Y-53630779D01*
X147138850Y-53890379D01*
X147359621Y-54111150D01*
X147491676Y-54199387D01*
X147449853Y-54320248D01*
X148370000Y-55240395D01*
X149290147Y-54320248D01*
X149248324Y-54199387D01*
X149380379Y-54111150D01*
X149601150Y-53890379D01*
X149774609Y-53630779D01*
X149894089Y-53342327D01*
X149955000Y-53036109D01*
X149955000Y-52723891D01*
X149894089Y-52417673D01*
X149774609Y-52129221D01*
X149601150Y-51869621D01*
X149380379Y-51648850D01*
X149120779Y-51475391D01*
X148832327Y-51355911D01*
X148526109Y-51295000D01*
X148213891Y-51295000D01*
X147907673Y-51355911D01*
X147619221Y-51475391D01*
X147359621Y-51648850D01*
X147138850Y-51869621D01*
X146965391Y-52129221D01*
X146845911Y-52417673D01*
X146785000Y-52723891D01*
X134715000Y-52723891D01*
X134654089Y-52417673D01*
X134534609Y-52129221D01*
X134361150Y-51869621D01*
X134140379Y-51648850D01*
X133880779Y-51475391D01*
X133592327Y-51355911D01*
X133286109Y-51295000D01*
X132973891Y-51295000D01*
X132667673Y-51355911D01*
X132379221Y-51475391D01*
X132119621Y-51648850D01*
X131898850Y-51869621D01*
X131725391Y-52129221D01*
X131605911Y-52417673D01*
X131545000Y-52723891D01*
X129214070Y-52723891D01*
X129168325Y-52493919D01*
X129037537Y-52178169D01*
X128847663Y-51894002D01*
X128605998Y-51652337D01*
X128321831Y-51462463D01*
X128006081Y-51331675D01*
X127670883Y-51265000D01*
X127329117Y-51265000D01*
X126993919Y-51331675D01*
X126678169Y-51462463D01*
X126394002Y-51652337D01*
X126152337Y-51894002D01*
X125962463Y-52178169D01*
X125831675Y-52493919D01*
X125765000Y-52829117D01*
X122052265Y-52829117D01*
X122104609Y-52750779D01*
X122224089Y-52462327D01*
X122285000Y-52156109D01*
X122285000Y-51843891D01*
X122224089Y-51537673D01*
X122104609Y-51249221D01*
X121931150Y-50989621D01*
X121876529Y-50935000D01*
X154065001Y-50935000D01*
X154065000Y-73323471D01*
X154010379Y-73268850D01*
X153750779Y-73095391D01*
X153462327Y-72975911D01*
X153156109Y-72915000D01*
X152843891Y-72915000D01*
X152537673Y-72975911D01*
X152249221Y-73095391D01*
X151989621Y-73268850D01*
X151768850Y-73489621D01*
X151595391Y-73749221D01*
X151475911Y-74037673D01*
X151415000Y-74343891D01*
X151415000Y-74656109D01*
X151475911Y-74962327D01*
X151595391Y-75250779D01*
X151768850Y-75510379D01*
X151989621Y-75731150D01*
X152121676Y-75819387D01*
X152079853Y-75940248D01*
X153000000Y-76860395D01*
X153014143Y-76846253D01*
X153193748Y-77025858D01*
X153179605Y-77040000D01*
X153193748Y-77054143D01*
X153014143Y-77233748D01*
X153000000Y-77219605D01*
X152079853Y-78139752D01*
X152169579Y-78399042D01*
X152450671Y-78534935D01*
X152752873Y-78613379D01*
X153064573Y-78631359D01*
X153373791Y-78588184D01*
X153668644Y-78485513D01*
X153830421Y-78399042D01*
X153920146Y-78139754D01*
X154035949Y-78255557D01*
X154065000Y-78226506D01*
X154065000Y-79065000D01*
X100935000Y-79065000D01*
X100935000Y-76829117D01*
X125765000Y-76829117D01*
X125765000Y-77170883D01*
X125831675Y-77506081D01*
X125962463Y-77821831D01*
X126152337Y-78105998D01*
X126394002Y-78347663D01*
X126678169Y-78537537D01*
X126993919Y-78668325D01*
X127329117Y-78735000D01*
X127670883Y-78735000D01*
X128006081Y-78668325D01*
X128321831Y-78537537D01*
X128605998Y-78347663D01*
X128847663Y-78105998D01*
X129037537Y-77821831D01*
X129168325Y-77506081D01*
X129235000Y-77170883D01*
X129235000Y-76829117D01*
X129168325Y-76493919D01*
X129037537Y-76178169D01*
X128847663Y-75894002D01*
X128605998Y-75652337D01*
X128321831Y-75462463D01*
X128006081Y-75331675D01*
X127670883Y-75265000D01*
X127329117Y-75265000D01*
X126993919Y-75331675D01*
X126678169Y-75462463D01*
X126394002Y-75652337D01*
X126152337Y-75894002D01*
X125962463Y-76178169D01*
X125831675Y-76493919D01*
X125765000Y-76829117D01*
X100935000Y-76829117D01*
X100935000Y-66893891D01*
X111435000Y-66893891D01*
X111435000Y-67206109D01*
X111495911Y-67512327D01*
X111615391Y-67800779D01*
X111788850Y-68060379D01*
X112009621Y-68281150D01*
X112269221Y-68454609D01*
X112557673Y-68574089D01*
X112863891Y-68635000D01*
X113176109Y-68635000D01*
X113482327Y-68574089D01*
X113770779Y-68454609D01*
X114030379Y-68281150D01*
X114161777Y-68149752D01*
X114639853Y-68149752D01*
X114729579Y-68409042D01*
X115010671Y-68544935D01*
X115312873Y-68623379D01*
X115624573Y-68641359D01*
X115933791Y-68598184D01*
X116228644Y-68495513D01*
X116390421Y-68409042D01*
X116480147Y-68149752D01*
X115560000Y-67229605D01*
X114639853Y-68149752D01*
X114161777Y-68149752D01*
X114251150Y-68060379D01*
X114339387Y-67928324D01*
X114460248Y-67970147D01*
X115380395Y-67050000D01*
X115739605Y-67050000D01*
X116659752Y-67970147D01*
X116780613Y-67928324D01*
X116868850Y-68060379D01*
X117089621Y-68281150D01*
X117349221Y-68454609D01*
X117637673Y-68574089D01*
X117943891Y-68635000D01*
X118256109Y-68635000D01*
X118562327Y-68574089D01*
X118850779Y-68454609D01*
X119110379Y-68281150D01*
X119331150Y-68060379D01*
X119370000Y-68002236D01*
X119408850Y-68060379D01*
X119629621Y-68281150D01*
X119889221Y-68454609D01*
X120177673Y-68574089D01*
X120483891Y-68635000D01*
X120796109Y-68635000D01*
X121102327Y-68574089D01*
X121390779Y-68454609D01*
X121650379Y-68281150D01*
X121871150Y-68060379D01*
X122044609Y-67800779D01*
X122164089Y-67512327D01*
X122225000Y-67206109D01*
X122225000Y-66893891D01*
X122164089Y-66587673D01*
X122044609Y-66299221D01*
X121871150Y-66039621D01*
X121650379Y-65818850D01*
X121390779Y-65645391D01*
X121102327Y-65525911D01*
X120796109Y-65465000D01*
X120483891Y-65465000D01*
X120177673Y-65525911D01*
X119889221Y-65645391D01*
X119629621Y-65818850D01*
X119408850Y-66039621D01*
X119370000Y-66097764D01*
X119331150Y-66039621D01*
X119110379Y-65818850D01*
X118850779Y-65645391D01*
X118562327Y-65525911D01*
X118256109Y-65465000D01*
X117943891Y-65465000D01*
X117637673Y-65525911D01*
X117349221Y-65645391D01*
X117089621Y-65818850D01*
X116868850Y-66039621D01*
X116780613Y-66171676D01*
X116659752Y-66129853D01*
X115739605Y-67050000D01*
X115380395Y-67050000D01*
X114460248Y-66129853D01*
X114339387Y-66171676D01*
X114251150Y-66039621D01*
X114161777Y-65950248D01*
X114639853Y-65950248D01*
X115560000Y-66870395D01*
X116480147Y-65950248D01*
X116390421Y-65690958D01*
X116109329Y-65555065D01*
X115807127Y-65476621D01*
X115495427Y-65458641D01*
X115186209Y-65501816D01*
X114891356Y-65604487D01*
X114729579Y-65690958D01*
X114639853Y-65950248D01*
X114161777Y-65950248D01*
X114030379Y-65818850D01*
X113770779Y-65645391D01*
X113482327Y-65525911D01*
X113176109Y-65465000D01*
X112863891Y-65465000D01*
X112557673Y-65525911D01*
X112269221Y-65645391D01*
X112009621Y-65818850D01*
X111788850Y-66039621D01*
X111615391Y-66299221D01*
X111495911Y-66587673D01*
X111435000Y-66893891D01*
X100935000Y-66893891D01*
X100935000Y-64829117D01*
X101265000Y-64829117D01*
X101265000Y-65170883D01*
X101331675Y-65506081D01*
X101462463Y-65821831D01*
X101652337Y-66105998D01*
X101894002Y-66347663D01*
X102178169Y-66537537D01*
X102493919Y-66668325D01*
X102829117Y-66735000D01*
X103170883Y-66735000D01*
X103506081Y-66668325D01*
X103821831Y-66537537D01*
X104105998Y-66347663D01*
X104347663Y-66105998D01*
X104537537Y-65821831D01*
X104668325Y-65506081D01*
X104735000Y-65170883D01*
X104735000Y-64829117D01*
X104668325Y-64493919D01*
X104537537Y-64178169D01*
X104347663Y-63894002D01*
X104105998Y-63652337D01*
X103821831Y-63462463D01*
X103506081Y-63331675D01*
X103170883Y-63265000D01*
X102829117Y-63265000D01*
X102493919Y-63331675D01*
X102178169Y-63462463D01*
X101894002Y-63652337D01*
X101652337Y-63894002D01*
X101462463Y-64178169D01*
X101331675Y-64493919D01*
X101265000Y-64829117D01*
X100935000Y-64829117D01*
X100935000Y-62793891D01*
X111435000Y-62793891D01*
X111435000Y-63106109D01*
X111495911Y-63412327D01*
X111615391Y-63700779D01*
X111788850Y-63960379D01*
X112009621Y-64181150D01*
X112269221Y-64354609D01*
X112557673Y-64474089D01*
X112863891Y-64535000D01*
X113176109Y-64535000D01*
X113482327Y-64474089D01*
X113770779Y-64354609D01*
X114030379Y-64181150D01*
X114161777Y-64049752D01*
X114639853Y-64049752D01*
X114729579Y-64309042D01*
X115010671Y-64444935D01*
X115312873Y-64523379D01*
X115624573Y-64541359D01*
X115933791Y-64498184D01*
X116228644Y-64395513D01*
X116390421Y-64309042D01*
X116480147Y-64049752D01*
X115560000Y-63129605D01*
X114639853Y-64049752D01*
X114161777Y-64049752D01*
X114251150Y-63960379D01*
X114339387Y-63828324D01*
X114460248Y-63870147D01*
X115380395Y-62950000D01*
X115739605Y-62950000D01*
X116659752Y-63870147D01*
X116780613Y-63828324D01*
X116868850Y-63960379D01*
X117089621Y-64181150D01*
X117349221Y-64354609D01*
X117637673Y-64474089D01*
X117943891Y-64535000D01*
X118256109Y-64535000D01*
X118562327Y-64474089D01*
X118850779Y-64354609D01*
X119110379Y-64181150D01*
X119331150Y-63960379D01*
X119370000Y-63902236D01*
X119408850Y-63960379D01*
X119629621Y-64181150D01*
X119889221Y-64354609D01*
X120177673Y-64474089D01*
X120483891Y-64535000D01*
X120796109Y-64535000D01*
X121102327Y-64474089D01*
X121390779Y-64354609D01*
X121650379Y-64181150D01*
X121871150Y-63960379D01*
X122044609Y-63700779D01*
X122164089Y-63412327D01*
X122225000Y-63106109D01*
X122225000Y-62793891D01*
X122164089Y-62487673D01*
X122044609Y-62199221D01*
X121871150Y-61939621D01*
X121650379Y-61718850D01*
X121390779Y-61545391D01*
X121102327Y-61425911D01*
X120796109Y-61365000D01*
X120483891Y-61365000D01*
X120177673Y-61425911D01*
X119889221Y-61545391D01*
X119629621Y-61718850D01*
X119408850Y-61939621D01*
X119370000Y-61997764D01*
X119331150Y-61939621D01*
X119110379Y-61718850D01*
X118850779Y-61545391D01*
X118562327Y-61425911D01*
X118256109Y-61365000D01*
X117943891Y-61365000D01*
X117637673Y-61425911D01*
X117349221Y-61545391D01*
X117089621Y-61718850D01*
X116868850Y-61939621D01*
X116780613Y-62071676D01*
X116659752Y-62029853D01*
X115739605Y-62950000D01*
X115380395Y-62950000D01*
X114460248Y-62029853D01*
X114339387Y-62071676D01*
X114251150Y-61939621D01*
X114161777Y-61850248D01*
X114639853Y-61850248D01*
X115560000Y-62770395D01*
X116480147Y-61850248D01*
X116390421Y-61590958D01*
X116109329Y-61455065D01*
X115807127Y-61376621D01*
X115495427Y-61358641D01*
X115186209Y-61401816D01*
X114891356Y-61504487D01*
X114729579Y-61590958D01*
X114639853Y-61850248D01*
X114161777Y-61850248D01*
X114030379Y-61718850D01*
X113770779Y-61545391D01*
X113482327Y-61425911D01*
X113176109Y-61365000D01*
X112863891Y-61365000D01*
X112557673Y-61425911D01*
X112269221Y-61545391D01*
X112009621Y-61718850D01*
X111788850Y-61939621D01*
X111615391Y-62199221D01*
X111495911Y-62487673D01*
X111435000Y-62793891D01*
X100935000Y-62793891D01*
X100935000Y-50935000D01*
X101743471Y-50935000D01*
X101688850Y-50989621D01*
%TA.AperFunction,Conductor*%
D16*
G36*
X101688850Y-50989621D02*
G01*
X101515391Y-51249221D01*
X101395911Y-51537673D01*
X101335000Y-51843891D01*
X101335000Y-52156109D01*
X101395911Y-52462327D01*
X101515391Y-52750779D01*
X101688850Y-53010379D01*
X101909621Y-53231150D01*
X102169221Y-53404609D01*
X102457673Y-53524089D01*
X102763891Y-53585000D01*
X103076109Y-53585000D01*
X103382327Y-53524089D01*
X103670779Y-53404609D01*
X103930379Y-53231150D01*
X104061777Y-53099752D01*
X104539853Y-53099752D01*
X104629579Y-53359042D01*
X104910671Y-53494935D01*
X105212873Y-53573379D01*
X105524573Y-53591359D01*
X105833791Y-53548184D01*
X106128644Y-53445513D01*
X106290421Y-53359042D01*
X106380147Y-53099752D01*
X105460000Y-52179605D01*
X104539853Y-53099752D01*
X104061777Y-53099752D01*
X104151150Y-53010379D01*
X104239387Y-52878324D01*
X104360248Y-52920147D01*
X105280395Y-52000000D01*
X105266253Y-51985858D01*
X105445858Y-51806253D01*
X105460000Y-51820395D01*
X105474143Y-51806253D01*
X105653748Y-51985858D01*
X105639605Y-52000000D01*
X106559752Y-52920147D01*
X106680613Y-52878324D01*
X106768850Y-53010379D01*
X106989621Y-53231150D01*
X107249221Y-53404609D01*
X107537673Y-53524089D01*
X107843891Y-53585000D01*
X108156109Y-53585000D01*
X108462327Y-53524089D01*
X108478107Y-53517553D01*
X115954746Y-60994193D01*
X115977762Y-61022238D01*
X116089680Y-61114087D01*
X116217367Y-61182337D01*
X116355915Y-61224365D01*
X116463895Y-61235000D01*
X116463904Y-61235000D01*
X116499999Y-61238555D01*
X116536094Y-61235000D01*
X126945554Y-61235000D01*
X128265000Y-62554447D01*
X128265001Y-67667048D01*
X128171414Y-67807111D01*
X128100932Y-67977271D01*
X128065000Y-68157911D01*
X128065000Y-68342089D01*
X128100932Y-68522729D01*
X128171414Y-68692889D01*
X128273738Y-68846028D01*
X128403972Y-68976262D01*
X128557111Y-69078586D01*
X128727271Y-69149068D01*
X128907911Y-69185000D01*
X129092089Y-69185000D01*
X129272729Y-69149068D01*
X129334172Y-69123618D01*
X131704746Y-71494193D01*
X131727762Y-71522238D01*
X131839680Y-71614087D01*
X131967367Y-71682337D01*
X132105915Y-71724365D01*
X132250000Y-71738556D01*
X132286105Y-71735000D01*
X133667049Y-71735000D01*
X133807111Y-71828586D01*
X133977271Y-71899068D01*
X134157911Y-71935000D01*
X134342089Y-71935000D01*
X134522729Y-71899068D01*
X134692889Y-71828586D01*
X134846028Y-71726262D01*
X134975000Y-71597290D01*
X134975001Y-75588855D01*
X134959221Y-75595391D01*
X134699621Y-75768850D01*
X134478850Y-75989621D01*
X134305391Y-76249221D01*
X134185911Y-76537673D01*
X134125000Y-76843891D01*
X134125000Y-77156109D01*
X134185911Y-77462327D01*
X134305391Y-77750779D01*
X134478850Y-78010379D01*
X134699621Y-78231150D01*
X134959221Y-78404609D01*
X135247673Y-78524089D01*
X135553891Y-78585000D01*
X135866109Y-78585000D01*
X136172327Y-78524089D01*
X136460779Y-78404609D01*
X136720379Y-78231150D01*
X136941150Y-78010379D01*
X136980000Y-77952236D01*
X137018850Y-78010379D01*
X137239621Y-78231150D01*
X137499221Y-78404609D01*
X137787673Y-78524089D01*
X138093891Y-78585000D01*
X138406109Y-78585000D01*
X138712327Y-78524089D01*
X139000779Y-78404609D01*
X139260379Y-78231150D01*
X139481150Y-78010379D01*
X139520000Y-77952236D01*
X139558850Y-78010379D01*
X139779621Y-78231150D01*
X140039221Y-78404609D01*
X140327673Y-78524089D01*
X140633891Y-78585000D01*
X140946109Y-78585000D01*
X141252327Y-78524089D01*
X141540779Y-78404609D01*
X141800379Y-78231150D01*
X142021150Y-78010379D01*
X142194609Y-77750779D01*
X142314089Y-77462327D01*
X142375000Y-77156109D01*
X142375000Y-77104573D01*
X151408641Y-77104573D01*
X151451816Y-77413791D01*
X151554487Y-77708644D01*
X151640958Y-77870421D01*
X151900248Y-77960147D01*
X152820395Y-77040000D01*
X151900248Y-76119853D01*
X151640958Y-76209579D01*
X151505065Y-76490671D01*
X151426621Y-76792873D01*
X151408641Y-77104573D01*
X142375000Y-77104573D01*
X142375000Y-76843891D01*
X142314089Y-76537673D01*
X142194609Y-76249221D01*
X142021150Y-75989621D01*
X141800379Y-75768850D01*
X141540779Y-75595391D01*
X141525000Y-75588855D01*
X141525000Y-69514446D01*
X144724447Y-66315000D01*
X146958855Y-66315000D01*
X146965391Y-66330779D01*
X147138850Y-66590379D01*
X147359621Y-66811150D01*
X147417764Y-66850000D01*
X147359621Y-66888850D01*
X147138850Y-67109621D01*
X146965391Y-67369221D01*
X146845911Y-67657673D01*
X146785000Y-67963891D01*
X146785000Y-68276109D01*
X146845911Y-68582327D01*
X146965391Y-68870779D01*
X147138850Y-69130379D01*
X147359621Y-69351150D01*
X147619221Y-69524609D01*
X147907673Y-69644089D01*
X148213891Y-69705000D01*
X148526109Y-69705000D01*
X148832327Y-69644089D01*
X149120779Y-69524609D01*
X149380379Y-69351150D01*
X149601150Y-69130379D01*
X149774609Y-68870779D01*
X149894089Y-68582327D01*
X149955000Y-68276109D01*
X149955000Y-67963891D01*
X149894089Y-67657673D01*
X149774609Y-67369221D01*
X149601150Y-67109621D01*
X149380379Y-66888850D01*
X149322236Y-66850000D01*
X149380379Y-66811150D01*
X149601150Y-66590379D01*
X149774609Y-66330779D01*
X149894089Y-66042327D01*
X149955000Y-65736109D01*
X149955000Y-65423891D01*
X149894089Y-65117673D01*
X149774609Y-64829221D01*
X149601150Y-64569621D01*
X149380379Y-64348850D01*
X149322236Y-64310000D01*
X149380379Y-64271150D01*
X149601150Y-64050379D01*
X149774609Y-63790779D01*
X149894089Y-63502327D01*
X149955000Y-63196109D01*
X149955000Y-62883891D01*
X149894089Y-62577673D01*
X149774609Y-62289221D01*
X149601150Y-62029621D01*
X149380379Y-61808850D01*
X149322236Y-61770000D01*
X149380379Y-61731150D01*
X149601150Y-61510379D01*
X149774609Y-61250779D01*
X149894089Y-60962327D01*
X149955000Y-60656109D01*
X149955000Y-60343891D01*
X149894089Y-60037673D01*
X149774609Y-59749221D01*
X149601150Y-59489621D01*
X149380379Y-59268850D01*
X149322236Y-59230000D01*
X149380379Y-59191150D01*
X149601150Y-58970379D01*
X149774609Y-58710779D01*
X149894089Y-58422327D01*
X149955000Y-58116109D01*
X149955000Y-57803891D01*
X149894089Y-57497673D01*
X149774609Y-57209221D01*
X149601150Y-56949621D01*
X149380379Y-56728850D01*
X149248324Y-56640613D01*
X149290147Y-56519752D01*
X148370000Y-55599605D01*
X147449853Y-56519752D01*
X147491676Y-56640613D01*
X147359621Y-56728850D01*
X147138850Y-56949621D01*
X146965391Y-57209221D01*
X146845911Y-57497673D01*
X146785000Y-57803891D01*
X146785000Y-58116109D01*
X146845911Y-58422327D01*
X146965391Y-58710779D01*
X147138850Y-58970379D01*
X147359621Y-59191150D01*
X147417764Y-59230000D01*
X147359621Y-59268850D01*
X147138850Y-59489621D01*
X146965391Y-59749221D01*
X146958855Y-59765000D01*
X146536094Y-59765000D01*
X146499999Y-59761445D01*
X146463904Y-59765000D01*
X146463895Y-59765000D01*
X146355915Y-59775635D01*
X146217367Y-59817663D01*
X146089680Y-59885913D01*
X145977762Y-59977762D01*
X145954747Y-60005806D01*
X135215808Y-70744746D01*
X135187762Y-70767763D01*
X135163100Y-70797814D01*
X135149068Y-70727271D01*
X135078586Y-70557111D01*
X134976262Y-70403972D01*
X134846028Y-70273738D01*
X134692889Y-70171414D01*
X134522729Y-70100932D01*
X134342089Y-70065000D01*
X134157911Y-70065000D01*
X133977271Y-70100932D01*
X133807111Y-70171414D01*
X133667049Y-70265000D01*
X132554447Y-70265000D01*
X130485000Y-68195554D01*
X130485000Y-61286105D01*
X130488556Y-61250000D01*
X130474365Y-61105915D01*
X130455963Y-61045253D01*
X130432337Y-60967367D01*
X130364087Y-60839680D01*
X130317269Y-60782633D01*
X130295253Y-60755806D01*
X130295250Y-60755803D01*
X130272237Y-60727762D01*
X130244197Y-60704750D01*
X129045258Y-59505812D01*
X129022238Y-59477762D01*
X128910320Y-59385913D01*
X128782633Y-59317663D01*
X128644085Y-59275635D01*
X128536105Y-59265000D01*
X128500000Y-59261444D01*
X128463895Y-59265000D01*
X118844447Y-59265000D01*
X113164446Y-53585000D01*
X113236109Y-53585000D01*
X113542327Y-53524089D01*
X113830779Y-53404609D01*
X114090379Y-53231150D01*
X114311150Y-53010379D01*
X114350000Y-52952236D01*
X114388850Y-53010379D01*
X114609621Y-53231150D01*
X114869221Y-53404609D01*
X115157673Y-53524089D01*
X115463891Y-53585000D01*
X115776109Y-53585000D01*
X116082327Y-53524089D01*
X116370779Y-53404609D01*
X116630379Y-53231150D01*
X116851150Y-53010379D01*
X116890000Y-52952236D01*
X116928850Y-53010379D01*
X117149621Y-53231150D01*
X117409221Y-53404609D01*
X117697673Y-53524089D01*
X118003891Y-53585000D01*
X118316109Y-53585000D01*
X118622327Y-53524089D01*
X118910779Y-53404609D01*
X119170379Y-53231150D01*
X119391150Y-53010379D01*
X119430000Y-52952236D01*
X119468850Y-53010379D01*
X119689621Y-53231150D01*
X119949221Y-53404609D01*
X120237673Y-53524089D01*
X120543891Y-53585000D01*
X120856109Y-53585000D01*
X121162327Y-53524089D01*
X121450779Y-53404609D01*
X121710379Y-53231150D01*
X121931150Y-53010379D01*
X122052265Y-52829117D01*
X125765000Y-52829117D01*
X125765000Y-53170883D01*
X125831675Y-53506081D01*
X125962463Y-53821831D01*
X126152337Y-54105998D01*
X126394002Y-54347663D01*
X126678169Y-54537537D01*
X126993919Y-54668325D01*
X127329117Y-54735000D01*
X127670883Y-54735000D01*
X128006081Y-54668325D01*
X128321831Y-54537537D01*
X128605998Y-54347663D01*
X128847663Y-54105998D01*
X129037537Y-53821831D01*
X129168325Y-53506081D01*
X129235000Y-53170883D01*
X129235000Y-52829117D01*
X129214070Y-52723891D01*
X131545000Y-52723891D01*
X131545000Y-53036109D01*
X131605911Y-53342327D01*
X131725391Y-53630779D01*
X131898850Y-53890379D01*
X132119621Y-54111150D01*
X132177764Y-54150000D01*
X132119621Y-54188850D01*
X131898850Y-54409621D01*
X131725391Y-54669221D01*
X131605911Y-54957673D01*
X131545000Y-55263891D01*
X131545000Y-55576109D01*
X131605911Y-55882327D01*
X131725391Y-56170779D01*
X131898850Y-56430379D01*
X132119621Y-56651150D01*
X132177764Y-56690000D01*
X132119621Y-56728850D01*
X131898850Y-56949621D01*
X131725391Y-57209221D01*
X131605911Y-57497673D01*
X131545000Y-57803891D01*
X131545000Y-58116109D01*
X131605911Y-58422327D01*
X131725391Y-58710779D01*
X131898850Y-58970379D01*
X132119621Y-59191150D01*
X132177764Y-59230000D01*
X132119621Y-59268850D01*
X131898850Y-59489621D01*
X131725391Y-59749221D01*
X131605911Y-60037673D01*
X131545000Y-60343891D01*
X131545000Y-60656109D01*
X131605911Y-60962327D01*
X131725391Y-61250779D01*
X131898850Y-61510379D01*
X132119621Y-61731150D01*
X132177764Y-61770000D01*
X132119621Y-61808850D01*
X131898850Y-62029621D01*
X131725391Y-62289221D01*
X131605911Y-62577673D01*
X131545000Y-62883891D01*
X131545000Y-63196109D01*
X131605911Y-63502327D01*
X131725391Y-63790779D01*
X131898850Y-64050379D01*
X132119621Y-64271150D01*
X132177764Y-64310000D01*
X132119621Y-64348850D01*
X131898850Y-64569621D01*
X131725391Y-64829221D01*
X131605911Y-65117673D01*
X131545000Y-65423891D01*
X131545000Y-65736109D01*
X131605911Y-66042327D01*
X131725391Y-66330779D01*
X131898850Y-66590379D01*
X132119621Y-66811150D01*
X132177764Y-66850000D01*
X132119621Y-66888850D01*
X131898850Y-67109621D01*
X131725391Y-67369221D01*
X131605911Y-67657673D01*
X131545000Y-67963891D01*
X131545000Y-68276109D01*
X131605911Y-68582327D01*
X131725391Y-68870779D01*
X131898850Y-69130379D01*
X132119621Y-69351150D01*
X132379221Y-69524609D01*
X132667673Y-69644089D01*
X132973891Y-69705000D01*
X133286109Y-69705000D01*
X133592327Y-69644089D01*
X133880779Y-69524609D01*
X134140379Y-69351150D01*
X134361150Y-69130379D01*
X134534609Y-68870779D01*
X134654089Y-68582327D01*
X134715000Y-68276109D01*
X134715000Y-67963891D01*
X134654089Y-67657673D01*
X134534609Y-67369221D01*
X134361150Y-67109621D01*
X134140379Y-66888850D01*
X134082236Y-66850000D01*
X134140379Y-66811150D01*
X134361150Y-66590379D01*
X134534609Y-66330779D01*
X134654089Y-66042327D01*
X134715000Y-65736109D01*
X134715000Y-65423891D01*
X134654089Y-65117673D01*
X134534609Y-64829221D01*
X134361150Y-64569621D01*
X134140379Y-64348850D01*
X134082236Y-64310000D01*
X134140379Y-64271150D01*
X134361150Y-64050379D01*
X134534609Y-63790779D01*
X134654089Y-63502327D01*
X134715000Y-63196109D01*
X134715000Y-62883891D01*
X134654089Y-62577673D01*
X134534609Y-62289221D01*
X134361150Y-62029621D01*
X134140379Y-61808850D01*
X134082236Y-61770000D01*
X134140379Y-61731150D01*
X134361150Y-61510379D01*
X134534609Y-61250779D01*
X134654089Y-60962327D01*
X134715000Y-60656109D01*
X134715000Y-60343891D01*
X134654089Y-60037673D01*
X134534609Y-59749221D01*
X134361150Y-59489621D01*
X134140379Y-59268850D01*
X134082236Y-59230000D01*
X134140379Y-59191150D01*
X134361150Y-58970379D01*
X134534609Y-58710779D01*
X134654089Y-58422327D01*
X134715000Y-58116109D01*
X134715000Y-57803891D01*
X134654089Y-57497673D01*
X134534609Y-57209221D01*
X134361150Y-56949621D01*
X134140379Y-56728850D01*
X134082236Y-56690000D01*
X134140379Y-56651150D01*
X134361150Y-56430379D01*
X134534609Y-56170779D01*
X134654089Y-55882327D01*
X134715000Y-55576109D01*
X134715000Y-55484573D01*
X146778641Y-55484573D01*
X146821816Y-55793791D01*
X146924487Y-56088644D01*
X147010958Y-56250421D01*
X147270248Y-56340147D01*
X148190395Y-55420000D01*
X148549605Y-55420000D01*
X149469752Y-56340147D01*
X149729042Y-56250421D01*
X149864935Y-55969329D01*
X149943379Y-55667127D01*
X149961359Y-55355427D01*
X149918184Y-55046209D01*
X149815513Y-54751356D01*
X149729042Y-54589579D01*
X149469752Y-54499853D01*
X148549605Y-55420000D01*
X148190395Y-55420000D01*
X147270248Y-54499853D01*
X147010958Y-54589579D01*
X146875065Y-54870671D01*
X146796621Y-55172873D01*
X146778641Y-55484573D01*
X134715000Y-55484573D01*
X134715000Y-55263891D01*
X134654089Y-54957673D01*
X134534609Y-54669221D01*
X134361150Y-54409621D01*
X134140379Y-54188850D01*
X134082236Y-54150000D01*
X134140379Y-54111150D01*
X134361150Y-53890379D01*
X134534609Y-53630779D01*
X134654089Y-53342327D01*
X134715000Y-53036109D01*
X134715000Y-52723891D01*
X146785000Y-52723891D01*
X146785000Y-53036109D01*
X146845911Y-53342327D01*
X146965391Y-53630779D01*
X147138850Y-53890379D01*
X147359621Y-54111150D01*
X147491676Y-54199387D01*
X147449853Y-54320248D01*
X148370000Y-55240395D01*
X149290147Y-54320248D01*
X149248324Y-54199387D01*
X149380379Y-54111150D01*
X149601150Y-53890379D01*
X149774609Y-53630779D01*
X149894089Y-53342327D01*
X149955000Y-53036109D01*
X149955000Y-52723891D01*
X149894089Y-52417673D01*
X149774609Y-52129221D01*
X149601150Y-51869621D01*
X149380379Y-51648850D01*
X149120779Y-51475391D01*
X148832327Y-51355911D01*
X148526109Y-51295000D01*
X148213891Y-51295000D01*
X147907673Y-51355911D01*
X147619221Y-51475391D01*
X147359621Y-51648850D01*
X147138850Y-51869621D01*
X146965391Y-52129221D01*
X146845911Y-52417673D01*
X146785000Y-52723891D01*
X134715000Y-52723891D01*
X134654089Y-52417673D01*
X134534609Y-52129221D01*
X134361150Y-51869621D01*
X134140379Y-51648850D01*
X133880779Y-51475391D01*
X133592327Y-51355911D01*
X133286109Y-51295000D01*
X132973891Y-51295000D01*
X132667673Y-51355911D01*
X132379221Y-51475391D01*
X132119621Y-51648850D01*
X131898850Y-51869621D01*
X131725391Y-52129221D01*
X131605911Y-52417673D01*
X131545000Y-52723891D01*
X129214070Y-52723891D01*
X129168325Y-52493919D01*
X129037537Y-52178169D01*
X128847663Y-51894002D01*
X128605998Y-51652337D01*
X128321831Y-51462463D01*
X128006081Y-51331675D01*
X127670883Y-51265000D01*
X127329117Y-51265000D01*
X126993919Y-51331675D01*
X126678169Y-51462463D01*
X126394002Y-51652337D01*
X126152337Y-51894002D01*
X125962463Y-52178169D01*
X125831675Y-52493919D01*
X125765000Y-52829117D01*
X122052265Y-52829117D01*
X122104609Y-52750779D01*
X122224089Y-52462327D01*
X122285000Y-52156109D01*
X122285000Y-51843891D01*
X122224089Y-51537673D01*
X122104609Y-51249221D01*
X121931150Y-50989621D01*
X121876529Y-50935000D01*
X154065001Y-50935000D01*
X154065000Y-73323471D01*
X154010379Y-73268850D01*
X153750779Y-73095391D01*
X153462327Y-72975911D01*
X153156109Y-72915000D01*
X152843891Y-72915000D01*
X152537673Y-72975911D01*
X152249221Y-73095391D01*
X151989621Y-73268850D01*
X151768850Y-73489621D01*
X151595391Y-73749221D01*
X151475911Y-74037673D01*
X151415000Y-74343891D01*
X151415000Y-74656109D01*
X151475911Y-74962327D01*
X151595391Y-75250779D01*
X151768850Y-75510379D01*
X151989621Y-75731150D01*
X152121676Y-75819387D01*
X152079853Y-75940248D01*
X153000000Y-76860395D01*
X153014143Y-76846253D01*
X153193748Y-77025858D01*
X153179605Y-77040000D01*
X153193748Y-77054143D01*
X153014143Y-77233748D01*
X153000000Y-77219605D01*
X152079853Y-78139752D01*
X152169579Y-78399042D01*
X152450671Y-78534935D01*
X152752873Y-78613379D01*
X153064573Y-78631359D01*
X153373791Y-78588184D01*
X153668644Y-78485513D01*
X153830421Y-78399042D01*
X153920146Y-78139754D01*
X154035949Y-78255557D01*
X154065000Y-78226506D01*
X154065000Y-79065000D01*
X100935000Y-79065000D01*
X100935000Y-76829117D01*
X125765000Y-76829117D01*
X125765000Y-77170883D01*
X125831675Y-77506081D01*
X125962463Y-77821831D01*
X126152337Y-78105998D01*
X126394002Y-78347663D01*
X126678169Y-78537537D01*
X126993919Y-78668325D01*
X127329117Y-78735000D01*
X127670883Y-78735000D01*
X128006081Y-78668325D01*
X128321831Y-78537537D01*
X128605998Y-78347663D01*
X128847663Y-78105998D01*
X129037537Y-77821831D01*
X129168325Y-77506081D01*
X129235000Y-77170883D01*
X129235000Y-76829117D01*
X129168325Y-76493919D01*
X129037537Y-76178169D01*
X128847663Y-75894002D01*
X128605998Y-75652337D01*
X128321831Y-75462463D01*
X128006081Y-75331675D01*
X127670883Y-75265000D01*
X127329117Y-75265000D01*
X126993919Y-75331675D01*
X126678169Y-75462463D01*
X126394002Y-75652337D01*
X126152337Y-75894002D01*
X125962463Y-76178169D01*
X125831675Y-76493919D01*
X125765000Y-76829117D01*
X100935000Y-76829117D01*
X100935000Y-66893891D01*
X111435000Y-66893891D01*
X111435000Y-67206109D01*
X111495911Y-67512327D01*
X111615391Y-67800779D01*
X111788850Y-68060379D01*
X112009621Y-68281150D01*
X112269221Y-68454609D01*
X112557673Y-68574089D01*
X112863891Y-68635000D01*
X113176109Y-68635000D01*
X113482327Y-68574089D01*
X113770779Y-68454609D01*
X114030379Y-68281150D01*
X114161777Y-68149752D01*
X114639853Y-68149752D01*
X114729579Y-68409042D01*
X115010671Y-68544935D01*
X115312873Y-68623379D01*
X115624573Y-68641359D01*
X115933791Y-68598184D01*
X116228644Y-68495513D01*
X116390421Y-68409042D01*
X116480147Y-68149752D01*
X115560000Y-67229605D01*
X114639853Y-68149752D01*
X114161777Y-68149752D01*
X114251150Y-68060379D01*
X114339387Y-67928324D01*
X114460248Y-67970147D01*
X115380395Y-67050000D01*
X115739605Y-67050000D01*
X116659752Y-67970147D01*
X116780613Y-67928324D01*
X116868850Y-68060379D01*
X117089621Y-68281150D01*
X117349221Y-68454609D01*
X117637673Y-68574089D01*
X117943891Y-68635000D01*
X118256109Y-68635000D01*
X118562327Y-68574089D01*
X118850779Y-68454609D01*
X119110379Y-68281150D01*
X119331150Y-68060379D01*
X119370000Y-68002236D01*
X119408850Y-68060379D01*
X119629621Y-68281150D01*
X119889221Y-68454609D01*
X120177673Y-68574089D01*
X120483891Y-68635000D01*
X120796109Y-68635000D01*
X121102327Y-68574089D01*
X121390779Y-68454609D01*
X121650379Y-68281150D01*
X121871150Y-68060379D01*
X122044609Y-67800779D01*
X122164089Y-67512327D01*
X122225000Y-67206109D01*
X122225000Y-66893891D01*
X122164089Y-66587673D01*
X122044609Y-66299221D01*
X121871150Y-66039621D01*
X121650379Y-65818850D01*
X121390779Y-65645391D01*
X121102327Y-65525911D01*
X120796109Y-65465000D01*
X120483891Y-65465000D01*
X120177673Y-65525911D01*
X119889221Y-65645391D01*
X119629621Y-65818850D01*
X119408850Y-66039621D01*
X119370000Y-66097764D01*
X119331150Y-66039621D01*
X119110379Y-65818850D01*
X118850779Y-65645391D01*
X118562327Y-65525911D01*
X118256109Y-65465000D01*
X117943891Y-65465000D01*
X117637673Y-65525911D01*
X117349221Y-65645391D01*
X117089621Y-65818850D01*
X116868850Y-66039621D01*
X116780613Y-66171676D01*
X116659752Y-66129853D01*
X115739605Y-67050000D01*
X115380395Y-67050000D01*
X114460248Y-66129853D01*
X114339387Y-66171676D01*
X114251150Y-66039621D01*
X114161777Y-65950248D01*
X114639853Y-65950248D01*
X115560000Y-66870395D01*
X116480147Y-65950248D01*
X116390421Y-65690958D01*
X116109329Y-65555065D01*
X115807127Y-65476621D01*
X115495427Y-65458641D01*
X115186209Y-65501816D01*
X114891356Y-65604487D01*
X114729579Y-65690958D01*
X114639853Y-65950248D01*
X114161777Y-65950248D01*
X114030379Y-65818850D01*
X113770779Y-65645391D01*
X113482327Y-65525911D01*
X113176109Y-65465000D01*
X112863891Y-65465000D01*
X112557673Y-65525911D01*
X112269221Y-65645391D01*
X112009621Y-65818850D01*
X111788850Y-66039621D01*
X111615391Y-66299221D01*
X111495911Y-66587673D01*
X111435000Y-66893891D01*
X100935000Y-66893891D01*
X100935000Y-64829117D01*
X101265000Y-64829117D01*
X101265000Y-65170883D01*
X101331675Y-65506081D01*
X101462463Y-65821831D01*
X101652337Y-66105998D01*
X101894002Y-66347663D01*
X102178169Y-66537537D01*
X102493919Y-66668325D01*
X102829117Y-66735000D01*
X103170883Y-66735000D01*
X103506081Y-66668325D01*
X103821831Y-66537537D01*
X104105998Y-66347663D01*
X104347663Y-66105998D01*
X104537537Y-65821831D01*
X104668325Y-65506081D01*
X104735000Y-65170883D01*
X104735000Y-64829117D01*
X104668325Y-64493919D01*
X104537537Y-64178169D01*
X104347663Y-63894002D01*
X104105998Y-63652337D01*
X103821831Y-63462463D01*
X103506081Y-63331675D01*
X103170883Y-63265000D01*
X102829117Y-63265000D01*
X102493919Y-63331675D01*
X102178169Y-63462463D01*
X101894002Y-63652337D01*
X101652337Y-63894002D01*
X101462463Y-64178169D01*
X101331675Y-64493919D01*
X101265000Y-64829117D01*
X100935000Y-64829117D01*
X100935000Y-62793891D01*
X111435000Y-62793891D01*
X111435000Y-63106109D01*
X111495911Y-63412327D01*
X111615391Y-63700779D01*
X111788850Y-63960379D01*
X112009621Y-64181150D01*
X112269221Y-64354609D01*
X112557673Y-64474089D01*
X112863891Y-64535000D01*
X113176109Y-64535000D01*
X113482327Y-64474089D01*
X113770779Y-64354609D01*
X114030379Y-64181150D01*
X114161777Y-64049752D01*
X114639853Y-64049752D01*
X114729579Y-64309042D01*
X115010671Y-64444935D01*
X115312873Y-64523379D01*
X115624573Y-64541359D01*
X115933791Y-64498184D01*
X116228644Y-64395513D01*
X116390421Y-64309042D01*
X116480147Y-64049752D01*
X115560000Y-63129605D01*
X114639853Y-64049752D01*
X114161777Y-64049752D01*
X114251150Y-63960379D01*
X114339387Y-63828324D01*
X114460248Y-63870147D01*
X115380395Y-62950000D01*
X115739605Y-62950000D01*
X116659752Y-63870147D01*
X116780613Y-63828324D01*
X116868850Y-63960379D01*
X117089621Y-64181150D01*
X117349221Y-64354609D01*
X117637673Y-64474089D01*
X117943891Y-64535000D01*
X118256109Y-64535000D01*
X118562327Y-64474089D01*
X118850779Y-64354609D01*
X119110379Y-64181150D01*
X119331150Y-63960379D01*
X119370000Y-63902236D01*
X119408850Y-63960379D01*
X119629621Y-64181150D01*
X119889221Y-64354609D01*
X120177673Y-64474089D01*
X120483891Y-64535000D01*
X120796109Y-64535000D01*
X121102327Y-64474089D01*
X121390779Y-64354609D01*
X121650379Y-64181150D01*
X121871150Y-63960379D01*
X122044609Y-63700779D01*
X122164089Y-63412327D01*
X122225000Y-63106109D01*
X122225000Y-62793891D01*
X122164089Y-62487673D01*
X122044609Y-62199221D01*
X121871150Y-61939621D01*
X121650379Y-61718850D01*
X121390779Y-61545391D01*
X121102327Y-61425911D01*
X120796109Y-61365000D01*
X120483891Y-61365000D01*
X120177673Y-61425911D01*
X119889221Y-61545391D01*
X119629621Y-61718850D01*
X119408850Y-61939621D01*
X119370000Y-61997764D01*
X119331150Y-61939621D01*
X119110379Y-61718850D01*
X118850779Y-61545391D01*
X118562327Y-61425911D01*
X118256109Y-61365000D01*
X117943891Y-61365000D01*
X117637673Y-61425911D01*
X117349221Y-61545391D01*
X117089621Y-61718850D01*
X116868850Y-61939621D01*
X116780613Y-62071676D01*
X116659752Y-62029853D01*
X115739605Y-62950000D01*
X115380395Y-62950000D01*
X114460248Y-62029853D01*
X114339387Y-62071676D01*
X114251150Y-61939621D01*
X114161777Y-61850248D01*
X114639853Y-61850248D01*
X115560000Y-62770395D01*
X116480147Y-61850248D01*
X116390421Y-61590958D01*
X116109329Y-61455065D01*
X115807127Y-61376621D01*
X115495427Y-61358641D01*
X115186209Y-61401816D01*
X114891356Y-61504487D01*
X114729579Y-61590958D01*
X114639853Y-61850248D01*
X114161777Y-61850248D01*
X114030379Y-61718850D01*
X113770779Y-61545391D01*
X113482327Y-61425911D01*
X113176109Y-61365000D01*
X112863891Y-61365000D01*
X112557673Y-61425911D01*
X112269221Y-61545391D01*
X112009621Y-61718850D01*
X111788850Y-61939621D01*
X111615391Y-62199221D01*
X111495911Y-62487673D01*
X111435000Y-62793891D01*
X100935000Y-62793891D01*
X100935000Y-50935000D01*
X101743471Y-50935000D01*
X101688850Y-50989621D01*
G37*
%TD.AperFunction*%
%TD*%
M02*
